<svg width="170" height="139" viewBox="0 0 170 139" fill="none" xmlns="http://www.w3.org/2000/svg">
<path d="M80.3873 38.9409C82.7359 35.0266 95.6703 23.8648 100.367 20.7986C98.4755 23.0167 93.4315 27.4188 89.2041 31.3331C83.9199 36.2259 81.9704 40.3699 77.0776 49.1769C72.1848 57.984 73.2603 59.2793 72.2817 70.0435C71.4989 78.6548 72.7067 87.8628 73.3591 90.4723H67.292C68.2053 80.7519 70.3059 60.2934 71.4019 56.2226C72.7719 51.1341 77.4516 43.8337 80.3873 38.9409Z" fill="#F8FAFC"/>
<path fill-rule="evenodd" clip-rule="evenodd" d="M89.3853 29.4267C93.5009 25.7626 97.9164 22.1987 100.276 20.6584L100.495 20.9071C99.541 22.0252 97.7993 23.6871 95.7749 25.5527C94.8473 26.4076 93.8617 27.304 92.863 28.2124C91.6746 29.2933 90.4677 30.391 89.3177 31.4558C84.6558 35.7724 82.605 39.4961 78.7891 46.4248C78.2994 47.3138 77.7808 48.2556 77.2238 49.2581C74.7819 53.6536 73.8373 56.1602 73.3767 58.9039C73.1458 60.2796 73.036 61.7181 72.9227 63.4911C72.9047 63.7729 72.8867 64.0631 72.868 64.3627C72.7693 65.9464 72.6542 67.7933 72.4483 70.0586C71.6671 78.6513 72.8735 87.8404 73.5213 90.4317L73.5733 90.6396H67.1082L67.1253 90.4566C67.5821 85.5957 68.3357 78.0499 69.1121 71.2099C69.8877 64.3781 70.6882 58.2298 71.2403 56.1791C71.931 53.6137 73.4522 50.5013 75.1612 47.427C76.4425 45.1221 77.8344 42.8298 79.0685 40.7976C79.4813 40.1178 79.8764 39.4671 80.2438 38.8547C80.8423 37.8573 82.1041 36.4132 83.7201 34.7687C85.3398 33.1204 87.3264 31.2598 89.3853 29.4267ZM83.9587 35.0032C82.3422 36.6483 81.1065 38.0672 80.5307 39.0269C80.1616 39.6421 79.7653 40.2947 79.3518 40.9757C78.1184 43.0068 76.7315 45.2908 75.4536 47.5896C73.7463 50.6608 72.2427 53.7429 71.5634 56.266C71.0195 58.2861 70.2217 64.4024 69.4446 71.2477C68.6781 77.9996 67.9339 85.4405 67.4757 90.305H73.1468C72.4809 87.4272 71.35 78.444 72.115 70.0283C72.3205 67.7681 72.4353 65.9263 72.534 64.3427C72.5527 64.0428 72.5708 63.7522 72.5888 63.4697C72.702 61.6971 72.8126 60.2431 73.0467 58.8485C73.5162 56.0518 74.4804 53.5073 76.9313 49.0956C77.4881 48.0933 78.007 47.151 78.4972 46.2608C82.3097 39.3374 84.3868 35.5654 89.0904 31.2103C90.2382 30.1475 91.4496 29.0456 92.641 27.962C93.6407 27.0528 94.6262 26.1563 95.5481 25.3067C96.9777 23.9893 98.2574 22.7813 99.2168 21.7979C96.749 23.5801 93.0763 26.5886 89.6078 29.6766C87.5524 31.5065 85.5716 33.3619 83.9587 35.0032Z" fill="#F1F5F9"/>
<rect x="0.342773" y="99.4221" width="169.486" height="21.704" rx="6" fill="#F1F5F9"/>
<path d="M32.7328 118.224H30.2094L34.8812 106.505H37.4203L42.0844 118.224H39.5609L38.6 115.708H33.6937L32.7328 118.224ZM34.4828 113.599H37.8187L36.1469 109.255L34.4828 113.599ZM44.3578 108.544C44.0609 108.544 43.8109 108.44 43.6078 108.232C43.4047 108.023 43.3031 107.771 43.3031 107.474C43.3031 107.177 43.4047 106.927 43.6078 106.724C43.8109 106.516 44.0609 106.411 44.3578 106.411C44.6599 106.411 44.9125 106.516 45.1156 106.724C45.3239 106.927 45.4281 107.177 45.4281 107.474C45.4281 107.771 45.3239 108.023 45.1156 108.232C44.9125 108.44 44.6599 108.544 44.3578 108.544ZM45.4828 118.224H43.2406V110.411H45.4828V118.224ZM50.2875 118.224H48.0453V112.411H46.6781V110.411H48.0453V109.193C48.0453 108.63 48.1781 108.13 48.4437 107.693C48.7094 107.25 49.0739 106.904 49.5375 106.654C50.0062 106.398 50.5375 106.271 51.1312 106.271C51.5062 106.271 51.889 106.325 52.2797 106.435C52.6703 106.539 53.0557 106.706 53.4359 106.935L52.5844 108.677C52.4177 108.542 52.2406 108.443 52.0531 108.38C51.8708 108.312 51.6885 108.279 51.5062 108.279C51.1625 108.279 50.8734 108.398 50.639 108.638C50.4047 108.878 50.2875 109.208 50.2875 109.63V110.411H52.6234V112.411H50.2875V118.224ZM61.35 118.224H59.3969L59.2797 117.294C58.9932 117.638 58.639 117.906 58.2172 118.099C57.7953 118.286 57.3317 118.38 56.8265 118.38C56.2797 118.38 55.7927 118.276 55.3656 118.068C54.9385 117.854 54.6026 117.562 54.3578 117.193C54.113 116.818 53.9906 116.393 53.9906 115.919C53.9906 115.419 54.1234 114.979 54.389 114.599C54.6547 114.219 55.0192 113.922 55.4828 113.708C55.9515 113.49 56.4828 113.38 57.0765 113.38C57.4255 113.38 57.7745 113.419 58.1234 113.497C58.4776 113.575 58.8057 113.685 59.1078 113.825V113.622C59.1078 113.31 59.0192 113.042 58.8422 112.818C58.6703 112.588 58.4307 112.411 58.1234 112.286C57.8213 112.161 57.4828 112.099 57.1078 112.099C56.7484 112.099 56.3916 112.156 56.0375 112.271C55.6885 112.385 55.3656 112.557 55.0687 112.786L54.4594 111.075C54.9854 110.805 55.5166 110.601 56.0531 110.466C56.5948 110.325 57.1182 110.255 57.6234 110.255C58.3838 110.255 59.0427 110.406 59.6 110.708C60.1573 111.005 60.587 111.427 60.889 111.974C61.1963 112.516 61.35 113.159 61.35 113.904V118.224ZM57.3187 116.654C57.6156 116.654 57.8995 116.588 58.1703 116.458C58.4411 116.328 58.6599 116.151 58.8265 115.927C58.9984 115.703 59.0896 115.456 59.1 115.185V115.13C58.8708 114.974 58.6156 114.854 58.3344 114.771C58.0583 114.682 57.7771 114.638 57.4906 114.638C57.0635 114.638 56.7146 114.732 56.4437 114.919C56.1729 115.107 56.0375 115.349 56.0375 115.646C56.0375 115.838 56.0922 116.013 56.2015 116.169C56.3161 116.32 56.4698 116.44 56.6625 116.529C56.8552 116.612 57.0739 116.654 57.3187 116.654ZM66.1781 116.958L67.3187 115.122C67.6781 115.414 68.0245 115.654 68.3578 115.841C68.6963 116.023 69.0297 116.159 69.3578 116.247C69.6859 116.331 70.0219 116.372 70.3656 116.372C70.7719 116.372 71.1234 116.315 71.4203 116.2C71.7172 116.086 71.9463 115.922 72.1078 115.708C72.2745 115.495 72.3578 115.247 72.3578 114.966C72.3578 114.638 72.2536 114.362 72.0453 114.138C71.837 113.914 71.5635 113.719 71.225 113.552C70.8916 113.38 70.5297 113.216 70.139 113.06C69.7588 112.904 69.376 112.734 68.9906 112.552C68.6104 112.365 68.2588 112.143 67.9359 111.888C67.6182 111.633 67.3604 111.323 67.1625 110.958C66.9698 110.588 66.8734 110.141 66.8734 109.615C66.8734 108.927 67.0453 108.333 67.389 107.833C67.738 107.333 68.2146 106.948 68.8187 106.677C69.4229 106.406 70.113 106.271 70.889 106.271C71.4359 106.271 72.0036 106.344 72.5922 106.49C73.1859 106.635 73.7771 106.857 74.3656 107.154L73.4203 109.099C73.0505 108.875 72.6521 108.698 72.225 108.568C71.7979 108.437 71.3969 108.372 71.0219 108.372C70.6833 108.372 70.3864 108.424 70.1312 108.529C69.8812 108.633 69.6859 108.779 69.5453 108.966C69.4047 109.148 69.3344 109.365 69.3344 109.615C69.3344 109.911 69.4359 110.169 69.639 110.388C69.8422 110.601 70.1052 110.792 70.4281 110.958C70.7562 111.125 71.1078 111.292 71.4828 111.458C71.8682 111.625 72.2562 111.807 72.6469 112.005C73.0427 112.203 73.4021 112.437 73.725 112.708C74.0531 112.974 74.3161 113.294 74.514 113.669C74.7172 114.039 74.8187 114.484 74.8187 115.005C74.8187 115.693 74.6364 116.297 74.2719 116.818C73.9073 117.333 73.3995 117.737 72.7484 118.029C72.0974 118.315 71.3396 118.458 70.475 118.458C69.6833 118.458 68.9255 118.331 68.2015 118.075C67.4776 117.82 66.8031 117.448 66.1781 116.958ZM83.5297 117.349C82.5609 118.036 81.501 118.38 80.35 118.38C79.4958 118.38 78.7276 118.198 78.0453 117.833C77.3682 117.463 76.8317 116.963 76.4359 116.333C76.0453 115.703 75.85 114.992 75.85 114.2C75.85 113.445 76.0271 112.771 76.3812 112.177C76.7406 111.583 77.2276 111.115 77.8422 110.771C78.4567 110.427 79.1547 110.255 79.9359 110.255C80.7432 110.255 81.4541 110.445 82.0687 110.825C82.6833 111.2 83.1625 111.726 83.5062 112.404C83.85 113.075 84.0219 113.854 84.0219 114.74V114.99H78.264C78.3578 115.297 78.5088 115.568 78.7172 115.802C78.9307 116.031 79.1963 116.213 79.514 116.349C79.837 116.484 80.2041 116.552 80.6156 116.552C81.4125 116.552 82.1547 116.294 82.8422 115.779L83.5297 117.349ZM78.1625 113.849H81.9515C81.9099 113.51 81.8031 113.213 81.6312 112.958C81.4646 112.698 81.2432 112.495 80.9672 112.349C80.6963 112.203 80.3916 112.13 80.0531 112.13C79.7094 112.13 79.4021 112.206 79.1312 112.357C78.8656 112.508 78.6495 112.711 78.4828 112.966C78.3161 113.221 78.2094 113.516 78.1625 113.849ZM87.6859 118.224H85.4437V110.411H87.3969L87.475 111.763C87.7354 111.289 88.0896 110.919 88.5375 110.654C88.9854 110.388 89.4984 110.255 90.0765 110.255C90.2432 110.255 90.4099 110.268 90.5765 110.294C90.7484 110.315 90.9229 110.349 91.1 110.396L90.8187 112.411C90.475 112.312 90.1495 112.263 89.8422 112.263C89.4099 112.263 89.0297 112.362 88.7015 112.56C88.3786 112.753 88.1286 113.023 87.9515 113.372C87.7745 113.716 87.6859 114.12 87.6859 114.583V118.224ZM100.209 110.411L97.0219 118.224H94.85L91.6625 110.411H94.0609L95.9437 115.958L97.8265 110.411H100.209ZM102.623 108.544C102.327 108.544 102.077 108.44 101.873 108.232C101.67 108.023 101.569 107.771 101.569 107.474C101.569 107.177 101.67 106.927 101.873 106.724C102.077 106.516 102.327 106.411 102.623 106.411C102.925 106.411 103.178 106.516 103.381 106.724C103.59 106.927 103.694 107.177 103.694 107.474C103.694 107.771 103.59 108.023 103.381 108.232C103.178 108.44 102.925 108.544 102.623 108.544ZM103.748 118.224H101.506V110.411H103.748V118.224ZM112.6 116.982C112.22 117.419 111.754 117.763 111.202 118.013C110.649 118.258 110.043 118.38 109.381 118.38C108.579 118.38 107.86 118.206 107.225 117.857C106.595 117.503 106.097 117.018 105.733 116.404C105.373 115.789 105.194 115.094 105.194 114.318C105.194 113.536 105.373 112.841 105.733 112.232C106.097 111.617 106.595 111.135 107.225 110.786C107.86 110.432 108.579 110.255 109.381 110.255C110.037 110.255 110.642 110.378 111.194 110.622C111.746 110.867 112.212 111.206 112.592 111.638L111.272 113.021C111.069 112.786 110.811 112.604 110.498 112.474C110.191 112.338 109.868 112.271 109.53 112.271C109.139 112.271 108.79 112.359 108.483 112.536C108.175 112.708 107.933 112.948 107.756 113.255C107.579 113.557 107.491 113.906 107.491 114.302C107.491 114.703 107.579 115.06 107.756 115.372C107.933 115.685 108.175 115.93 108.483 116.107C108.79 116.279 109.139 116.365 109.53 116.365C109.868 116.365 110.194 116.299 110.506 116.169C110.819 116.034 111.074 115.849 111.272 115.615L112.6 116.982ZM121.17 117.349C120.202 118.036 119.142 118.38 117.991 118.38C117.136 118.38 116.368 118.198 115.686 117.833C115.009 117.463 114.472 116.963 114.077 116.333C113.686 115.703 113.491 114.992 113.491 114.2C113.491 113.445 113.668 112.771 114.022 112.177C114.381 111.583 114.868 111.115 115.483 110.771C116.097 110.427 116.795 110.255 117.577 110.255C118.384 110.255 119.095 110.445 119.709 110.825C120.324 111.2 120.803 111.726 121.147 112.404C121.491 113.075 121.662 113.854 121.662 114.74V114.99H115.905C115.998 115.297 116.149 115.568 116.358 115.802C116.571 116.031 116.837 116.213 117.155 116.349C117.478 116.484 117.845 116.552 118.256 116.552C119.053 116.552 119.795 116.294 120.483 115.779L121.17 117.349ZM115.803 113.849H119.592C119.55 113.51 119.444 113.213 119.272 112.958C119.105 112.698 118.884 112.495 118.608 112.349C118.337 112.203 118.032 112.13 117.694 112.13C117.35 112.13 117.043 112.206 116.772 112.357C116.506 112.508 116.29 112.711 116.123 112.966C115.957 113.221 115.85 113.516 115.803 113.849ZM122.537 117.552L123.03 115.646C123.186 115.818 123.394 115.976 123.655 116.122C123.92 116.268 124.204 116.385 124.506 116.474C124.814 116.557 125.103 116.599 125.373 116.599C125.696 116.599 125.949 116.539 126.131 116.419C126.314 116.294 126.405 116.128 126.405 115.919C126.405 115.747 126.342 115.604 126.217 115.49C126.097 115.37 125.933 115.266 125.725 115.177C125.522 115.083 125.295 114.992 125.045 114.904C124.707 114.773 124.358 114.622 123.998 114.45C123.644 114.279 123.345 114.044 123.1 113.747C122.855 113.45 122.733 113.057 122.733 112.568C122.733 112.099 122.855 111.693 123.1 111.349C123.345 111 123.691 110.732 124.139 110.544C124.587 110.351 125.108 110.255 125.702 110.255C126.665 110.255 127.626 110.497 128.584 110.982L127.952 112.755C127.785 112.625 127.577 112.505 127.327 112.396C127.077 112.281 126.819 112.19 126.553 112.122C126.293 112.055 126.058 112.021 125.85 112.021C125.595 112.021 125.394 112.073 125.248 112.177C125.108 112.281 125.037 112.424 125.037 112.607C125.037 112.742 125.087 112.865 125.186 112.974C125.285 113.078 125.431 113.18 125.623 113.279C125.821 113.372 126.064 113.474 126.35 113.583C126.704 113.713 127.061 113.87 127.42 114.052C127.785 114.229 128.09 114.469 128.334 114.771C128.584 115.068 128.709 115.463 128.709 115.958C128.709 116.443 128.577 116.867 128.311 117.232C128.05 117.596 127.681 117.88 127.202 118.083C126.728 118.281 126.17 118.38 125.53 118.38C124.462 118.38 123.465 118.104 122.537 117.552ZM38.6312 138.224H30.975V126.505H33.3812V136.122H38.6312V138.224ZM44.2797 138.021C43.6807 138.26 43.1 138.38 42.5375 138.38C41.9541 138.38 41.4385 138.258 40.9906 138.013C40.5479 137.763 40.2015 137.417 39.9515 136.974C39.7015 136.526 39.5765 136.01 39.5765 135.427V132.411H38.2094V130.411H39.6937V128.458H41.8187V130.411H43.9828V132.411H41.8187V135.021C41.8187 135.448 41.9359 135.781 42.1703 136.021C42.4047 136.255 42.6963 136.372 43.0453 136.372C43.363 136.372 43.6729 136.273 43.975 136.075L44.2797 138.021ZM53.6312 138.224H51.6625L51.5453 137.161C51.212 137.536 50.8109 137.833 50.3422 138.052C49.8786 138.271 49.3708 138.38 48.8187 138.38C48.1052 138.38 47.4672 138.206 46.9047 137.857C46.3474 137.503 45.9073 137.018 45.5844 136.404C45.2614 135.789 45.1 135.094 45.1 134.318C45.1 133.536 45.2614 132.841 45.5844 132.232C45.9073 131.617 46.3474 131.135 46.9047 130.786C47.4672 130.432 48.1052 130.255 48.8187 130.255C49.3291 130.255 49.8031 130.349 50.2406 130.536C50.6833 130.719 51.0661 130.974 51.389 131.302V126.505H53.6312V138.224ZM49.3969 136.372C49.7666 136.372 50.1 136.289 50.3969 136.122C50.6989 135.956 50.9385 135.729 51.1156 135.443C51.2979 135.151 51.389 134.82 51.389 134.45V134.169C51.389 133.799 51.2979 133.471 51.1156 133.185C50.9385 132.898 50.6989 132.674 50.3969 132.513C50.1 132.346 49.7666 132.263 49.3969 132.263C49.0166 132.263 48.6755 132.351 48.3734 132.529C48.0713 132.706 47.8317 132.95 47.6547 133.263C47.4828 133.57 47.3969 133.922 47.3969 134.318C47.3969 134.708 47.4828 135.06 47.6547 135.372C47.8317 135.68 48.0713 135.924 48.3734 136.107C48.6755 136.284 49.0166 136.372 49.3969 136.372ZM56.475 138.38C56.1625 138.38 55.9073 138.284 55.7094 138.091C55.5166 137.893 55.4203 137.635 55.4203 137.318C55.4203 137 55.5166 136.745 55.7094 136.552C55.9073 136.354 56.1625 136.255 56.475 136.255C56.7927 136.255 57.0505 136.354 57.2484 136.552C57.4463 136.745 57.5453 137 57.5453 137.318C57.5453 137.635 57.4463 137.893 57.2484 138.091C57.0505 138.284 56.7927 138.38 56.475 138.38Z" fill="black"/>
<path d="M39.7128 90.4723C37.4065 90.4723 35.3134 90.0379 33.4336 89.1691C31.5538 88.2845 30.061 87.0128 28.9552 85.3541C27.8494 83.6797 27.2965 81.6577 27.2965 79.2882C27.2965 77.203 27.7072 75.5127 28.5287 74.2174C29.3501 72.9062 30.448 71.8795 31.8223 71.137C33.1966 70.3946 34.7131 69.8417 36.3718 69.4783C38.0462 69.0992 39.7286 68.7991 41.4189 68.5779C43.6304 68.2936 45.4234 68.0803 46.7977 67.9381C48.1878 67.7802 49.1988 67.5195 49.8307 67.1562C50.4783 66.7929 50.8022 66.161 50.8022 65.2606V65.071C50.8022 62.7331 50.1624 60.9165 48.8829 59.6211C47.6191 58.3258 45.6998 57.6781 43.1249 57.6781C40.4553 57.6781 38.3622 58.2626 36.8457 59.4316C35.3292 60.6005 34.2629 61.8485 33.6468 63.1754L28.3391 61.2798C29.2869 59.0682 30.5507 57.3464 32.1303 56.1142C33.7258 54.8663 35.4635 53.9975 37.3433 53.5078C39.2389 53.0023 41.1029 52.7495 42.9354 52.7495C44.1043 52.7495 45.4471 52.8917 46.9635 53.176C48.4958 53.4446 49.9728 54.0054 51.3946 54.8584C52.8321 55.7114 54.0247 56.9989 54.9725 58.7207C55.9203 60.4426 56.3942 62.7489 56.3942 65.6397V89.6193H50.8022V84.6907H50.5178C50.1387 85.4805 49.5068 86.3256 48.6222 87.2261C47.7376 88.1265 46.5607 88.8926 45.0916 89.5245C43.6225 90.1564 41.8296 90.4723 39.7128 90.4723ZM40.5658 85.4489C42.7774 85.4489 44.6414 85.0145 46.1579 84.1457C47.6902 83.2769 48.8434 82.1553 49.6174 80.781C50.4072 79.4066 50.8022 77.9612 50.8022 76.4447V71.3266C50.5652 71.6109 50.0439 71.8716 49.2383 72.1085C48.4484 72.3297 47.5322 72.5271 46.4896 72.7009C45.4628 72.8589 44.4597 73.001 43.4803 73.1274C42.5167 73.238 41.7348 73.3328 41.1345 73.4117C39.6812 73.6013 38.3227 73.9093 37.0589 74.3359C35.811 74.7466 34.8 75.3706 34.026 76.2078C33.2677 77.0292 32.8886 78.1508 32.8886 79.5725C32.8886 81.5155 33.6073 82.9846 35.0448 83.9798C36.4982 84.9592 38.3385 85.4489 40.5658 85.4489Z" fill="white"/>
<path d="M130.316 90.4721C128.01 90.4721 125.917 90.0377 124.037 89.1688C122.157 88.2842 120.664 87.0126 119.559 85.3539C118.453 83.6794 117.9 81.6574 117.9 79.2879C117.9 77.2027 118.311 75.5125 119.132 74.2171C119.953 72.906 121.051 71.8792 122.426 71.1368C123.8 70.3943 125.317 69.8414 126.975 69.4781C128.65 69.099 130.332 68.7988 132.022 68.5777C134.234 68.2933 136.027 68.0801 137.401 67.9379C138.791 67.7799 139.802 67.5193 140.434 67.156C141.082 66.7926 141.406 66.1608 141.406 65.2603V65.0708C141.406 62.7329 140.766 60.9162 139.486 59.6209C138.223 58.3255 136.303 57.6779 133.728 57.6779C131.059 57.6779 128.966 58.2624 127.449 59.4313C125.933 60.6003 124.866 61.8482 124.25 63.1752L118.942 61.2795C119.89 59.068 121.154 57.3461 122.734 56.114C124.329 54.866 126.067 53.9972 127.947 53.5075C129.842 53.002 131.706 52.7493 133.539 52.7493C134.708 52.7493 136.05 52.8914 137.567 53.1758C139.099 53.4443 140.576 54.0051 141.998 54.8581C143.435 55.7112 144.628 56.9986 145.576 58.7205C146.524 60.4423 146.998 62.7487 146.998 65.6395V89.619H141.406V84.6904H141.121C140.742 85.4803 140.11 86.3254 139.226 87.2258C138.341 88.1262 137.164 88.8924 135.695 89.5243C134.226 90.1561 132.433 90.4721 130.316 90.4721ZM131.169 85.4487C133.381 85.4487 135.245 85.0143 136.761 84.1454C138.294 83.2766 139.447 82.155 140.221 80.7807C141.011 79.4064 141.406 77.961 141.406 76.4445V71.3263C141.169 71.6107 140.647 71.8713 139.842 72.1083C139.052 72.3294 138.136 72.5269 137.093 72.7006C136.066 72.8586 135.063 73.0008 134.084 73.1272C133.12 73.2377 132.338 73.3325 131.738 73.4115C130.285 73.6011 128.926 73.9091 127.662 74.3356C126.414 74.7463 125.403 75.3703 124.629 76.2075C123.871 77.029 123.492 78.1505 123.492 79.5723C123.492 81.5153 124.211 82.9844 125.648 83.9796C127.102 84.959 128.942 85.4487 131.169 85.4487Z" fill="white"/>
<path d="M109.461 63.4468V66.9657H85.0856V63.4468H109.461ZM92.3864 90.4721V59.7167C92.3864 58.1684 92.9948 56.8781 94.2117 55.8459C95.4285 54.8137 97.0084 54.0395 98.9513 53.5234C100.894 53.0073 102.945 52.7493 105.104 52.7493C106.812 52.7493 108.205 52.8314 109.284 52.9956C110.364 53.1598 111.168 53.3123 111.698 53.4531L109.697 57.0423C109.343 56.972 108.853 56.884 108.225 56.7784C107.616 56.6729 106.812 56.6201 105.811 56.6201C103.514 56.6201 101.856 56.9661 100.835 57.6582C99.8345 58.3502 99.334 59.3648 99.334 60.702V90.4721H92.3864Z" fill="#F8FAFC"/>
<path d="M78.4832 13.6225L78.483 13.6227C73.6435 17.8086 70.5409 23.8505 69.3421 29.9825C68.3315 35.1526 68.6824 40.3404 70.4419 44.4998C70.5849 44.2661 70.7908 44.0664 71.071 43.9312C71.4272 43.7593 71.7882 43.8047 72.0797 44.0073C72.3353 44.185 72.5106 44.4626 72.6324 44.728C72.8804 45.2685 73.0102 45.9904 73.024 46.6099C73.031 46.9224 73.0092 47.2339 72.9463 47.5017C72.9317 47.5639 72.913 47.6319 72.8885 47.7018C73.2006 47.787 73.5487 47.8051 73.9281 47.7325C74.1157 47.6966 74.3745 47.5397 74.737 47.1331C75.0909 46.7362 75.4849 46.1698 75.9595 45.4354C76.1934 45.0734 76.4448 44.6739 76.7172 44.2409C77.5373 42.9373 78.5478 41.3313 79.8451 39.5377C83.3143 34.7413 88.8603 28.5616 98.5926 22.7332L99.1494 23.5623L98.8495 23.1622C99.1494 23.5623 99.1494 23.5623 99.1493 23.5624L99.1487 23.5628L99.1464 23.5645L99.1365 23.572L99.0965 23.6022C99.061 23.629 99.0079 23.6693 98.9383 23.7225C98.7991 23.8288 98.5937 23.9867 98.3301 24.1923C97.8029 24.6035 97.0431 25.2052 96.1144 25.9656C94.2566 27.4868 91.725 29.6417 89.0295 32.1767C83.737 37.1539 77.8744 43.5402 75.1899 49.4453C79.2292 51.9707 84.7135 53.0288 90.3397 52.5113C96.1272 51.9791 102.014 49.7837 106.565 45.8719C112.439 40.737 115.085 33.0924 116.68 22.8744C116.8 21.9995 116.905 21.0643 117.014 20.0987C117.278 17.7404 117.563 15.2005 118.147 12.9125C118.823 10.2681 119.925 7.83307 121.953 6.30634C120.998 6.27172 119.672 6.23392 118.07 6.21453C114.657 6.1732 109.996 6.21547 105 6.54938C100.001 6.88343 94.6805 7.50858 89.9441 8.62918C85.1942 9.75298 81.094 11.3612 78.4832 13.6225ZM71.5772 46.7189C71.6927 46.8941 71.8301 47.0574 71.9878 47.2007C72.0154 47.0493 72.0292 46.8548 72.0243 46.6323C72.0125 46.1075 71.8995 45.5286 71.7235 45.1449C71.6341 44.9502 71.553 44.8598 71.5102 44.8293C71.509 44.83 71.5076 44.8309 71.5056 44.8318C71.3333 44.915 71.2077 45.091 71.1821 45.4042C71.1561 45.7236 71.2459 46.1334 71.4653 46.5331C71.5022 46.5954 71.5395 46.6573 71.5772 46.7189Z" fill="url(#paint0_linear_572_26)" stroke="black" stroke-linejoin="bevel"/>
<path d="M78.3633 13.4276C89.1773 4.06128 123.873 6.06424 123.873 6.06424C118.257 8.52933 118.229 16.9907 117.382 23.1302C115.783 33.3796 113.114 41.1766 107.1 46.4327C97.8195 54.4118 83.1396 55.351 74.7666 49.8172C80.0535 37.5886 99.0569 23.3452 99.0569 23.3452C79.7261 34.922 77.0656 47.864 74.2295 48.4067C71.3934 48.9494 69.9956 45.2886 71.4958 44.5646C72.9959 43.8406 73.3365 50.3939 71.3596 47.1653C65.76 38.0201 68.4894 21.9681 78.3633 13.4276Z" fill="#F8FAFC"/>
<path d="M108.524 35.4655C108.623 38.2823 106.348 40.648 103.443 40.7494C100.539 40.8509 98.1047 38.6496 98.0064 35.8328C97.908 33.0159 100.183 30.6502 103.087 30.5488C105.992 30.4473 108.426 32.6486 108.524 35.4655Z" fill="#64748B"/>
<path d="M99.4074 6.46998C75.796 10.72 73.7625 17.7153 71.8705 21.4996C68.6926 27.8556 66.126 38.8154 72.0196 48.1393L72.7924 48.5186L73.1363 48.575H73.4576L74.607 48.4388" stroke="black" stroke-linecap="round"/>
<path d="M74.767 49.8685C77.3788 51.7221 85.0178 54.6007 94.6006 52.6657C104.183 50.7308 110.757 43.46 112.303 39.7778" stroke="black"/>
<defs>
<linearGradient id="paint0_linear_572_26" x1="133.336" y1="25.8912" x2="74.2425" y2="21.759" gradientUnits="userSpaceOnUse">
<stop stop-color="#D5E788"/>
<stop offset="1" stop-color="#10B981"/>
</linearGradient>
</defs>
</svg>
