<svg width="301" height="176" viewBox="0 0 301 176" fill="none" xmlns="http://www.w3.org/2000/svg">
<mask id="path-1-outside-1_521_27" maskUnits="userSpaceOnUse" x="0.896973" y="0.392578" width="301" height="176" fill="black">
<rect fill="white" x="0.896973" y="0.392578" width="301" height="176"/>
<path fill-rule="evenodd" clip-rule="evenodd" d="M131.86 164.214C177.732 164.214 214.88 130.137 214.88 88.1457C214.88 46.1546 177.732 12.0777 131.86 12.0777C85.9884 12.0777 48.8412 46.1546 48.8412 88.1457C48.8412 130.137 85.9884 164.214 131.86 164.214ZM131.86 165.899C178.713 165.899 216.695 131.088 216.695 88.1457C216.695 45.2038 178.713 10.3926 131.86 10.3926C85.0075 10.3926 47.0257 45.2038 47.0257 88.1457C47.0257 131.088 85.0075 165.899 131.86 165.899Z"/>
<path d="M47.0257 70.8057H216.695V105.486H47.0257V70.8057Z"/>
<path d="M269.396 96.2315H290.255V97.4755H268.168V78.8159H269.396V96.2315Z"/>
<path fill-rule="evenodd" clip-rule="evenodd" d="M290.982 95.5575V98.1496H267.442V78.1418H270.122V95.5575H290.982ZM269.396 96.2315V78.8159H268.168V97.4755H290.255V96.2315H269.396Z"/>
<path d="M248.641 91.2556L242.236 80.8311L235.83 91.2556H248.641ZM249.402 92.4996H235.07L232.014 97.4755H230.579L242.236 78.5049L253.893 97.4755H252.457L249.402 92.4996Z"/>
<path fill-rule="evenodd" clip-rule="evenodd" d="M252.457 97.4755H253.893L242.236 78.5049L230.579 97.4755H232.014L235.07 92.4996H249.402L252.457 97.4755ZM248.98 93.1736L252.035 98.1495H255.143L242.236 77.1444L229.328 98.1495H232.436L235.492 93.1736H248.98ZM242.236 80.8311L235.83 91.2556H248.641L242.236 80.8311ZM242.236 82.1917L237.081 90.5816H247.391L242.236 82.1917Z"/>
<path d="M215.076 97.4755H213.849V78.8159H215.076V97.4755Z"/>
<path fill-rule="evenodd" clip-rule="evenodd" d="M215.802 98.1495H213.122V78.1418H215.802V98.1495ZM215.076 97.4755V78.8159H213.849V97.4755H215.076Z"/>
<path d="M194.345 96.2315C196.799 96.2315 198.026 94.9876 198.026 92.4996H199.254C199.254 95.8169 197.617 97.4755 194.345 97.4755H182.075C178.803 97.4755 177.167 95.8169 177.167 92.4996V83.7918C177.167 80.4745 178.803 78.8159 182.075 78.8159H194.345C197.617 78.8159 199.254 80.4745 199.254 83.7918H198.026C198.026 81.3038 196.799 80.0599 194.345 80.0599H182.075C179.621 80.0599 178.394 81.3038 178.394 83.7918V92.4996C178.394 94.9876 179.621 96.2315 182.075 96.2315H194.345Z"/>
<path fill-rule="evenodd" clip-rule="evenodd" d="M197.3 91.8255H199.98V92.4996C199.98 94.2481 199.55 95.6853 198.562 96.6867C197.563 97.6994 196.111 98.1496 194.345 98.1496H182.075C180.31 98.1496 178.857 97.6994 177.858 96.6867C176.87 95.6853 176.44 94.2481 176.44 92.4996V83.7918C176.44 82.0433 176.87 80.6061 177.858 79.6047C178.857 78.592 180.31 78.1418 182.075 78.1418H194.345C196.111 78.1418 197.563 78.592 198.562 79.6047C199.55 80.6061 199.98 82.0433 199.98 83.7918V84.4659H197.3V83.7918C197.3 82.6377 197.014 81.8979 196.571 81.448C196.138 81.0094 195.443 80.7339 194.345 80.7339H182.075C180.977 80.7339 180.282 81.0094 179.85 81.448C179.406 81.8979 179.12 82.6377 179.12 83.7918V92.4996C179.12 93.6537 179.406 94.3935 179.85 94.8434C180.282 95.282 180.977 95.5575 182.075 95.5575H194.345C195.443 95.5575 196.138 95.282 196.571 94.8434C197.014 94.3935 197.3 93.6537 197.3 92.4996V91.8255ZM199.229 93.1737C199.016 96.0416 197.388 97.4755 194.345 97.4755H182.075C178.803 97.4755 177.167 95.8169 177.167 92.4996V83.7918C177.167 80.4745 178.803 78.8159 182.075 78.8159H194.345C197.388 78.8159 199.016 80.2498 199.229 83.1177C199.245 83.3342 199.254 83.5589 199.254 83.7918H198.026C198.026 81.3038 196.799 80.0599 194.345 80.0599H182.075C179.621 80.0599 178.394 81.3038 178.394 83.7918V92.4996C178.394 94.9876 179.621 96.2315 182.075 96.2315H194.345C196.799 96.2315 198.026 94.9876 198.026 92.4996H199.254C199.254 92.7325 199.245 92.9572 199.229 93.1737Z"/>
<path d="M140.534 80.8685V97.4755H139.307V78.2685L160.167 95.4229V78.8159H161.394V98.0229L140.534 80.8685Z"/>
<path fill-rule="evenodd" clip-rule="evenodd" d="M160.167 95.4229V78.8159H161.394V98.0229L140.534 80.8685V97.4755H139.307V78.2685L160.167 95.4229ZM141.26 82.3662V98.1496H138.581V76.7708L159.44 93.9252V78.1418H162.12V99.5206L141.26 82.3662Z"/>
<path d="M119.779 91.2556L113.374 80.8311L106.969 91.2556H119.779ZM120.54 92.4996H106.208L103.153 97.4755H101.717L113.374 78.5049L125.031 97.4755H123.595L120.54 92.4996Z"/>
<path fill-rule="evenodd" clip-rule="evenodd" d="M123.595 97.4755H125.031L113.374 78.5049L101.717 97.4755H103.153L106.208 92.4996H120.54L123.595 97.4755ZM120.118 93.1736L123.173 98.1495H126.281L113.374 77.1444L100.467 98.1495H103.575L106.63 93.1736H120.118ZM113.374 80.8311L106.969 91.2556H119.779L113.374 80.8311ZM113.374 82.1917L108.219 90.5816H118.529L113.374 82.1917Z"/>
<path d="M66.5321 80.8685V97.4755H65.305V78.2685L86.1648 95.4229V78.8159H87.3919V98.0229L66.5321 80.8685Z"/>
<path fill-rule="evenodd" clip-rule="evenodd" d="M86.1648 95.4229V78.8159H87.3919V98.0229L66.5321 80.8685V97.4755H65.305V78.2685L86.1648 95.4229ZM67.2583 82.3662V98.1496H64.5789V76.7708L85.4387 93.9252V78.1418H88.1181V99.5206L67.2583 82.3662Z"/>
<path d="M49.5321 97.4755H48.305V78.8159H49.5321V97.4755Z"/>
<path fill-rule="evenodd" clip-rule="evenodd" d="M50.2583 98.1496H47.5788V78.1418H50.2583V98.1496ZM49.5321 97.4755V78.8159H48.305V97.4755H49.5321Z"/>
<path d="M33.71 78.8159V80.0599H12.8502V87.5237H32.483V88.7677H12.8502V97.4755H11.6232V78.8159H33.71Z"/>
<path fill-rule="evenodd" clip-rule="evenodd" d="M34.4362 78.1418V80.7339H13.5764V86.8496H33.2092V89.4417H13.5764V98.1496H10.897V78.1418H34.4362ZM12.8502 88.7677H32.483V87.5237H12.8502V80.0599H33.71V78.8159H11.6232V97.4755H12.8502V88.7677Z"/>
</mask>
<path fill-rule="evenodd" clip-rule="evenodd" d="M131.86 164.214C177.732 164.214 214.88 130.137 214.88 88.1457C214.88 46.1546 177.732 12.0777 131.86 12.0777C85.9884 12.0777 48.8412 46.1546 48.8412 88.1457C48.8412 130.137 85.9884 164.214 131.86 164.214ZM131.86 165.899C178.713 165.899 216.695 131.088 216.695 88.1457C216.695 45.2038 178.713 10.3926 131.86 10.3926C85.0075 10.3926 47.0257 45.2038 47.0257 88.1457C47.0257 131.088 85.0075 165.899 131.86 165.899Z" fill="#F9FAFB"/>
<path d="M47.0257 70.8057H216.695V105.486H47.0257V70.8057Z" fill="#030712"/>
<path d="M269.396 96.2315H290.255V97.4755H268.168V78.8159H269.396V96.2315Z" fill="#F9FAFB"/>
<path fill-rule="evenodd" clip-rule="evenodd" d="M290.982 95.5575V98.1496H267.442V78.1418H270.122V95.5575H290.982ZM269.396 96.2315V78.8159H268.168V97.4755H290.255V96.2315H269.396Z" fill="#F9FAFB"/>
<path d="M248.641 91.2556L242.236 80.8311L235.83 91.2556H248.641ZM249.402 92.4996H235.07L232.014 97.4755H230.579L242.236 78.5049L253.893 97.4755H252.457L249.402 92.4996Z" fill="#F9FAFB"/>
<path fill-rule="evenodd" clip-rule="evenodd" d="M252.457 97.4755H253.893L242.236 78.5049L230.579 97.4755H232.014L235.07 92.4996H249.402L252.457 97.4755ZM248.98 93.1736L252.035 98.1495H255.143L242.236 77.1444L229.328 98.1495H232.436L235.492 93.1736H248.98ZM242.236 80.8311L235.83 91.2556H248.641L242.236 80.8311ZM242.236 82.1917L237.081 90.5816H247.391L242.236 82.1917Z" fill="#F9FAFB"/>
<path d="M215.076 97.4755H213.849V78.8159H215.076V97.4755Z" fill="#F9FAFB"/>
<path fill-rule="evenodd" clip-rule="evenodd" d="M215.802 98.1495H213.122V78.1418H215.802V98.1495ZM215.076 97.4755V78.8159H213.849V97.4755H215.076Z" fill="#F9FAFB"/>
<path d="M194.345 96.2315C196.799 96.2315 198.026 94.9876 198.026 92.4996H199.254C199.254 95.8169 197.617 97.4755 194.345 97.4755H182.075C178.803 97.4755 177.167 95.8169 177.167 92.4996V83.7918C177.167 80.4745 178.803 78.8159 182.075 78.8159H194.345C197.617 78.8159 199.254 80.4745 199.254 83.7918H198.026C198.026 81.3038 196.799 80.0599 194.345 80.0599H182.075C179.621 80.0599 178.394 81.3038 178.394 83.7918V92.4996C178.394 94.9876 179.621 96.2315 182.075 96.2315H194.345Z" fill="#F9FAFB"/>
<path fill-rule="evenodd" clip-rule="evenodd" d="M197.3 91.8255H199.98V92.4996C199.98 94.2481 199.55 95.6853 198.562 96.6867C197.563 97.6994 196.111 98.1496 194.345 98.1496H182.075C180.31 98.1496 178.857 97.6994 177.858 96.6867C176.87 95.6853 176.44 94.2481 176.44 92.4996V83.7918C176.44 82.0433 176.87 80.6061 177.858 79.6047C178.857 78.592 180.31 78.1418 182.075 78.1418H194.345C196.111 78.1418 197.563 78.592 198.562 79.6047C199.55 80.6061 199.98 82.0433 199.98 83.7918V84.4659H197.3V83.7918C197.3 82.6377 197.014 81.8979 196.571 81.448C196.138 81.0094 195.443 80.7339 194.345 80.7339H182.075C180.977 80.7339 180.282 81.0094 179.85 81.448C179.406 81.8979 179.12 82.6377 179.12 83.7918V92.4996C179.12 93.6537 179.406 94.3935 179.85 94.8434C180.282 95.282 180.977 95.5575 182.075 95.5575H194.345C195.443 95.5575 196.138 95.282 196.571 94.8434C197.014 94.3935 197.3 93.6537 197.3 92.4996V91.8255ZM199.229 93.1737C199.016 96.0416 197.388 97.4755 194.345 97.4755H182.075C178.803 97.4755 177.167 95.8169 177.167 92.4996V83.7918C177.167 80.4745 178.803 78.8159 182.075 78.8159H194.345C197.388 78.8159 199.016 80.2498 199.229 83.1177C199.245 83.3342 199.254 83.5589 199.254 83.7918H198.026C198.026 81.3038 196.799 80.0599 194.345 80.0599H182.075C179.621 80.0599 178.394 81.3038 178.394 83.7918V92.4996C178.394 94.9876 179.621 96.2315 182.075 96.2315H194.345C196.799 96.2315 198.026 94.9876 198.026 92.4996H199.254C199.254 92.7325 199.245 92.9572 199.229 93.1737Z" fill="#F9FAFB"/>
<path d="M140.534 80.8685V97.4755H139.307V78.2685L160.167 95.4229V78.8159H161.394V98.0229L140.534 80.8685Z" fill="#F9FAFB"/>
<path fill-rule="evenodd" clip-rule="evenodd" d="M160.167 95.4229V78.8159H161.394V98.0229L140.534 80.8685V97.4755H139.307V78.2685L160.167 95.4229ZM141.26 82.3662V98.1496H138.581V76.7708L159.44 93.9252V78.1418H162.12V99.5206L141.26 82.3662Z" fill="#F9FAFB"/>
<path d="M119.779 91.2556L113.374 80.8311L106.969 91.2556H119.779ZM120.54 92.4996H106.208L103.153 97.4755H101.717L113.374 78.5049L125.031 97.4755H123.595L120.54 92.4996Z" fill="#F9FAFB"/>
<path fill-rule="evenodd" clip-rule="evenodd" d="M123.595 97.4755H125.031L113.374 78.5049L101.717 97.4755H103.153L106.208 92.4996H120.54L123.595 97.4755ZM120.118 93.1736L123.173 98.1495H126.281L113.374 77.1444L100.467 98.1495H103.575L106.63 93.1736H120.118ZM113.374 80.8311L106.969 91.2556H119.779L113.374 80.8311ZM113.374 82.1917L108.219 90.5816H118.529L113.374 82.1917Z" fill="#F9FAFB"/>
<path d="M66.5321 80.8685V97.4755H65.305V78.2685L86.1648 95.4229V78.8159H87.3919V98.0229L66.5321 80.8685Z" fill="#F9FAFB"/>
<path fill-rule="evenodd" clip-rule="evenodd" d="M86.1648 95.4229V78.8159H87.3919V98.0229L66.5321 80.8685V97.4755H65.305V78.2685L86.1648 95.4229ZM67.2583 82.3662V98.1496H64.5789V76.7708L85.4387 93.9252V78.1418H88.1181V99.5206L67.2583 82.3662Z" fill="#F9FAFB"/>
<path d="M49.5321 97.4755H48.305V78.8159H49.5321V97.4755Z" fill="#F9FAFB"/>
<path fill-rule="evenodd" clip-rule="evenodd" d="M50.2583 98.1496H47.5788V78.1418H50.2583V98.1496ZM49.5321 97.4755V78.8159H48.305V97.4755H49.5321Z" fill="#F9FAFB"/>
<path d="M33.71 78.8159V80.0599H12.8502V87.5237H32.483V88.7677H12.8502V97.4755H11.6232V78.8159H33.71Z" fill="#F9FAFB"/>
<path fill-rule="evenodd" clip-rule="evenodd" d="M34.4362 78.1418V80.7339H13.5764V86.8496H33.2092V89.4417H13.5764V98.1496H10.897V78.1418H34.4362ZM12.8502 88.7677H32.483V87.5237H12.8502V80.0599H33.71V78.8159H11.6232V97.4755H12.8502V88.7677Z" fill="#F9FAFB"/>
<path d="M269.396 96.2315H264.396V101.232H269.396V96.2315ZM290.255 96.2315H295.255V91.2315H290.255V96.2315ZM290.255 97.4755V102.475H295.255V97.4755H290.255ZM268.168 97.4755H263.168V102.475H268.168V97.4755ZM268.168 78.8159V73.8159H263.168V78.8159H268.168ZM269.396 78.8159H274.396V73.8159H269.396V78.8159ZM248.641 91.2556V96.2556H257.581L252.901 88.6381L248.641 91.2556ZM242.236 80.8311L246.496 78.2136L242.236 71.2802L237.975 78.2136L242.236 80.8311ZM235.83 91.2556L231.57 88.6381L226.89 96.2556H235.83V91.2556ZM249.402 92.4996L253.662 89.8833L252.199 87.4996H249.402V92.4996ZM235.07 92.4996V87.4996H232.272L230.809 89.8833L235.07 92.4996ZM232.014 97.4755V102.475H234.811L236.275 100.092L232.014 97.4755ZM230.579 97.4755L226.319 94.8578L221.638 102.475H230.579V97.4755ZM242.236 78.5049L246.496 75.8872L242.236 68.9544L237.976 75.8872L242.236 78.5049ZM253.893 97.4755V102.475H262.833L258.153 94.8578L253.893 97.4755ZM252.457 97.4755L248.196 100.092L249.66 102.475H252.457V97.4755ZM215.076 97.4755V102.475H220.076V97.4755H215.076ZM213.849 97.4755H208.849V102.475H213.849V97.4755ZM213.849 78.8159V73.8159H208.849V78.8159H213.849ZM215.076 78.8159H220.076V73.8159H215.076V78.8159ZM198.026 92.4996V87.4996H193.026V92.4996H198.026ZM198.026 83.7918H193.026V88.7918H198.026V83.7918ZM140.534 80.8685L143.71 77.0066L135.534 70.2831V80.8685H140.534ZM140.534 97.4755V102.476H145.534V97.4755H140.534ZM139.307 97.4755H134.307V102.476H139.307V97.4755ZM139.307 78.2685L142.483 74.4067L134.307 67.6831V78.2685H139.307ZM160.167 95.4229L156.991 99.2848L165.167 106.008V95.4229H160.167ZM160.167 78.8159V73.8159H155.167V78.8159H160.167ZM161.394 78.8159H166.394V73.8159H161.394V78.8159ZM161.394 98.0229L158.218 101.885L166.394 108.608V98.0229H161.394ZM119.779 91.2556V96.2556H128.72L124.039 88.6381L119.779 91.2556ZM113.374 80.8311L117.634 78.2136L113.374 71.2802L109.114 78.2136L113.374 80.8311ZM106.969 91.2556L102.709 88.6381L98.0281 96.2556H106.969V91.2556ZM120.54 92.4996L124.801 89.8833L123.337 87.4996H120.54V92.4996ZM106.208 92.4996V87.4996H103.411L101.947 89.8833L106.208 92.4996ZM103.153 97.4755V102.475H105.95L107.413 100.092L103.153 97.4755ZM101.717 97.4755L97.4569 94.8578L92.7761 102.475H101.717V97.4755ZM113.374 78.5049L117.634 75.8872L113.374 68.9544L109.114 75.8872L113.374 78.5049ZM125.031 97.4755V102.475H133.972L129.291 94.8578L125.031 97.4755ZM123.595 97.4755L119.334 100.092L120.798 102.475H123.595V97.4755ZM66.5321 80.8685L69.7079 77.0066L61.5321 70.2831V80.8685H66.5321ZM66.5321 97.4755V102.476H71.5321V97.4755H66.5321ZM65.305 97.4755H60.305V102.476H65.305V97.4755ZM65.305 78.2685L68.4809 74.4067L60.305 67.6832V78.2685H65.305ZM86.1648 95.4229L82.989 99.2848L91.1648 106.008V95.4229H86.1648ZM86.1648 78.8159V73.8159H81.1648V78.8159H86.1648ZM87.3919 78.8159H92.3919V73.8159H87.3919V78.8159ZM87.3919 98.0229L84.216 101.885L92.3919 108.608V98.0229H87.3919ZM49.5321 97.4755V102.475H54.5321V97.4755H49.5321ZM48.305 97.4755H43.305V102.475H48.305V97.4755ZM48.305 78.8159V73.8159H43.305V78.8159H48.305ZM49.5321 78.8159H54.5321V73.8159H49.5321V78.8159ZM33.71 78.8159H38.71V73.8159H33.71V78.8159ZM33.71 80.0599V85.0599H38.71V80.0599H33.71ZM12.8502 80.0599V75.0599H7.8502V80.0599H12.8502ZM12.8502 87.5237H7.8502V92.5237H12.8502V87.5237ZM32.483 87.5237H37.483V82.5237H32.483V87.5237ZM32.483 88.7677V93.7677H37.483V88.7677H32.483ZM12.8502 88.7677V83.7677H7.8502V88.7677H12.8502ZM12.8502 97.4755V102.475H17.8502V97.4755H12.8502ZM11.6232 97.4755H6.62315V102.475H11.6232V97.4755ZM11.6232 78.8159V73.8159H6.62315V78.8159H11.6232ZM269.396 101.232H290.255V91.2315H269.396V101.232ZM285.255 96.2315V97.4755H295.255V96.2315H285.255ZM290.255 92.4755H268.168V102.475H290.255V92.4755ZM273.168 97.4755V78.8159H263.168V97.4755H273.168ZM268.168 83.8159H269.396V73.8159H268.168V83.8159ZM264.396 78.8159V96.2315H274.396V78.8159H264.396ZM252.901 88.6381L246.496 78.2136L237.975 83.4487L244.381 93.8732L252.901 88.6381ZM237.975 78.2136L231.57 88.6381L240.09 93.8732L246.496 83.4487L237.975 78.2136ZM235.83 96.2556H248.641V86.2556H235.83V96.2556ZM249.402 87.4996H235.07V97.4996H249.402V87.4996ZM230.809 89.8833L227.753 94.8592L236.275 100.092L239.33 95.1159L230.809 89.8833ZM232.014 92.4755H230.579V102.475H232.014V92.4755ZM234.839 100.093L246.496 81.1226L237.976 75.8872L226.319 94.8578L234.839 100.093ZM237.976 81.1226L249.632 100.093L258.153 94.8578L246.496 75.8872L237.976 81.1226ZM253.893 92.4755H252.457V102.475H253.893V92.4755ZM256.718 94.8592L253.662 89.8833L245.141 95.1159L248.196 100.092L256.718 94.8592ZM215.076 92.4755H213.849V102.475H215.076V92.4755ZM218.849 97.4755V78.8159H208.849V97.4755H218.849ZM213.849 83.8159H215.076V73.8159H213.849V83.8159ZM210.076 78.8159V97.4755H220.076V78.8159H210.076ZM194.345 101.232C196.361 101.232 198.787 100.715 200.666 98.8098C202.533 96.9172 203.026 94.4972 203.026 92.4996H193.026C193.026 92.99 192.907 92.436 193.547 91.7873C194.199 91.126 194.784 91.2315 194.345 91.2315V101.232ZM198.026 97.4996H199.254V87.4996H198.026V97.4996ZM194.345 92.4755H182.075V102.475H194.345V92.4755ZM182.075 92.4755C181.875 92.4755 181.733 92.4627 181.641 92.4494C181.549 92.4361 181.516 92.4236 181.528 92.4277C181.542 92.4322 181.599 92.4533 181.682 92.504C181.724 92.529 181.769 92.5598 181.816 92.5968C181.863 92.6339 181.909 92.6752 181.953 92.7203C181.998 92.7653 182.038 92.8116 182.073 92.8576C182.108 92.9035 182.137 92.9467 182.16 92.9852C182.206 93.0628 182.222 93.1118 182.223 93.1148C182.224 93.1163 182.209 93.0717 182.194 92.9682C182.18 92.8642 182.167 92.7107 182.167 92.4996H172.167C172.167 94.9119 172.763 97.6428 174.834 99.7428C176.918 101.855 179.651 102.475 182.075 102.475V92.4755ZM182.167 92.4996V83.7918H172.167V92.4996H182.167ZM182.167 83.7918C182.167 83.5807 182.18 83.4272 182.194 83.3232C182.209 83.2197 182.224 83.1751 182.223 83.1766C182.222 83.1795 182.206 83.2286 182.16 83.3062C182.137 83.3446 182.108 83.3878 182.073 83.4338C182.038 83.4798 181.998 83.526 181.953 83.5711C181.909 83.6162 181.863 83.6575 181.816 83.6946C181.769 83.7316 181.724 83.7624 181.682 83.7874C181.599 83.8381 181.542 83.8591 181.528 83.8637C181.516 83.8678 181.549 83.8553 181.641 83.842C181.733 83.8287 181.875 83.8159 182.075 83.8159V73.8159C179.651 73.8159 176.918 74.4361 174.834 76.5486C172.763 78.6486 172.167 81.3795 172.167 83.7918H182.167ZM182.075 83.8159H194.345V73.8159H182.075V83.8159ZM199.254 78.7918H198.026V88.7918H199.254V78.7918ZM203.026 83.7918C203.026 81.7942 202.533 79.3742 200.666 77.4816C198.787 75.5764 196.361 75.0599 194.345 75.0599V85.0599C194.784 85.0599 194.199 85.1654 193.547 84.5041C192.907 83.8554 193.026 83.3014 193.026 83.7918H203.026ZM194.345 75.0599H182.075V85.0599H194.345V75.0599ZM182.075 75.0599C180.06 75.0599 177.634 75.5764 175.754 77.4816C173.887 79.3742 173.394 81.7942 173.394 83.7918H183.394C183.394 83.3014 183.513 83.8554 182.874 84.5041C182.221 85.1654 181.636 85.0599 182.075 85.0599V75.0599ZM173.394 83.7918V92.4996H183.394V83.7918H173.394ZM173.394 92.4996C173.394 94.4972 173.887 96.9172 175.754 98.8098C177.634 100.715 180.06 101.232 182.075 101.232V91.2315C181.636 91.2315 182.221 91.126 182.874 91.7873C183.513 92.436 183.394 92.99 183.394 92.4996H173.394ZM182.075 101.232H194.345V91.2315H182.075V101.232ZM135.534 80.8685V97.4755H145.534V80.8685H135.534ZM140.534 92.4755H139.307V102.476H140.534V92.4755ZM144.307 97.4755V78.2685H134.307V97.4755H144.307ZM136.131 82.1304L156.991 99.2848L163.342 91.5611L142.483 74.4067L136.131 82.1304ZM165.167 95.4229V78.8159H155.167V95.4229H165.167ZM160.167 83.8159H161.394V73.8159H160.167V83.8159ZM156.394 78.8159V98.0229H166.394V78.8159H156.394ZM164.57 94.161L143.71 77.0066L137.358 84.7303L158.218 101.885L164.57 94.161ZM124.039 88.6381L117.634 78.2136L109.114 83.4487L115.519 93.8732L124.039 88.6381ZM109.114 78.2136L102.709 88.6381L111.229 93.8732L117.634 83.4487L109.114 78.2136ZM106.969 96.2556H119.779V86.2556H106.969V96.2556ZM120.54 87.4996H106.208V97.4996H120.54V87.4996ZM101.947 89.8833L98.8917 94.8592L107.413 100.092L110.469 95.1159L101.947 89.8833ZM103.153 92.4755H101.717V102.475H103.153V92.4755ZM105.977 100.093L117.634 81.1226L109.114 75.8872L97.4569 94.8578L105.977 100.093ZM109.114 81.1226L120.771 100.093L129.291 94.8578L117.634 75.8872L109.114 81.1226ZM125.031 92.4755H123.595V102.475H125.031V92.4755ZM127.856 94.8592L124.801 89.8833L116.279 95.1159L119.334 100.092L127.856 94.8592ZM61.5321 80.8685V97.4755H71.5321V80.8685H61.5321ZM66.5321 92.4755H65.305V102.476H66.5321V92.4755ZM70.305 97.4755V78.2685H60.305V97.4755H70.305ZM62.1292 82.1304L82.989 99.2848L89.3407 91.5611L68.4809 74.4067L62.1292 82.1304ZM91.1648 95.4229V78.8159H81.1648V95.4229H91.1648ZM86.1648 83.8159H87.3919V73.8159H86.1648V83.8159ZM82.3919 78.8159V98.0229H92.3919V78.8159H82.3919ZM90.5678 94.161L69.7079 77.0066L63.3562 84.7303L84.216 101.885L90.5678 94.161ZM49.5321 92.4755H48.305V102.475H49.5321V92.4755ZM53.305 97.4755V78.8159H43.305V97.4755H53.305ZM48.305 83.8159H49.5321V73.8159H48.305V83.8159ZM44.5321 78.8159V97.4755H54.5321V78.8159H44.5321ZM28.71 78.8159V80.0599H38.71V78.8159H28.71ZM33.71 75.0599H12.8502V85.0599H33.71V75.0599ZM7.8502 80.0599V87.5237H17.8502V80.0599H7.8502ZM12.8502 92.5237H32.483V82.5237H12.8502V92.5237ZM27.483 87.5237V88.7677H37.483V87.5237H27.483ZM32.483 83.7677H12.8502V93.7677H32.483V83.7677ZM7.8502 88.7677V97.4755H17.8502V88.7677H7.8502ZM12.8502 92.4755H11.6232V102.475H12.8502V92.4755ZM16.6232 97.4755V78.8159H6.62315V97.4755H16.6232ZM11.6232 83.8159H33.71V73.8159H11.6232V83.8159ZM47.0257 70.8057V60.8057H37.0258V70.8057H47.0257ZM216.695 70.8057H226.695V60.8057H216.695V70.8057ZM216.695 105.486V115.486H226.695V105.486H216.695ZM47.0257 105.486H37.0258V115.486H47.0257V105.486ZM290.982 95.5575H300.982V85.5575H290.982V95.5575ZM290.982 98.1496V108.15H300.982V98.1496H290.982ZM267.442 98.1496H257.442V108.15H267.442V98.1496ZM267.442 78.1418V68.1418H257.442V78.1418H267.442ZM270.122 78.1418H280.122V68.1418H270.122V78.1418ZM270.122 95.5575H260.122V105.557H270.122V95.5575ZM248.98 93.1736L257.501 87.941L254.574 83.1736H248.98V93.1736ZM252.035 98.1495L243.513 103.382L246.441 108.15H252.035V98.1495ZM255.143 98.1495V108.15H273.024L263.663 92.9142L255.143 98.1495ZM242.236 77.1444L250.756 71.909L242.236 58.0435L233.716 71.909L242.236 77.1444ZM229.328 98.1495L220.808 92.9142L211.447 108.15H229.328V98.1495ZM232.436 98.1495V108.15H238.031L240.958 103.382L232.436 98.1495ZM235.492 93.1736V83.1736H229.897L226.97 87.941L235.492 93.1736ZM237.081 90.5816L228.56 85.3464L219.199 100.582H237.081V90.5816ZM242.236 82.1917L250.756 76.9566L242.236 63.0899L233.715 76.9566L242.236 82.1917ZM247.391 90.5816V100.582H265.272L255.911 85.3464L247.391 90.5816ZM215.802 98.1495V108.15H225.802V98.1495H215.802ZM213.122 98.1495H203.122V108.15H213.122V98.1495ZM213.122 78.1418V68.1418H203.122V78.1418H213.122ZM215.802 78.1418H225.802V68.1418H215.802V78.1418ZM197.3 91.8255V81.8255H187.3V91.8255H197.3ZM199.98 91.8255H209.98V81.8255H199.98V91.8255ZM198.562 96.6867L191.443 89.6642L198.562 96.6867ZM177.858 96.6867L184.977 89.6642L177.858 96.6867ZM177.858 79.6047L170.739 72.5822L177.858 79.6047ZM198.562 79.6047L191.443 86.6271L198.562 79.6047ZM199.98 84.4659V94.4659H209.98V84.4659H199.98ZM197.3 84.4659H187.3V94.4659H197.3V84.4659ZM196.571 81.448L203.69 74.4256L203.69 74.4256L196.571 81.448ZM179.85 81.448L172.73 74.4256L179.85 81.448ZM179.85 94.8434L172.73 101.866L179.85 94.8434ZM196.571 94.8434L203.69 101.866L203.69 101.866L196.571 94.8434ZM199.229 93.1737L189.257 92.431V92.431L199.229 93.1737ZM199.229 83.1177L189.257 83.8604V83.8604L199.229 83.1177ZM141.26 82.3662L147.612 74.6425L131.26 61.1954V82.3662H141.26ZM141.26 98.1496V108.15H151.26V98.1496H141.26ZM138.581 98.1496H128.581V108.15H138.581V98.1496ZM138.581 76.7708L144.932 69.0471L128.581 55.6V76.7708H138.581ZM159.44 93.9252L153.089 101.649L169.44 115.096V93.9252H159.44ZM159.44 78.1418V68.1418H149.44V78.1418H159.44ZM162.12 78.1418H172.12V68.1418H162.12V78.1418ZM162.12 99.5206L155.768 107.244L172.12 120.691V99.5206H162.12ZM120.118 93.1736L128.64 87.941L125.712 83.1736H120.118V93.1736ZM123.173 98.1495L114.652 103.382L117.579 108.15H123.173V98.1495ZM126.281 98.1495V108.15H144.163L134.801 92.9142L126.281 98.1495ZM113.374 77.1444L121.894 71.909L113.374 58.0435L104.854 71.909L113.374 77.1444ZM100.467 98.1495L91.9467 92.9142L82.585 108.15H100.467V98.1495ZM103.575 98.1495V108.15H109.169L112.096 103.382L103.575 98.1495ZM106.63 93.1736V83.1736H101.036L98.1082 87.941L106.63 93.1736ZM108.219 90.5816L99.6987 85.3464L90.3377 100.582H108.219V90.5816ZM113.374 82.1917L121.894 76.9566L113.374 63.0899L104.854 76.9566L113.374 82.1917ZM118.529 90.5816V100.582H136.41L127.049 85.3464L118.529 90.5816ZM67.2583 82.3662L73.61 74.6425L57.2583 61.1954V82.3662H67.2583ZM67.2583 98.1496V108.15H77.2583V98.1496H67.2583ZM64.5789 98.1496H54.5789V108.15H64.5789V98.1496ZM64.5789 76.7708L70.9306 69.0471L54.5789 55.6V76.7708H64.5789ZM85.4387 93.9252L79.087 101.649L95.4387 115.096V93.9252H85.4387ZM85.4387 78.1418V68.1418H75.4387V78.1418H85.4387ZM88.1181 78.1418H98.1181V68.1418H88.1181V78.1418ZM88.1181 99.5206L81.7664 107.244L98.1181 120.691V99.5206H88.1181ZM50.2583 98.1496V108.15H60.2583V98.1496H50.2583ZM47.5788 98.1496H37.5788V108.15H47.5788V98.1496ZM47.5788 78.1418V68.1418H37.5788V78.1418H47.5788ZM50.2583 78.1418H60.2583V68.1418H50.2583V78.1418ZM34.4362 78.1418H44.4362V68.1418H34.4362V78.1418ZM34.4362 80.7339V90.7339H44.4362V80.7339H34.4362ZM13.5764 80.7339V70.7339H3.57638V80.7339H13.5764ZM13.5764 86.8496H3.57638V96.8496H13.5764V86.8496ZM33.2092 86.8496H43.2092V76.8496H33.2092V86.8496ZM33.2092 89.4417V99.4417H43.2092V89.4417H33.2092ZM13.5764 89.4417V79.4417H3.57638V89.4417H13.5764ZM13.5764 98.1496V108.15H23.5764V98.1496H13.5764ZM10.897 98.1496H0.896973V108.15H10.897V98.1496ZM10.897 78.1418V68.1418H0.896973V78.1418H10.897ZM204.88 88.1457C204.88 123.812 173.047 154.214 131.86 154.214V174.214C182.418 174.214 224.88 136.462 224.88 88.1457H204.88ZM131.86 22.0777C173.047 22.0777 204.88 52.4793 204.88 88.1457H224.88C224.88 39.8299 182.418 2.07773 131.86 2.07773V22.0777ZM58.8412 88.1457C58.8412 52.4793 90.6737 22.0777 131.86 22.0777V2.07773C81.3031 2.07773 38.8412 39.8299 38.8412 88.1457H58.8412ZM131.86 154.214C90.6737 154.214 58.8412 123.812 58.8412 88.1457H38.8412C38.8412 136.462 81.3031 174.214 131.86 174.214V154.214ZM206.695 88.1457C206.695 124.762 174.029 155.899 131.86 155.899V175.899C183.398 175.899 226.695 137.413 226.695 88.1457H206.695ZM131.86 20.3926C174.029 20.3926 206.695 51.5293 206.695 88.1457H226.695C226.695 38.8783 183.398 0.392578 131.86 0.392578V20.3926ZM57.0257 88.1457C57.0257 51.5293 89.692 20.3926 131.86 20.3926V0.392578C80.3231 0.392578 37.0258 38.8783 37.0258 88.1457H57.0257ZM131.86 155.899C89.692 155.899 57.0257 124.762 57.0257 88.1457H37.0258C37.0258 137.413 80.3231 175.899 131.86 175.899V155.899ZM47.0257 80.8057H216.695V60.8057H47.0257V80.8057ZM206.695 70.8057V105.486H226.695V70.8057H206.695ZM216.695 95.4856H47.0257V115.486H216.695V95.4856ZM57.0257 105.486V70.8057H37.0258V105.486H57.0257ZM300.982 98.1496V95.5575H280.982V98.1496H300.982ZM267.442 108.15H290.982V88.1496H267.442V108.15ZM257.442 78.1418V98.1496H277.442V78.1418H257.442ZM270.122 68.1418H267.442V88.1418H270.122V68.1418ZM280.122 95.5575V78.1418H260.122V95.5575H280.122ZM290.982 85.5575H270.122V105.557H290.982V85.5575ZM235.492 103.174H248.98V83.1736H235.492V103.174ZM245.601 95.8167L250.756 87.4268L233.715 76.9566L228.56 85.3464L245.601 95.8167ZM247.391 80.5816H237.081V100.582H247.391V80.5816ZM233.715 87.4268L238.87 95.8167L255.911 85.3464L250.756 76.9566L233.715 87.4268ZM240.458 98.4062L243.513 103.382L260.557 92.9169L257.501 87.941L240.458 98.4062ZM252.035 108.15H255.143V88.1495H252.035V108.15ZM263.663 92.9142L250.756 71.909L233.716 82.3797L246.623 103.385L263.663 92.9142ZM233.716 71.909L220.808 92.9142L237.848 103.385L250.756 82.3797L233.716 71.909ZM229.328 108.15H232.436V88.1495H229.328V108.15ZM240.958 103.382L244.013 98.4062L226.97 87.941L223.914 92.9169L240.958 103.382ZM213.122 108.15H215.802V88.1495H213.122V108.15ZM203.122 78.1418V98.1495H223.122V78.1418H203.122ZM215.802 68.1418H213.122V88.1418H215.802V68.1418ZM225.802 98.1495V78.1418H205.802V98.1495H225.802ZM189.254 92.4996C189.254 92.651 189.218 90.921 190.907 89.209C191.713 88.3924 192.593 87.9268 193.291 87.6908C193.622 87.5791 193.888 87.5263 194.062 87.501C194.236 87.4759 194.336 87.4755 194.345 87.4755V107.475C197.558 107.475 201.796 106.65 205.146 103.254C208.471 99.8834 209.254 95.6655 209.254 92.4996H189.254ZM194.345 88.8159C194.336 88.8159 194.236 88.8155 194.062 88.7904C193.888 88.7651 193.622 88.7123 193.291 88.6006C192.593 88.3646 191.713 87.899 190.907 87.0823C189.218 85.3704 189.254 83.6404 189.254 83.7918H209.254C209.254 80.6259 208.471 76.408 205.146 73.0374C201.796 69.6416 197.558 68.8159 194.345 68.8159V88.8159ZM209.98 92.4996V91.8255H189.98V92.4996H209.98ZM205.681 103.709C209.178 100.164 209.98 95.7506 209.98 92.4996H189.98C189.98 92.7457 189.921 91.2065 191.443 89.6642L205.681 103.709ZM194.345 108.15C197.679 108.15 202.147 107.292 205.681 103.709L191.443 89.6642C192.979 88.1066 194.542 88.1496 194.345 88.1496V108.15ZM182.075 108.15H194.345V88.1496H182.075V108.15ZM170.739 103.709C174.273 107.292 178.741 108.15 182.075 108.15V88.1496C181.878 88.1496 183.441 88.1066 184.977 89.6642L170.739 103.709ZM166.44 92.4996C166.44 95.7505 167.242 100.164 170.739 103.709L184.977 89.6642C186.499 91.2065 186.44 92.7458 186.44 92.4996H166.44ZM166.44 83.7918V92.4996H186.44V83.7918H166.44ZM170.739 72.5822C167.242 76.1274 166.44 80.5409 166.44 83.7918H186.44C186.44 83.5456 186.499 85.0848 184.977 86.6271L170.739 72.5822ZM182.075 68.1418C178.741 68.1418 174.273 68.9991 170.739 72.5822L184.977 86.6271C183.441 88.1848 181.878 88.1418 182.075 88.1418V68.1418ZM194.345 68.1418H182.075V88.1418H194.345V68.1418ZM205.681 72.5822C202.147 68.9991 197.679 68.1418 194.345 68.1418V88.1418C194.542 88.1418 192.979 88.1848 191.443 86.6271L205.681 72.5822ZM209.98 83.7918C209.98 80.5409 209.178 76.1273 205.681 72.5822L191.443 86.6271C189.921 85.0849 189.98 83.5457 189.98 83.7918H209.98ZM209.98 84.4659V83.7918H189.98V84.4659H209.98ZM187.3 83.7918V84.4659H207.3V83.7918H187.3ZM189.451 88.4705C187.393 86.3834 187.3 84.1536 187.3 83.7918H207.3C207.3 81.1219 206.636 77.4124 203.69 74.4256L189.451 88.4705ZM194.345 90.7339C193.852 90.7339 191.543 90.591 189.451 88.4705L203.69 74.4256C200.733 71.4278 197.034 70.7339 194.345 70.7339V90.7339ZM182.075 90.7339H194.345V70.7339H182.075V90.7339ZM186.969 88.4705C184.877 90.591 182.568 90.7339 182.075 90.7339V70.7339C179.386 70.7339 175.687 71.4278 172.73 74.4256L186.969 88.4705ZM189.12 83.7918C189.12 84.1536 189.028 86.3834 186.969 88.4705L172.73 74.4256C169.784 77.4124 169.12 81.1219 169.12 83.7918H189.12ZM189.12 92.4996V83.7918H169.12V92.4996H189.12ZM186.969 87.8209C189.028 89.908 189.12 92.1378 189.12 92.4996H169.12C169.12 95.1696 169.784 98.879 172.73 101.866L186.969 87.8209ZM182.075 85.5575C182.568 85.5575 184.877 85.7004 186.969 87.8209L172.73 101.866C175.687 104.864 179.386 105.557 182.075 105.557V85.5575ZM194.345 85.5575H182.075V105.557H194.345V85.5575ZM189.451 87.8209C191.543 85.7004 193.852 85.5575 194.345 85.5575V105.557C197.034 105.557 200.733 104.864 203.69 101.866L189.451 87.8209ZM187.3 92.4996C187.3 92.1378 187.393 89.908 189.451 87.8209L203.69 101.866C206.636 98.879 207.3 95.1696 207.3 92.4996H187.3ZM187.3 91.8255V92.4996H207.3V91.8255H187.3ZM189.257 92.431C189.279 92.1339 189.518 90.4111 191.239 88.8959C192.023 88.2046 192.825 87.8318 193.427 87.647C193.994 87.473 194.344 87.4755 194.345 87.4755V107.475C197.325 107.475 201.199 106.775 204.458 103.904C207.806 100.955 208.966 97.0813 209.202 93.9163L189.257 92.431ZM194.345 88.8159C194.344 88.8159 193.994 88.8184 193.427 88.6443C192.825 88.4596 192.023 88.0868 191.238 87.3955C189.518 85.8802 189.279 84.1575 189.257 83.8604L209.202 82.3751C208.966 79.2101 207.806 75.3364 204.458 72.3872C201.199 69.5169 197.325 68.8159 194.345 68.8159V88.8159ZM189.257 83.8604C189.253 83.8128 189.254 83.7891 189.254 83.7918H209.254C209.254 83.3287 209.238 82.8557 209.202 82.3751L189.257 83.8604ZM189.254 92.4996C189.254 92.5023 189.253 92.4786 189.257 92.431L209.202 93.9163C209.238 93.4357 209.254 92.9627 209.254 92.4996H189.254ZM199.98 81.8255H197.3V101.826H199.98V81.8255ZM197.3 94.4659H199.98V74.4659H197.3V94.4659ZM151.26 98.1496V82.3662H131.26V98.1496H151.26ZM138.581 108.15H141.26V88.1496H138.581V108.15ZM128.581 76.7708V98.1496H148.581V76.7708H128.581ZM165.792 86.2015L144.932 69.0471L132.229 84.4945L153.089 101.649L165.792 86.2015ZM149.44 78.1418V93.9252H169.44V78.1418H149.44ZM162.12 68.1418H159.44V88.1418H162.12V68.1418ZM172.12 99.5206V78.1418H152.12V99.5206H172.12ZM134.908 90.0899L155.768 107.244L168.472 91.7969L147.612 74.6425L134.908 90.0899ZM106.63 103.174H120.118V83.1736H106.63V103.174ZM116.739 95.8167L121.894 87.4268L104.854 76.9566L99.6987 85.3464L116.739 95.8167ZM118.529 80.5816H108.219V100.582H118.529V80.5816ZM104.854 87.4268L110.009 95.8167L127.049 85.3464L121.894 76.9566L104.854 87.4268ZM111.596 98.4062L114.652 103.382L131.695 92.9169L128.64 87.941L111.596 98.4062ZM123.173 108.15H126.281V88.1495H123.173V108.15ZM134.801 92.9142L121.894 71.909L104.854 82.3797L117.761 103.385L134.801 92.9142ZM104.854 71.909L91.9467 92.9142L108.987 103.385L121.894 82.3797L104.854 71.909ZM100.467 108.15H103.575V88.1495H100.467V108.15ZM112.096 103.382L115.152 98.4062L98.1082 87.941L95.0528 92.9169L112.096 103.382ZM77.2583 98.1496V82.3662H57.2583V98.1496H77.2583ZM64.5789 108.15H67.2583V88.1496H64.5789V108.15ZM54.5789 76.7708V98.1496H74.5789V76.7708H54.5789ZM91.7904 86.2015L70.9306 69.0471L58.2271 84.4945L79.087 101.649L91.7904 86.2015ZM75.4387 78.1418V93.9252H95.4387V78.1418H75.4387ZM88.1181 68.1418H85.4387V88.1418H88.1181V68.1418ZM98.1181 99.5206V78.1418H78.1181V99.5206H98.1181ZM60.9065 90.0899L81.7664 107.244L94.4698 91.7969L73.61 74.6425L60.9065 90.0899ZM47.5788 108.15H50.2583V88.1496H47.5788V108.15ZM37.5788 78.1418V98.1496H57.5788V78.1418H37.5788ZM50.2583 68.1418H47.5788V88.1418H50.2583V68.1418ZM60.2583 98.1496V78.1418H40.2583V98.1496H60.2583ZM23.5764 86.8496V80.7339H3.57638V86.8496H23.5764ZM44.4362 80.7339V78.1418H24.4362V80.7339H44.4362ZM13.5764 90.7339H34.4362V70.7339H13.5764V90.7339ZM33.2092 76.8496H13.5764V96.8496H33.2092V76.8496ZM43.2092 89.4417V86.8496H23.2092V89.4417H43.2092ZM13.5764 99.4417H33.2092V79.4417H13.5764V99.4417ZM23.5764 98.1496V89.4417H3.57638V98.1496H23.5764ZM10.897 108.15H13.5764V88.1496H10.897V108.15ZM0.896973 78.1418V98.1496H20.897V78.1418H0.896973ZM34.4362 68.1418H10.897V88.1418H34.4362V68.1418Z" fill="black" mask="url(#path-1-outside-1_521_27)"/>
<mask id="path-3-outside-2_521_27" maskUnits="userSpaceOnUse" x="73.4553" y="117.518" width="116" height="25" fill="black">
<rect fill="white" x="73.4553" y="117.518" width="116" height="25"/>
<path d="M178.576 133.323C177.441 133.323 176.874 132.796 176.874 131.743H177.3C177.3 132.533 177.725 132.928 178.576 132.928H182.831C183.682 132.928 184.107 132.533 184.107 131.743C184.107 130.953 183.682 130.558 182.831 130.558H178.576C177.441 130.558 176.874 130.032 176.874 128.979C176.874 127.925 177.441 127.399 178.576 127.399H182.831C183.966 127.399 184.533 127.925 184.533 128.979H184.107C184.107 128.189 183.682 127.794 182.831 127.794H178.576C177.725 127.794 177.3 128.189 177.3 128.979C177.3 129.768 177.725 130.163 178.576 130.163H182.831C183.966 130.163 184.533 130.69 184.533 131.743C184.533 132.796 183.966 133.323 182.831 133.323H178.576Z"/>
<path d="M164.433 128.05V133.323H164.007V127.225L171.24 132.671V127.399H171.666V133.497L164.433 128.05Z"/>
<path d="M157.497 131.348L155.276 128.039L153.055 131.348H157.497ZM157.761 131.743H152.791L151.731 133.323H151.234L155.276 127.3L159.318 133.323H158.82L157.761 131.743Z"/>
<path d="M139.294 130.558V133.323H138.869V127.399H139.294V130.163H146.102V127.399H146.528V133.323H146.102V130.558H139.294Z"/>
<path d="M128.98 130.558V130.163H133.661V130.558H128.98Z"/>
<path d="M116.539 132.928H123.772V133.323H116.113V127.399H116.539V132.928Z"/>
<path d="M103.978 132.928H111.211V133.323H103.552V127.399H103.978V132.928Z"/>
<path d="M97.9189 131.743V127.399H98.3444V131.743C98.3444 132.796 97.777 133.323 96.6424 133.323H92.3874C91.2528 133.323 90.6854 132.796 90.6854 131.743V127.399H91.1109V131.743C91.1109 132.533 91.5364 132.928 92.3874 132.928H96.6424C97.4934 132.928 97.9189 132.533 97.9189 131.743Z"/>
<path d="M83.7754 132.928C84.6264 132.928 85.0519 132.533 85.0519 131.743C85.0519 130.953 84.6264 130.558 83.7754 130.558H78.2439V132.928H83.7754ZM85.0519 128.979C85.0519 128.189 84.6264 127.794 83.7754 127.794H78.2439V130.163H83.7754C84.6264 130.163 85.0519 129.768 85.0519 128.979ZM85.4774 131.743C85.4774 132.796 84.91 133.323 83.7754 133.323H77.8184V127.399H83.7754C84.91 127.399 85.4774 127.925 85.4774 128.979C85.4774 129.661 85.2405 130.121 84.7668 130.361C85.2405 130.601 85.4774 131.061 85.4774 131.743Z"/>
<path fill-rule="evenodd" clip-rule="evenodd" d="M176.511 131.406H177.663V131.743C177.663 132.086 177.755 132.282 177.875 132.394C177.996 132.506 178.207 132.591 178.576 132.591H182.831C183.201 132.591 183.411 132.506 183.532 132.394C183.652 132.282 183.744 132.086 183.744 131.743C183.744 131.4 183.652 131.205 183.532 131.093C183.411 130.981 183.201 130.895 182.831 130.895H178.576C177.953 130.895 177.419 130.751 177.043 130.402C176.667 130.053 176.511 129.557 176.511 128.979C176.511 128.4 176.667 127.904 177.043 127.555C177.419 127.207 177.953 127.062 178.576 127.062H182.831C183.454 127.062 183.988 127.207 184.364 127.555C184.74 127.904 184.896 128.4 184.896 128.979V129.316H183.744V128.979C183.744 128.636 183.652 128.44 183.532 128.328C183.411 128.216 183.201 128.131 182.831 128.131H178.576C178.207 128.131 177.996 128.216 177.875 128.328C177.755 128.44 177.663 128.636 177.663 128.979C177.663 129.322 177.755 129.517 177.875 129.629C177.996 129.741 178.207 129.826 178.576 129.826H182.831C183.454 129.826 183.988 129.971 184.364 130.32C184.74 130.669 184.896 131.165 184.896 131.743C184.896 132.322 184.74 132.818 184.364 133.166C183.988 133.515 183.454 133.66 182.831 133.66H178.576C177.953 133.66 177.419 133.515 177.043 133.166C176.667 132.818 176.511 132.322 176.511 131.743V131.406ZM176.896 132.08C177.01 132.909 177.57 133.323 178.576 133.323H182.831C183.966 133.323 184.533 132.796 184.533 131.743C184.533 130.69 183.966 130.163 182.831 130.163H178.576C177.725 130.163 177.3 129.768 177.3 128.979C177.3 128.189 177.725 127.794 178.576 127.794H182.831C183.682 127.794 184.107 128.189 184.107 128.979H184.533C184.533 128.859 184.526 128.747 184.511 128.642C184.397 127.813 183.837 127.399 182.831 127.399H178.576C177.441 127.399 176.874 127.925 176.874 128.979C176.874 130.032 177.441 130.558 178.576 130.558H182.831C183.682 130.558 184.107 130.953 184.107 131.743C184.107 132.533 183.682 132.928 182.831 132.928H178.576C177.725 132.928 177.3 132.533 177.3 131.743H176.874C176.874 131.862 176.881 131.975 176.896 132.08Z"/>
<path fill-rule="evenodd" clip-rule="evenodd" d="M171.24 132.671V127.399H171.666V133.497L164.433 128.05V133.323H164.007V127.225L171.24 132.671ZM164.796 128.758V133.66H163.644V126.518L170.877 131.964V127.062H172.029V134.204L164.796 128.758Z"/>
<path fill-rule="evenodd" clip-rule="evenodd" d="M158.82 133.323L157.761 131.743H152.791L151.731 133.323H151.234L155.276 127.3L159.318 133.323H158.82ZM153.055 131.348L155.276 128.039L157.497 131.348H153.055ZM153.709 131.011H156.843L155.276 128.676L153.709 131.011ZM152.993 132.08L151.933 133.66H150.58L155.276 126.663L159.972 133.66H158.619L157.559 132.08H152.993Z"/>
<path fill-rule="evenodd" clip-rule="evenodd" d="M139.657 133.66H138.506V127.062H139.657V129.826H145.739V127.062H146.891V133.66H145.739V130.895H139.657V133.66ZM139.294 130.558H146.102V133.323H146.528V127.399H146.102V130.163H139.294V127.399H138.869V133.323H139.294V130.558Z"/>
<path fill-rule="evenodd" clip-rule="evenodd" d="M128.98 130.163V130.558H133.661V130.163H128.98ZM128.617 130.895V129.826H134.024V130.895H128.617Z"/>
<path fill-rule="evenodd" clip-rule="evenodd" d="M124.135 132.591V133.66H115.75V127.062H116.902V132.591H124.135ZM116.539 132.928V127.399H116.113V133.323H123.772V132.928H116.539Z"/>
<path fill-rule="evenodd" clip-rule="evenodd" d="M111.574 132.591V133.66H103.189V127.062H104.341V132.591H111.574ZM103.978 132.928V127.399H103.552V133.323H111.211V132.928H103.978Z"/>
<path fill-rule="evenodd" clip-rule="evenodd" d="M97.5558 127.062H98.7075V131.743C98.7075 132.322 98.5514 132.818 98.1756 133.166C97.7999 133.515 97.2657 133.66 96.6424 133.66H92.3874C91.7641 133.66 91.23 133.515 90.8542 133.166C90.4784 132.818 90.3223 132.322 90.3223 131.743V127.062H91.474V131.743C91.474 132.086 91.5662 132.282 91.6868 132.394C91.8074 132.506 92.0179 132.591 92.3874 132.591H96.6424C97.0119 132.591 97.2224 132.506 97.343 132.394C97.4637 132.282 97.5558 132.086 97.5558 131.743V127.062ZM97.9189 131.743C97.9189 132.533 97.4934 132.928 96.6424 132.928H92.3874C91.5364 132.928 91.1109 132.533 91.1109 131.743V127.399H90.6854V131.743C90.6854 132.796 91.2528 133.323 92.3874 133.323H96.6424C97.777 133.323 98.3444 132.796 98.3444 131.743V127.399H97.9189V131.743Z"/>
<path fill-rule="evenodd" clip-rule="evenodd" d="M85.0761 130.581C85.3436 130.843 85.4774 131.231 85.4774 131.743C85.4774 132.796 84.91 133.323 83.7754 133.323H77.8184V127.399H83.7754C84.91 127.399 85.4774 127.925 85.4774 128.979C85.4774 129.491 85.3436 129.879 85.0761 130.141C84.9876 130.228 84.8845 130.301 84.7668 130.361C84.8845 130.42 84.9876 130.494 85.0761 130.581ZM85.3526 130.361C85.6911 130.021 85.8404 129.542 85.8404 128.979C85.8404 128.4 85.6844 127.904 85.3086 127.555C84.9328 127.207 84.3987 127.062 83.7754 127.062H77.4553V133.66H83.7754C84.3987 133.66 84.9328 133.515 85.3086 133.166C85.6844 132.818 85.8404 132.322 85.8404 131.743C85.8404 131.18 85.6911 130.701 85.3526 130.361ZM84.476 132.394C84.5966 132.282 84.6888 132.086 84.6888 131.743C84.6888 131.4 84.5966 131.205 84.476 131.093C84.3554 130.981 84.1449 130.895 83.7754 130.895H78.607V132.591H83.7754C84.1449 132.591 84.3554 132.506 84.476 132.394ZM78.2439 132.928V130.558H83.7754C84.6264 130.558 85.0519 130.953 85.0519 131.743C85.0519 132.533 84.6264 132.928 83.7754 132.928H78.2439ZM84.476 128.328C84.3554 128.216 84.1449 128.131 83.7754 128.131H78.607V129.826H83.7754C84.1449 129.826 84.3554 129.741 84.476 129.629C84.5966 129.517 84.6888 129.322 84.6888 128.979C84.6888 128.636 84.5966 128.44 84.476 128.328ZM83.7754 130.163C84.6264 130.163 85.0519 129.768 85.0519 128.979C85.0519 128.189 84.6264 127.794 83.7754 127.794H78.2439V130.163H83.7754Z"/>
</mask>
<path d="M178.576 133.323C177.441 133.323 176.874 132.796 176.874 131.743H177.3C177.3 132.533 177.725 132.928 178.576 132.928H182.831C183.682 132.928 184.107 132.533 184.107 131.743C184.107 130.953 183.682 130.558 182.831 130.558H178.576C177.441 130.558 176.874 130.032 176.874 128.979C176.874 127.925 177.441 127.399 178.576 127.399H182.831C183.966 127.399 184.533 127.925 184.533 128.979H184.107C184.107 128.189 183.682 127.794 182.831 127.794H178.576C177.725 127.794 177.3 128.189 177.3 128.979C177.3 129.768 177.725 130.163 178.576 130.163H182.831C183.966 130.163 184.533 130.69 184.533 131.743C184.533 132.796 183.966 133.323 182.831 133.323H178.576Z" fill="#F9FAFB"/>
<path d="M164.433 128.05V133.323H164.007V127.225L171.24 132.671V127.399H171.666V133.497L164.433 128.05Z" fill="#F9FAFB"/>
<path d="M157.497 131.348L155.276 128.039L153.055 131.348H157.497ZM157.761 131.743H152.791L151.731 133.323H151.234L155.276 127.3L159.318 133.323H158.82L157.761 131.743Z" fill="#F9FAFB"/>
<path d="M139.294 130.558V133.323H138.869V127.399H139.294V130.163H146.102V127.399H146.528V133.323H146.102V130.558H139.294Z" fill="#F9FAFB"/>
<path d="M128.98 130.558V130.163H133.661V130.558H128.98Z" fill="#F9FAFB"/>
<path d="M116.539 132.928H123.772V133.323H116.113V127.399H116.539V132.928Z" fill="#F9FAFB"/>
<path d="M103.978 132.928H111.211V133.323H103.552V127.399H103.978V132.928Z" fill="#F9FAFB"/>
<path d="M97.9189 131.743V127.399H98.3444V131.743C98.3444 132.796 97.777 133.323 96.6424 133.323H92.3874C91.2528 133.323 90.6854 132.796 90.6854 131.743V127.399H91.1109V131.743C91.1109 132.533 91.5364 132.928 92.3874 132.928H96.6424C97.4934 132.928 97.9189 132.533 97.9189 131.743Z" fill="#F9FAFB"/>
<path d="M83.7754 132.928C84.6264 132.928 85.0519 132.533 85.0519 131.743C85.0519 130.953 84.6264 130.558 83.7754 130.558H78.2439V132.928H83.7754ZM85.0519 128.979C85.0519 128.189 84.6264 127.794 83.7754 127.794H78.2439V130.163H83.7754C84.6264 130.163 85.0519 129.768 85.0519 128.979ZM85.4774 131.743C85.4774 132.796 84.91 133.323 83.7754 133.323H77.8184V127.399H83.7754C84.91 127.399 85.4774 127.925 85.4774 128.979C85.4774 129.661 85.2405 130.121 84.7668 130.361C85.2405 130.601 85.4774 131.061 85.4774 131.743Z" fill="#F9FAFB"/>
<path fill-rule="evenodd" clip-rule="evenodd" d="M176.511 131.406H177.663V131.743C177.663 132.086 177.755 132.282 177.875 132.394C177.996 132.506 178.207 132.591 178.576 132.591H182.831C183.201 132.591 183.411 132.506 183.532 132.394C183.652 132.282 183.744 132.086 183.744 131.743C183.744 131.4 183.652 131.205 183.532 131.093C183.411 130.981 183.201 130.895 182.831 130.895H178.576C177.953 130.895 177.419 130.751 177.043 130.402C176.667 130.053 176.511 129.557 176.511 128.979C176.511 128.4 176.667 127.904 177.043 127.555C177.419 127.207 177.953 127.062 178.576 127.062H182.831C183.454 127.062 183.988 127.207 184.364 127.555C184.74 127.904 184.896 128.4 184.896 128.979V129.316H183.744V128.979C183.744 128.636 183.652 128.44 183.532 128.328C183.411 128.216 183.201 128.131 182.831 128.131H178.576C178.207 128.131 177.996 128.216 177.875 128.328C177.755 128.44 177.663 128.636 177.663 128.979C177.663 129.322 177.755 129.517 177.875 129.629C177.996 129.741 178.207 129.826 178.576 129.826H182.831C183.454 129.826 183.988 129.971 184.364 130.32C184.74 130.669 184.896 131.165 184.896 131.743C184.896 132.322 184.74 132.818 184.364 133.166C183.988 133.515 183.454 133.66 182.831 133.66H178.576C177.953 133.66 177.419 133.515 177.043 133.166C176.667 132.818 176.511 132.322 176.511 131.743V131.406ZM176.896 132.08C177.01 132.909 177.57 133.323 178.576 133.323H182.831C183.966 133.323 184.533 132.796 184.533 131.743C184.533 130.69 183.966 130.163 182.831 130.163H178.576C177.725 130.163 177.3 129.768 177.3 128.979C177.3 128.189 177.725 127.794 178.576 127.794H182.831C183.682 127.794 184.107 128.189 184.107 128.979H184.533C184.533 128.859 184.526 128.747 184.511 128.642C184.397 127.813 183.837 127.399 182.831 127.399H178.576C177.441 127.399 176.874 127.925 176.874 128.979C176.874 130.032 177.441 130.558 178.576 130.558H182.831C183.682 130.558 184.107 130.953 184.107 131.743C184.107 132.533 183.682 132.928 182.831 132.928H178.576C177.725 132.928 177.3 132.533 177.3 131.743H176.874C176.874 131.862 176.881 131.975 176.896 132.08Z" fill="#F9FAFB"/>
<path fill-rule="evenodd" clip-rule="evenodd" d="M171.24 132.671V127.399H171.666V133.497L164.433 128.05V133.323H164.007V127.225L171.24 132.671ZM164.796 128.758V133.66H163.644V126.518L170.877 131.964V127.062H172.029V134.204L164.796 128.758Z" fill="#F9FAFB"/>
<path fill-rule="evenodd" clip-rule="evenodd" d="M158.82 133.323L157.761 131.743H152.791L151.731 133.323H151.234L155.276 127.3L159.318 133.323H158.82ZM153.055 131.348L155.276 128.039L157.497 131.348H153.055ZM153.709 131.011H156.843L155.276 128.676L153.709 131.011ZM152.993 132.08L151.933 133.66H150.58L155.276 126.663L159.972 133.66H158.619L157.559 132.08H152.993Z" fill="#F9FAFB"/>
<path fill-rule="evenodd" clip-rule="evenodd" d="M139.657 133.66H138.506V127.062H139.657V129.826H145.739V127.062H146.891V133.66H145.739V130.895H139.657V133.66ZM139.294 130.558H146.102V133.323H146.528V127.399H146.102V130.163H139.294V127.399H138.869V133.323H139.294V130.558Z" fill="#F9FAFB"/>
<path fill-rule="evenodd" clip-rule="evenodd" d="M128.98 130.163V130.558H133.661V130.163H128.98ZM128.617 130.895V129.826H134.024V130.895H128.617Z" fill="#F9FAFB"/>
<path fill-rule="evenodd" clip-rule="evenodd" d="M124.135 132.591V133.66H115.75V127.062H116.902V132.591H124.135ZM116.539 132.928V127.399H116.113V133.323H123.772V132.928H116.539Z" fill="#F9FAFB"/>
<path fill-rule="evenodd" clip-rule="evenodd" d="M111.574 132.591V133.66H103.189V127.062H104.341V132.591H111.574ZM103.978 132.928V127.399H103.552V133.323H111.211V132.928H103.978Z" fill="#F9FAFB"/>
<path fill-rule="evenodd" clip-rule="evenodd" d="M97.5558 127.062H98.7075V131.743C98.7075 132.322 98.5514 132.818 98.1756 133.166C97.7999 133.515 97.2657 133.66 96.6424 133.66H92.3874C91.7641 133.66 91.23 133.515 90.8542 133.166C90.4784 132.818 90.3223 132.322 90.3223 131.743V127.062H91.474V131.743C91.474 132.086 91.5662 132.282 91.6868 132.394C91.8074 132.506 92.0179 132.591 92.3874 132.591H96.6424C97.0119 132.591 97.2224 132.506 97.343 132.394C97.4637 132.282 97.5558 132.086 97.5558 131.743V127.062ZM97.9189 131.743C97.9189 132.533 97.4934 132.928 96.6424 132.928H92.3874C91.5364 132.928 91.1109 132.533 91.1109 131.743V127.399H90.6854V131.743C90.6854 132.796 91.2528 133.323 92.3874 133.323H96.6424C97.777 133.323 98.3444 132.796 98.3444 131.743V127.399H97.9189V131.743Z" fill="#F9FAFB"/>
<path fill-rule="evenodd" clip-rule="evenodd" d="M85.0761 130.581C85.3436 130.843 85.4774 131.231 85.4774 131.743C85.4774 132.796 84.91 133.323 83.7754 133.323H77.8184V127.399H83.7754C84.91 127.399 85.4774 127.925 85.4774 128.979C85.4774 129.491 85.3436 129.879 85.0761 130.141C84.9876 130.228 84.8845 130.301 84.7668 130.361C84.8845 130.42 84.9876 130.494 85.0761 130.581ZM85.3526 130.361C85.6911 130.021 85.8404 129.542 85.8404 128.979C85.8404 128.4 85.6844 127.904 85.3086 127.555C84.9328 127.207 84.3987 127.062 83.7754 127.062H77.4553V133.66H83.7754C84.3987 133.66 84.9328 133.515 85.3086 133.166C85.6844 132.818 85.8404 132.322 85.8404 131.743C85.8404 131.18 85.6911 130.701 85.3526 130.361ZM84.476 132.394C84.5966 132.282 84.6888 132.086 84.6888 131.743C84.6888 131.4 84.5966 131.205 84.476 131.093C84.3554 130.981 84.1449 130.895 83.7754 130.895H78.607V132.591H83.7754C84.1449 132.591 84.3554 132.506 84.476 132.394ZM78.2439 132.928V130.558H83.7754C84.6264 130.558 85.0519 130.953 85.0519 131.743C85.0519 132.533 84.6264 132.928 83.7754 132.928H78.2439ZM84.476 128.328C84.3554 128.216 84.1449 128.131 83.7754 128.131H78.607V129.826H83.7754C84.1449 129.826 84.3554 129.741 84.476 129.629C84.5966 129.517 84.6888 129.322 84.6888 128.979C84.6888 128.636 84.5966 128.44 84.476 128.328ZM83.7754 130.163C84.6264 130.163 85.0519 129.768 85.0519 128.979C85.0519 128.189 84.6264 127.794 83.7754 127.794H78.2439V130.163H83.7754Z" fill="#F9FAFB"/>
<path d="M177.3 131.743H179.3V129.743H177.3V131.743ZM184.107 128.979H182.107V130.979H184.107V128.979ZM164.433 128.05L165.636 126.453L162.433 124.041V128.05H164.433ZM164.433 133.323V135.323H166.433V133.323H164.433ZM164.007 133.323H162.007V135.323H164.007V133.323ZM164.007 127.225L165.21 125.627L162.007 123.215V127.225H164.007ZM171.24 132.671L170.037 134.269L173.24 136.681V132.671H171.24ZM171.24 127.399V125.399H169.24V127.399H171.24ZM171.666 127.399H173.666V125.399H171.666V127.399ZM171.666 133.497L170.463 135.095L173.666 137.506V133.497H171.666ZM157.497 131.348V133.348H161.248L159.158 130.234L157.497 131.348ZM155.276 128.039L156.937 126.924L155.276 124.449L153.615 126.924L155.276 128.039ZM153.055 131.348L151.394 130.234L149.304 133.348H153.055V131.348ZM157.761 131.743L159.422 130.629L158.828 129.743H157.761V131.743ZM152.791 131.743V129.743H151.724L151.13 130.629L152.791 131.743ZM151.731 133.323V135.323H152.798L153.392 134.437L151.731 133.323ZM151.234 133.323L149.573 132.209L147.483 135.323H151.234V133.323ZM155.276 127.3L156.937 126.185L155.276 123.711L153.615 126.185L155.276 127.3ZM159.318 133.323V135.323H163.069L160.979 132.209L159.318 133.323ZM158.82 133.323L157.159 134.437L157.753 135.323H158.82V133.323ZM139.294 130.558V128.558H137.294V130.558H139.294ZM139.294 133.323V135.323H141.294V133.323H139.294ZM138.869 133.323H136.869V135.323H138.869V133.323ZM138.869 127.399V125.399H136.869V127.399H138.869ZM139.294 127.399H141.294V125.399H139.294V127.399ZM139.294 130.163H137.294V132.163H139.294V130.163ZM146.102 130.163V132.163H148.102V130.163H146.102ZM146.102 127.399V125.399H144.102V127.399H146.102ZM146.528 127.399H148.528V125.399H146.528V127.399ZM146.528 133.323V135.323H148.528V133.323H146.528ZM146.102 133.323H144.102V135.323H146.102V133.323ZM146.102 130.558H148.102V128.558H146.102V130.558ZM128.98 130.558H126.98V132.558H128.98V130.558ZM128.98 130.163V128.163H126.98V130.163H128.98ZM133.661 130.163H135.661V128.163H133.661V130.163ZM133.661 130.558V132.558H135.661V130.558H133.661ZM116.539 132.928H114.539V134.928H116.539V132.928ZM123.772 132.928H125.772V130.928H123.772V132.928ZM123.772 133.323V135.323H125.772V133.323H123.772ZM116.113 133.323H114.113V135.323H116.113V133.323ZM116.113 127.399V125.399H114.113V127.399H116.113ZM116.539 127.399H118.539V125.399H116.539V127.399ZM103.978 132.928H101.978V134.928H103.978V132.928ZM111.211 132.928H113.211V130.928H111.211V132.928ZM111.211 133.323V135.323H113.211V133.323H111.211ZM103.552 133.323H101.552V135.323H103.552V133.323ZM103.552 127.399V125.399H101.552V127.399H103.552ZM103.978 127.399H105.978V125.399H103.978V127.399ZM97.9189 127.399V125.399H95.9189V127.399H97.9189ZM98.3444 127.399H100.344V125.399H98.3444V127.399ZM90.6854 127.399V125.399H88.6854V127.399H90.6854ZM91.1109 127.399H93.1109V125.399H91.1109V127.399ZM78.2439 130.558V128.558H76.2439V130.558H78.2439ZM78.2439 132.928H76.2439V134.928H78.2439V132.928ZM78.2439 127.794V125.794H76.2439V127.794H78.2439ZM78.2439 130.163H76.2439V132.163H78.2439V130.163ZM77.8184 133.323H75.8184V135.323H77.8184V133.323ZM77.8184 127.399V125.399H75.8184V127.399H77.8184ZM176.874 133.743H177.3V129.743H176.874V133.743ZM175.3 131.743C175.3 132.486 175.507 133.4 176.258 134.098C176.981 134.769 177.878 134.928 178.576 134.928V130.928C178.423 130.928 178.681 130.89 178.979 131.166C179.305 131.469 179.3 131.79 179.3 131.743H175.3ZM178.576 134.928H182.831V130.928H178.576V134.928ZM182.831 134.928C183.529 134.928 184.426 134.769 185.149 134.098C185.9 133.4 186.107 132.486 186.107 131.743H182.107C182.107 131.79 182.102 131.469 182.428 131.166C182.726 130.89 182.984 130.928 182.831 130.928V134.928ZM186.107 131.743C186.107 131 185.9 130.086 185.149 129.389C184.426 128.717 183.529 128.558 182.831 128.558V132.558C182.984 132.558 182.726 132.597 182.428 132.32C182.102 132.018 182.107 131.696 182.107 131.743H186.107ZM182.831 128.558H178.576V132.558H182.831V128.558ZM178.576 128.558C178.282 128.558 178.433 128.487 178.66 128.698C178.772 128.802 178.835 128.916 178.863 128.994C178.887 129.06 178.874 129.068 178.874 128.979H174.874C174.874 129.853 175.117 130.866 175.939 131.629C176.733 132.366 177.736 132.558 178.576 132.558V128.558ZM178.874 128.979C178.874 128.889 178.887 128.897 178.863 128.963C178.835 129.041 178.772 129.155 178.66 129.26C178.433 129.47 178.282 129.399 178.576 129.399V125.399C177.736 125.399 176.733 125.591 175.939 126.328C175.117 127.091 174.874 128.104 174.874 128.979H178.874ZM178.576 129.399H182.831V125.399H178.576V129.399ZM184.533 126.979H184.107V130.979H184.533V126.979ZM186.107 128.979C186.107 128.236 185.9 127.322 185.149 126.624C184.426 125.953 183.529 125.794 182.831 125.794V129.794C182.984 129.794 182.726 129.832 182.428 129.556C182.102 129.253 182.107 128.932 182.107 128.979H186.107ZM182.831 125.794H178.576V129.794H182.831V125.794ZM178.576 125.794C177.878 125.794 176.981 125.953 176.258 126.624C175.507 127.322 175.3 128.236 175.3 128.979H179.3C179.3 128.932 179.305 129.253 178.979 129.556C178.681 129.832 178.423 129.794 178.576 129.794V125.794ZM175.3 128.979C175.3 129.722 175.507 130.636 176.258 131.333C176.981 132.004 177.878 132.163 178.576 132.163V128.163C178.423 128.163 178.681 128.125 178.979 128.401C179.305 128.704 179.3 129.025 179.3 128.979H175.3ZM178.576 132.163H182.831V128.163H178.576V132.163ZM182.831 132.163C183.126 132.163 182.974 132.235 182.747 132.024C182.635 131.92 182.572 131.806 182.544 131.728C182.52 131.661 182.533 131.654 182.533 131.743H186.533C186.533 130.869 186.29 129.856 185.468 129.093C184.674 128.355 183.671 128.163 182.831 128.163V132.163ZM182.533 131.743C182.533 131.832 182.52 131.825 182.544 131.758C182.572 131.681 182.635 131.566 182.747 131.462C182.974 131.252 183.126 131.323 182.831 131.323V135.323C183.671 135.323 184.674 135.131 185.468 134.394C186.29 133.631 186.533 132.618 186.533 131.743H182.533ZM182.831 131.323H178.576V135.323H182.831V131.323ZM162.433 128.05V133.323H166.433V128.05H162.433ZM164.433 131.323H164.007V135.323H164.433V131.323ZM166.007 133.323V127.225H162.007V133.323H166.007ZM162.804 128.823L170.037 134.269L172.443 131.074L165.21 125.627L162.804 128.823ZM173.24 132.671V127.399H169.24V132.671H173.24ZM171.24 129.399H171.666V125.399H171.24V129.399ZM169.666 127.399V133.497H173.666V127.399H169.666ZM172.869 131.899L165.636 126.453L163.23 129.648L170.463 135.095L172.869 131.899ZM159.158 130.234L156.937 126.924L153.615 129.153L155.836 132.463L159.158 130.234ZM153.615 126.924L151.394 130.234L154.715 132.463L156.937 129.153L153.615 126.924ZM153.055 133.348H157.497V129.348H153.055V133.348ZM157.761 129.743H152.791V133.743H157.761V129.743ZM151.13 130.629L150.07 132.209L153.392 134.437L154.452 132.857L151.13 130.629ZM151.731 131.323H151.234V135.323H151.731V131.323ZM152.894 134.438L156.937 128.414L153.615 126.185L149.573 132.209L152.894 134.438ZM153.615 128.414L157.657 134.438L160.979 132.209L156.937 126.185L153.615 128.414ZM159.318 131.323H158.82V135.323H159.318V131.323ZM160.481 132.209L159.422 130.629L156.1 132.857L157.159 134.437L160.481 132.209ZM137.294 130.558V133.323H141.294V130.558H137.294ZM139.294 131.323H138.869V135.323H139.294V131.323ZM140.869 133.323V127.399H136.869V133.323H140.869ZM138.869 129.399H139.294V125.399H138.869V129.399ZM137.294 127.399V130.163H141.294V127.399H137.294ZM139.294 132.163H146.102V128.163H139.294V132.163ZM148.102 130.163V127.399H144.102V130.163H148.102ZM146.102 129.399H146.528V125.399H146.102V129.399ZM144.528 127.399V133.323H148.528V127.399H144.528ZM146.528 131.323H146.102V135.323H146.528V131.323ZM148.102 133.323V130.558H144.102V133.323H148.102ZM146.102 128.558H139.294V132.558H146.102V128.558ZM130.98 130.558V130.163H126.98V130.558H130.98ZM128.98 132.163H133.661V128.163H128.98V132.163ZM131.661 130.163V130.558H135.661V130.163H131.661ZM133.661 128.558H128.98V132.558H133.661V128.558ZM116.539 134.928H123.772V130.928H116.539V134.928ZM121.772 132.928V133.323H125.772V132.928H121.772ZM123.772 131.323H116.113V135.323H123.772V131.323ZM118.113 133.323V127.399H114.113V133.323H118.113ZM116.113 129.399H116.539V125.399H116.113V129.399ZM114.539 127.399V132.928H118.539V127.399H114.539ZM103.978 134.928H111.211V130.928H103.978V134.928ZM109.211 132.928V133.323H113.211V132.928H109.211ZM111.211 131.323H103.552V135.323H111.211V131.323ZM105.552 133.323V127.399H101.552V133.323H105.552ZM103.552 129.399H103.978V125.399H103.552V129.399ZM101.978 127.399V132.928H105.978V127.399H101.978ZM99.9189 131.743V127.399H95.9189V131.743H99.9189ZM97.9189 129.399H98.3444V125.399H97.9189V129.399ZM96.3444 127.399V131.743H100.344V127.399H96.3444ZM96.3444 131.743C96.3444 131.832 96.3318 131.825 96.3557 131.758C96.3836 131.681 96.4461 131.566 96.5583 131.462C96.7851 131.252 96.9369 131.323 96.6424 131.323V135.323C97.4825 135.323 98.4853 135.131 99.2795 134.394C100.102 133.631 100.344 132.618 100.344 131.743H96.3444ZM96.6424 131.323H92.3874V135.323H96.6424V131.323ZM92.3874 131.323C92.0929 131.323 92.2447 131.252 92.4716 131.462C92.5837 131.566 92.6462 131.681 92.6741 131.758C92.6981 131.825 92.6854 131.832 92.6854 131.743H88.6854C88.6854 132.618 88.928 133.631 89.7503 134.394C90.5445 135.131 91.5473 135.323 92.3874 135.323V131.323ZM92.6854 131.743V127.399H88.6854V131.743H92.6854ZM90.6854 129.399H91.1109V125.399H90.6854V129.399ZM89.1109 127.399V131.743H93.1109V127.399H89.1109ZM89.1109 131.743C89.1109 132.486 89.318 133.4 90.0694 134.098C90.7927 134.769 91.6891 134.928 92.3874 134.928V130.928C92.2347 130.928 92.4929 130.89 92.7907 131.166C93.1166 131.469 93.1109 131.79 93.1109 131.743H89.1109ZM92.3874 134.928H96.6424V130.928H92.3874V134.928ZM96.6424 134.928C97.3407 134.928 98.2371 134.769 98.9604 134.098C99.7118 133.4 99.9189 132.486 99.9189 131.743H95.9189C95.9189 131.79 95.9132 131.469 96.2391 131.166C96.5369 130.89 96.7951 130.928 96.6424 130.928V134.928ZM83.7754 134.928C84.4737 134.928 85.3701 134.769 86.0934 134.098C86.8448 133.4 87.0519 132.486 87.0519 131.743H83.0519C83.0519 131.79 83.0462 131.469 83.3721 131.166C83.6699 130.89 83.928 130.928 83.7754 130.928V134.928ZM87.0519 131.743C87.0519 131 86.8448 130.086 86.0934 129.389C85.3701 128.717 84.4737 128.558 83.7754 128.558V132.558C83.928 132.558 83.6699 132.597 83.3721 132.32C83.0462 132.018 83.0519 131.696 83.0519 131.743H87.0519ZM83.7754 128.558H78.2439V132.558H83.7754V128.558ZM76.2439 130.558V132.928H80.2439V130.558H76.2439ZM78.2439 134.928H83.7754V130.928H78.2439V134.928ZM87.0519 128.979C87.0519 128.236 86.8448 127.322 86.0934 126.624C85.3701 125.953 84.4737 125.794 83.7754 125.794V129.794C83.928 129.794 83.6699 129.832 83.3721 129.556C83.0462 129.253 83.0519 128.932 83.0519 128.979H87.0519ZM83.7754 125.794H78.2439V129.794H83.7754V125.794ZM76.2439 127.794V130.163H80.2439V127.794H76.2439ZM78.2439 132.163H83.7754V128.163H78.2439V132.163ZM83.7754 132.163C84.4737 132.163 85.3701 132.004 86.0934 131.333C86.8448 130.636 87.0519 129.722 87.0519 128.979H83.0519C83.0519 129.025 83.0462 128.704 83.3721 128.401C83.6699 128.125 83.928 128.163 83.7754 128.163V132.163ZM83.4774 131.743C83.4774 131.832 83.4647 131.825 83.4887 131.758C83.5166 131.681 83.5791 131.566 83.6912 131.462C83.9181 131.252 84.0699 131.323 83.7754 131.323V135.323C84.6155 135.323 85.6183 135.131 86.4125 134.394C87.2348 133.631 87.4774 132.618 87.4774 131.743H83.4774ZM83.7754 131.323H77.8184V135.323H83.7754V131.323ZM79.8184 133.323V127.399H75.8184V133.323H79.8184ZM77.8184 129.399H83.7754V125.399H77.8184V129.399ZM83.7754 129.399C84.0699 129.399 83.9181 129.47 83.6912 129.26C83.5791 129.155 83.5166 129.041 83.4887 128.963C83.4647 128.897 83.4774 128.889 83.4774 128.979H87.4774C87.4774 128.104 87.2348 127.091 86.4125 126.328C85.6183 125.591 84.6155 125.399 83.7754 125.399V129.399ZM84.7668 130.361L82.9614 126.792L75.9044 130.361L82.9614 133.93L84.7668 130.361ZM176.511 131.406V127.406H172.511V131.406H176.511ZM177.663 131.406H181.663V127.406H177.663V131.406ZM177.875 132.394L175.154 135.325L175.154 135.325L177.875 132.394ZM183.532 132.394L186.253 135.325L186.253 135.325L183.532 132.394ZM183.532 131.093L186.253 128.161L186.253 128.161L183.532 131.093ZM177.043 130.402L179.764 127.47L179.764 127.47L177.043 130.402ZM177.043 127.555L179.764 130.487L179.764 130.487L177.043 127.555ZM184.364 127.555L181.643 130.487L181.643 130.487L184.364 127.555ZM184.896 129.316V133.316H188.896V129.316H184.896ZM183.744 129.316H179.744V133.316H183.744V129.316ZM183.532 128.328L186.253 125.397L186.253 125.396L183.532 128.328ZM177.875 128.328L175.154 125.396L175.154 125.397L177.875 128.328ZM177.875 129.629L175.154 132.561L175.154 132.561L177.875 129.629ZM184.364 130.32L181.643 133.252L181.643 133.252L184.364 130.32ZM184.364 133.166L181.643 130.235L181.643 130.235L184.364 133.166ZM177.043 133.166L179.764 130.235L179.764 130.235L177.043 133.166ZM176.896 132.08L180.859 131.536L180.859 131.536L176.896 132.08ZM184.511 128.642L180.548 129.186L180.548 129.186L184.511 128.642ZM164.796 128.758L167.202 125.562L160.796 120.739V128.758H164.796ZM164.796 133.66V137.66H168.796V133.66H164.796ZM163.644 133.66H159.644V137.66H163.644V133.66ZM163.644 126.518L166.05 123.322L159.644 118.499V126.518H163.644ZM170.877 131.964L168.471 135.159L174.877 139.983V131.964H170.877ZM170.877 127.062V123.062H166.877V127.062H170.877ZM172.029 127.062H176.029V123.062H172.029V127.062ZM172.029 134.204L169.623 137.4L176.029 142.223V134.204H172.029ZM156.843 131.011V135.011H164.345L160.164 128.782L156.843 131.011ZM153.709 131.011L150.387 128.782L146.207 135.011H153.709V131.011ZM155.276 128.676L158.597 126.447L155.276 121.498L151.954 126.447L155.276 128.676ZM152.993 132.08V128.08H150.859L149.671 129.852L152.993 132.08ZM151.933 133.66V137.66H154.067L155.255 135.888L151.933 133.66ZM150.58 133.66L147.258 131.431L143.078 137.66H150.58V133.66ZM155.276 126.663L158.597 124.434L155.276 119.485L151.954 124.434L155.276 126.663ZM159.972 133.66V137.66H167.474L163.293 131.431L159.972 133.66ZM158.619 133.66L155.296 135.888L156.485 137.66H158.619V133.66ZM157.559 132.08L160.881 129.852L159.693 128.08H157.559V132.08ZM139.657 133.66V137.66H143.657V133.66H139.657ZM138.506 133.66H134.506V137.66H138.506V133.66ZM138.506 127.062V123.062H134.506V127.062H138.506ZM139.657 127.062H143.657V123.062H139.657V127.062ZM139.657 129.826H135.657V133.826H139.657V129.826ZM145.739 129.826V133.826H149.739V129.826H145.739ZM145.739 127.062V123.062H141.739V127.062H145.739ZM146.891 127.062H150.891V123.062H146.891V127.062ZM146.891 133.66V137.66H150.891V133.66H146.891ZM145.739 133.66H141.739V137.66H145.739V133.66ZM145.739 130.895H149.739V126.895H145.739V130.895ZM139.657 130.895V126.895H135.657V130.895H139.657ZM128.617 130.895H124.617V134.895H128.617V130.895ZM128.617 129.826V125.826H124.617V129.826H128.617ZM134.024 129.826H138.024V125.826H134.024V129.826ZM134.024 130.895V134.895H138.024V130.895H134.024ZM124.135 132.591H128.135V128.591H124.135V132.591ZM124.135 133.66V137.66H128.135V133.66H124.135ZM115.75 133.66H111.75V137.66H115.75V133.66ZM115.75 127.062V123.062H111.75V127.062H115.75ZM116.902 127.062H120.902V123.062H116.902V127.062ZM116.902 132.591H112.902V136.591H116.902V132.591ZM111.574 132.591H115.574V128.591H111.574V132.591ZM111.574 133.66V137.66H115.574V133.66H111.574ZM103.189 133.66H99.1894V137.66H103.189V133.66ZM103.189 127.062V123.062H99.1894V127.062H103.189ZM104.341 127.062H108.341V123.062H104.341V127.062ZM104.341 132.591H100.341V136.591H104.341V132.591ZM97.5558 127.062V123.062H93.5558V127.062H97.5558ZM98.7075 127.062H102.707V123.062H98.7075V127.062ZM98.1756 133.166L100.897 136.098L100.897 136.098L98.1756 133.166ZM90.8542 133.166L88.1329 136.098L88.1329 136.098L90.8542 133.166ZM90.3223 127.062V123.062H86.3223V127.062H90.3223ZM91.474 127.062H95.474V123.062H91.474V127.062ZM91.6868 132.394L94.4081 129.462L94.408 129.462L91.6868 132.394ZM97.343 132.394L94.6218 129.462L94.6217 129.462L97.343 132.394ZM85.0761 130.581L87.8785 127.726L87.8785 127.726L85.0761 130.581ZM85.0761 130.141L87.8785 132.996L87.8785 132.996L85.0761 130.141ZM85.3526 130.361L82.5183 127.538L79.7076 130.361L82.5183 133.183L85.3526 130.361ZM85.3086 127.555L88.0299 124.624L88.0299 124.624L85.3086 127.555ZM77.4553 127.062V123.062H73.4553V127.062H77.4553ZM77.4553 133.66H73.4553V137.66H77.4553V133.66ZM85.3086 133.166L88.0299 136.098L88.0299 136.098L85.3086 133.166ZM84.476 132.394L81.7547 129.462L81.7547 129.462L84.476 132.394ZM84.476 131.093L81.7547 134.025L81.7547 134.025L84.476 131.093ZM78.607 130.895V126.895H74.607V130.895H78.607ZM78.607 132.591H74.607V136.591H78.607V132.591ZM84.476 128.328L81.7547 131.26L81.7547 131.26L84.476 128.328ZM78.607 128.131V124.131H74.607V128.131H78.607ZM78.607 129.826H74.607V133.826H78.607V129.826ZM84.476 129.629L81.7547 126.697L81.7547 126.697L84.476 129.629ZM178.576 129.323C178.589 129.323 178.755 129.323 179.014 129.403C179.288 129.488 179.661 129.663 180.021 129.996C180.814 130.733 180.874 131.574 180.874 131.743H172.874C172.874 132.966 173.217 134.597 174.578 135.86C175.883 137.071 177.463 137.323 178.576 137.323V129.323ZM182.831 131.399C182.818 131.399 182.652 131.399 182.393 131.319C182.119 131.234 181.746 131.059 181.386 130.725C180.593 129.989 180.533 129.148 180.533 128.979H188.533C188.533 127.756 188.19 126.125 186.829 124.862C185.524 123.651 183.944 123.399 182.831 123.399V131.399ZM81.4774 128.979C81.4774 128.877 81.4926 128.492 81.7422 128.007C82.0196 127.467 82.4651 127.043 82.9614 126.792L86.5722 133.93C88.7921 132.807 89.4774 130.661 89.4774 128.979H81.4774ZM82.9614 133.93C82.4651 133.679 82.0196 133.255 81.7422 132.715C81.4926 132.229 81.4774 131.845 81.4774 131.743H89.4774C89.4774 130.061 88.7921 127.914 86.5722 126.792L82.9614 133.93ZM181.663 131.743V131.406H173.663V131.743H181.663ZM180.597 129.462C181.549 130.346 181.663 131.382 181.663 131.743H173.663C173.663 132.791 173.961 134.218 175.154 135.325L180.597 129.462ZM178.576 128.591C178.76 128.591 179.7 128.63 180.597 129.462L175.154 135.325C176.292 136.381 177.653 136.591 178.576 136.591V128.591ZM182.831 128.591H178.576V136.591H182.831V128.591ZM180.81 129.462C181.707 128.63 182.647 128.591 182.831 128.591V136.591C183.754 136.591 185.115 136.381 186.253 135.325L180.81 129.462ZM179.744 131.743C179.744 131.382 179.858 130.346 180.81 129.462L186.253 135.325C187.446 134.218 187.744 132.791 187.744 131.743H179.744ZM180.81 134.025C179.858 133.141 179.744 132.105 179.744 131.743H187.744C187.744 130.696 187.446 129.269 186.253 128.161L180.81 134.025ZM182.831 134.895C182.647 134.895 181.707 134.857 180.81 134.025L186.253 128.161C185.115 127.105 183.754 126.895 182.831 126.895V134.895ZM178.576 134.895H182.831V126.895H178.576V134.895ZM174.322 133.333C175.72 134.632 177.411 134.895 178.576 134.895V126.895C178.495 126.895 179.117 126.869 179.764 127.47L174.322 133.333ZM172.511 128.979C172.511 130.25 172.866 131.983 174.322 133.333L179.764 127.47C180.468 128.123 180.511 128.865 180.511 128.979H172.511ZM174.322 124.624C172.866 125.974 172.511 127.708 172.511 128.979H180.511C180.511 129.092 180.468 129.834 179.764 130.487L174.322 124.624ZM178.576 123.062C177.411 123.062 175.72 123.325 174.322 124.624L179.764 130.487C179.117 131.088 178.495 131.062 178.576 131.062V123.062ZM182.831 123.062H178.576V131.062H182.831V123.062ZM187.086 124.624C185.687 123.325 183.997 123.062 182.831 123.062V131.062C182.912 131.062 182.29 131.088 181.643 130.487L187.086 124.624ZM188.896 128.979C188.896 127.708 188.541 125.974 187.085 124.624L181.643 130.487C180.939 129.834 180.896 129.092 180.896 128.979H188.896ZM188.896 129.316V128.979H180.896V129.316H188.896ZM179.744 128.979V129.316H187.744V128.979H179.744ZM180.81 131.26C179.858 130.376 179.744 129.34 179.744 128.979H187.744C187.744 127.931 187.446 126.504 186.253 125.397L180.81 131.26ZM182.831 132.131C182.647 132.131 181.707 132.092 180.81 131.26L186.253 125.396C185.115 124.34 183.754 124.131 182.831 124.131V132.131ZM178.576 132.131H182.831V124.131H178.576V132.131ZM180.597 131.26C179.7 132.092 178.76 132.131 178.576 132.131V124.131C177.653 124.131 176.292 124.34 175.154 125.396L180.597 131.26ZM181.663 128.979C181.663 129.34 181.549 130.376 180.597 131.26L175.154 125.397C173.961 126.504 173.663 127.931 173.663 128.979H181.663ZM180.597 126.697C181.549 127.581 181.663 128.617 181.663 128.979H173.663C173.663 130.026 173.961 131.453 175.154 132.561L180.597 126.697ZM178.576 125.826C178.76 125.826 179.7 125.865 180.597 126.697L175.154 132.561C176.292 133.617 177.653 133.826 178.576 133.826V125.826ZM182.831 125.826H178.576V133.826H182.831V125.826ZM187.086 127.388C185.687 126.09 183.997 125.826 182.831 125.826V133.826C182.912 133.826 182.29 133.852 181.643 133.252L187.086 127.388ZM188.896 131.743C188.896 130.472 188.541 128.739 187.085 127.388L181.643 133.252C180.939 132.599 180.896 131.857 180.896 131.743H188.896ZM187.085 136.098C188.541 134.747 188.896 133.014 188.896 131.743H180.896C180.896 131.629 180.939 130.888 181.643 130.235L187.085 136.098ZM182.831 137.66C183.997 137.66 185.687 137.396 187.086 136.098L181.643 130.235C182.29 129.634 182.912 129.66 182.831 129.66V137.66ZM178.576 137.66H182.831V129.66H178.576V137.66ZM174.322 136.098C175.72 137.396 177.411 137.66 178.576 137.66V129.66C178.495 129.66 179.117 129.634 179.764 130.235L174.322 136.098ZM172.511 131.743C172.511 133.014 172.866 134.747 174.322 136.098L179.764 130.235C180.468 130.888 180.511 131.629 180.511 131.743H172.511ZM172.511 131.406V131.743H180.511V131.406H172.511ZM178.576 129.323C178.59 129.323 178.721 129.324 178.928 129.378C179.142 129.435 179.453 129.554 179.78 129.796C180.537 130.356 180.8 131.113 180.859 131.536L172.933 132.624C173.105 133.876 173.706 135.254 175.023 136.228C176.237 137.126 177.583 137.323 178.576 137.323V129.323ZM180.548 129.186C180.535 129.091 180.533 129.021 180.533 128.979H188.533C188.533 128.698 188.516 128.403 188.474 128.097L180.548 129.186ZM182.831 131.399C182.817 131.399 182.686 131.398 182.479 131.343C182.265 131.287 181.955 131.167 181.627 130.925C180.871 130.366 180.607 129.609 180.548 129.186L188.474 128.097C188.302 126.845 187.701 125.467 186.384 124.494C185.17 123.595 183.824 123.399 182.831 123.399V131.399ZM180.859 131.536C180.872 131.63 180.874 131.701 180.874 131.743H172.874C172.874 132.023 172.891 132.319 172.933 132.625L180.859 131.536ZM177.663 127.406H176.511V135.406H177.663V127.406ZM183.744 133.316H184.896V125.316H183.744V133.316ZM168.796 133.66V128.758H160.796V133.66H168.796ZM163.644 137.66H164.796V129.66H163.644V137.66ZM159.644 126.518V133.66H167.644V126.518H159.644ZM173.283 128.769L166.05 123.322L161.238 129.713L168.471 135.159L173.283 128.769ZM166.877 127.062V131.964H174.877V127.062H166.877ZM172.029 123.062H170.877V131.062H172.029V123.062ZM176.029 134.204V127.062H168.029V134.204H176.029ZM162.39 131.953L169.623 137.4L174.435 131.009L167.202 125.562L162.39 131.953ZM156.843 127.011H153.709V135.011H156.843V127.011ZM151.954 130.905L153.522 133.24L160.164 128.782L158.597 126.447L151.954 130.905ZM157.03 133.24L158.597 130.905L151.954 126.447L150.387 128.782L157.03 133.24ZM152.993 136.08H157.559V128.08H152.993V136.08ZM155.255 135.888L156.315 134.308L149.671 129.852L148.611 131.432L155.255 135.888ZM150.58 137.66H151.933V129.66H150.58V137.66ZM151.954 124.434L147.258 131.431L153.901 135.889L158.597 128.892L151.954 124.434ZM163.293 131.431L158.597 124.434L151.954 128.892L156.651 135.889L163.293 131.431ZM158.619 137.66H159.972V129.66H158.619V137.66ZM154.237 134.308L155.296 135.888L161.941 131.432L160.881 129.852L154.237 134.308ZM145.739 125.826H139.657V133.826H145.739V125.826ZM139.657 134.895H145.739V126.895H139.657V134.895ZM138.506 137.66H139.657V129.66H138.506V137.66ZM134.506 127.062V133.66H142.506V127.062H134.506ZM139.657 123.062H138.506V131.062H139.657V123.062ZM143.657 129.826V127.062H135.657V129.826H143.657ZM141.739 127.062V129.826H149.739V127.062H141.739ZM146.891 123.062H145.739V131.062H146.891V123.062ZM150.891 133.66V127.062H142.891V133.66H150.891ZM145.739 137.66H146.891V129.66H145.739V137.66ZM141.739 130.895V133.66H149.739V130.895H141.739ZM143.657 133.66V130.895H135.657V133.66H143.657ZM124.617 129.826V130.895H132.617V129.826H124.617ZM134.024 125.826H128.617V133.826H134.024V125.826ZM138.024 130.895V129.826H130.024V130.895H138.024ZM128.617 134.895H134.024V126.895H128.617V134.895ZM128.135 133.66V132.591H120.135V133.66H128.135ZM115.75 137.66H124.135V129.66H115.75V137.66ZM111.75 127.062V133.66H119.75V127.062H111.75ZM116.902 123.062H115.75V131.062H116.902V123.062ZM120.902 132.591V127.062H112.902V132.591H120.902ZM124.135 128.591H116.902V136.591H124.135V128.591ZM115.574 133.66V132.591H107.574V133.66H115.574ZM103.189 137.66H111.574V129.66H103.189V137.66ZM99.1894 127.062V133.66H107.189V127.062H99.1894ZM104.341 123.062H103.189V131.062H104.341V123.062ZM108.341 132.591V127.062H100.341V132.591H108.341ZM111.574 128.591H104.341V136.591H111.574V128.591ZM100.897 136.098C102.352 134.747 102.707 133.014 102.707 131.743H94.7075C94.7075 131.629 94.7508 130.888 95.4544 130.235L100.897 136.098ZM96.6424 137.66C97.8079 137.66 99.4983 137.396 100.897 136.098L95.4544 130.235C96.1014 129.634 96.7234 129.66 96.6424 129.66V137.66ZM92.3874 137.66H96.6424V129.66H92.3874V137.66ZM88.1329 136.098C89.5315 137.396 91.2219 137.66 92.3874 137.66V129.66C92.3064 129.66 92.9284 129.634 93.5754 130.235L88.1329 136.098ZM86.3223 131.743C86.3223 133.014 86.6778 134.747 88.1329 136.098L93.5755 130.235C94.279 130.888 94.3223 131.629 94.3223 131.743H86.3223ZM94.408 129.462C95.3601 130.346 95.474 131.382 95.474 131.743H87.474C87.474 132.791 87.7722 134.218 88.9656 135.325L94.408 129.462ZM92.3874 128.591C92.5712 128.591 93.5115 128.63 94.4081 129.462L88.9655 135.325C90.1034 136.381 91.4646 136.591 92.3874 136.591V128.591ZM96.6424 128.591H92.3874V136.591H96.6424V128.591ZM94.6217 129.462C95.5184 128.63 96.4586 128.591 96.6424 128.591V136.591C97.5652 136.591 98.9264 136.381 100.064 135.325L94.6217 129.462ZM93.5558 131.743C93.5558 131.382 93.6697 130.346 94.6218 129.462L100.064 135.325C101.258 134.218 101.556 132.791 101.556 131.743H93.5558ZM98.7075 123.062H97.5558V131.062H98.7075V123.062ZM102.707 131.743V127.062H94.7075V131.743H102.707ZM86.3223 127.062V131.743H94.3223V127.062H86.3223ZM91.474 123.062H90.3223V131.062H91.474V123.062ZM95.474 131.743V127.062H87.474V131.743H95.474ZM93.5558 127.062V131.743H101.556V127.062H93.5558ZM82.2737 133.435C81.528 132.703 81.4774 131.9 81.4774 131.743H89.4774C89.4774 130.562 89.1592 128.984 87.8785 127.726L82.2737 133.435ZM81.4774 128.979C81.4774 128.822 81.528 128.019 82.2737 127.287L87.8785 132.996C89.1592 131.738 89.4774 130.16 89.4774 128.979H81.4774ZM82.2737 127.287C82.497 127.068 82.7355 126.906 82.9614 126.792L86.5722 133.93C87.0335 133.697 87.4782 133.389 87.8785 132.996L82.2737 127.287ZM82.9614 133.93C82.7355 133.816 82.497 133.654 82.2737 133.435L87.8785 127.726C87.4782 127.333 87.0335 127.025 86.5722 126.792L82.9614 133.93ZM88.187 133.183C89.505 131.86 89.8404 130.216 89.8404 128.979H81.8404C81.8404 128.867 81.8772 128.182 82.5183 127.538L88.187 133.183ZM89.8404 128.979C89.8404 127.708 89.485 125.974 88.0299 124.624L82.5873 130.487C81.8838 129.834 81.8404 129.092 81.8404 128.979H89.8404ZM88.0299 124.624C86.6313 123.325 84.9409 123.062 83.7754 123.062V131.062C83.8564 131.062 83.2344 131.088 82.5873 130.487L88.0299 124.624ZM83.7754 137.66C84.9409 137.66 86.6313 137.396 88.0299 136.098L82.5873 130.235C83.2344 129.634 83.8564 129.66 83.7754 129.66V137.66ZM88.0299 136.098C89.485 134.747 89.8404 133.014 89.8404 131.743H81.8404C81.8404 131.629 81.8838 130.888 82.5873 130.235L88.0299 136.098ZM89.8404 131.743C89.8404 130.506 89.505 128.862 88.187 127.538L82.5183 133.183C81.8772 132.54 81.8404 131.854 81.8404 131.743H89.8404ZM80.6888 131.743C80.6888 131.382 80.8027 130.346 81.7547 129.462L87.1972 135.325C88.3906 134.218 88.6888 132.791 88.6888 131.743H80.6888ZM81.7547 134.025C80.8027 133.141 80.6888 132.105 80.6888 131.743H88.6888C88.6888 130.696 88.3906 129.269 87.1972 128.161L81.7547 134.025ZM83.7754 134.895C83.5916 134.895 82.6513 134.857 81.7547 134.025L87.1973 128.161C86.0594 127.105 84.6982 126.895 83.7754 126.895V134.895ZM78.607 134.895H83.7754V126.895H78.607V134.895ZM82.607 132.591V130.895H74.607V132.591H82.607ZM83.7754 128.591H78.607V136.591H83.7754V128.591ZM81.7547 129.462C82.6513 128.63 83.5916 128.591 83.7754 128.591V136.591C84.6982 136.591 86.0594 136.381 87.1973 135.325L81.7547 129.462ZM83.7754 132.131C83.5916 132.131 82.6513 132.092 81.7547 131.26L87.1973 125.397C86.0594 124.34 84.6982 124.131 83.7754 124.131V132.131ZM78.607 132.131H83.7754V124.131H78.607V132.131ZM82.607 129.826V128.131H74.607V129.826H82.607ZM83.7754 125.826H78.607V133.826H83.7754V125.826ZM81.7547 126.697C82.6513 125.865 83.5916 125.826 83.7754 125.826V133.826C84.6982 133.826 86.0594 133.617 87.1973 132.561L81.7547 126.697ZM80.6888 128.979C80.6888 128.617 80.8027 127.581 81.7547 126.697L87.1972 132.561C88.3906 131.453 88.6888 130.026 88.6888 128.979H80.6888ZM81.7547 131.26C80.8027 130.376 80.6888 129.34 80.6888 128.979H88.6888C88.6888 127.931 88.3906 126.504 87.1972 125.397L81.7547 131.26ZM83.7754 123.062H77.4553V131.062H83.7754V123.062ZM73.4553 127.062V133.66H81.4553V127.062H73.4553ZM77.4553 137.66H83.7754V129.66H77.4553V137.66Z" fill="black" mask="url(#path-3-outside-2_521_27)"/>
</svg>
