<svg width="246" height="68" viewBox="0 0 246 68" fill="none" xmlns="http://www.w3.org/2000/svg">
<path fill-rule="evenodd" clip-rule="evenodd" d="M23.2021 50.12C21.3497 50.8687 19.3366 51.2431 17.1626 51.2431C14.0568 51.2431 11.2783 50.4888 8.82705 48.9802C6.37576 47.4716 4.45132 45.4042 3.05375 42.7781C1.65618 40.1521 0.957397 37.1628 0.957397 33.8103C0.957397 30.4579 1.65618 27.4686 3.05375 24.8425C4.45132 22.2165 6.37576 20.1491 8.82705 18.6405C11.2783 17.1319 14.0568 16.3776 17.1626 16.3776C19.2478 16.3776 21.1889 16.7296 22.9858 17.4336C24.7826 18.1377 26.3799 19.1155 27.7774 20.367V0.285889H37.3608V50.5726H28.3099L28.0769 46.9519C26.6794 48.3153 25.0544 49.3713 23.2021 50.12ZM13.2693 40.2806C14.8665 42.0015 16.8852 42.862 19.3254 42.862C21.7656 42.862 23.7843 42.0015 25.3815 40.2806C26.9788 38.5597 27.7774 36.403 27.7774 33.8104C27.7774 31.2178 26.9788 29.0611 25.3815 27.3402C23.7843 25.6192 21.7656 24.7588 19.3254 24.7588C16.8852 24.7588 14.8665 25.6192 13.2693 27.3402C11.672 29.0611 10.8734 31.2178 10.8734 33.8104C10.8734 36.403 11.672 38.5597 13.2693 40.2806ZM62.4505 51.2431C64.7576 51.2431 67.1701 50.8632 69.688 50.1033C72.2058 49.3434 74.7514 47.9465 77.3247 45.9127L71.5348 38.9396C70.2925 40.1242 68.9115 41.0908 67.392 41.8395C65.8724 42.5882 63.959 42.9626 61.6519 42.9626C59.5001 42.9626 57.6201 42.3815 56.0117 41.2193C54.4034 40.0571 53.2998 38.5485 52.7008 36.6935H78.6557V33.7769C78.6557 30.4021 77.9015 27.4072 76.393 24.7923C74.8845 22.1774 72.827 20.1213 70.2204 18.6238C67.6138 17.1264 64.6356 16.3777 61.2859 16.3777C57.914 16.3777 54.9026 17.132 52.2516 18.6406C49.6007 20.1492 47.5099 22.2054 45.9792 24.8091C44.4485 27.4128 43.6832 30.3797 43.6832 33.7098C43.6832 37.0846 44.4818 40.0962 46.079 42.7447C47.6762 45.3931 49.8835 47.4716 52.7008 48.9802C55.5182 50.4888 58.7681 51.2431 62.4505 51.2431ZM52.5012 31.3296H68.8062C68.3403 29.3628 67.3864 27.776 65.9445 26.5691C64.5025 25.3622 62.7722 24.7588 60.7535 24.7588C58.7126 24.7588 56.9434 25.3734 55.446 26.6026C53.9487 27.8319 52.967 29.4075 52.5012 31.3296ZM103.446 50.5725L116.59 17.0481H106.507L100.95 33.3745C100.64 34.2685 100.279 35.5201 99.8688 37.1292C99.4584 38.7384 99.1201 40.2023 98.8539 41.5209H98.7208C98.499 40.2023 98.1939 38.7272 97.8057 37.0957C97.4175 35.4642 97.0681 34.2238 96.7575 33.3745L90.7347 17.0481H80.3194L94.1288 50.5725H103.446ZM129.134 9.53864C128.158 10.522 126.872 11.0137 125.275 11.0137C123.677 11.0137 122.391 10.522 121.415 9.53864C120.438 8.55525 119.95 7.25897 119.95 5.6498C119.95 4.04063 120.438 2.74435 121.415 1.76096C122.391 0.777581 123.677 0.285889 125.275 0.285889C126.872 0.285889 128.158 0.777581 129.134 1.76096C130.111 2.74435 130.599 4.04063 130.599 5.6498C130.599 7.25897 130.111 8.55525 129.134 9.53864ZM117.788 68.0053C121.758 68.0053 124.798 66.9381 126.905 64.8037C129.013 62.6693 130.066 59.613 130.066 55.6347V17.0481H120.483V54.5284C120.483 56.1153 119.978 57.3612 118.969 58.2664C117.96 59.1716 116.678 59.6241 115.126 59.6241C113.972 59.6241 112.785 59.3671 111.565 58.8531V66.7649C113.673 67.5918 115.747 68.0053 117.788 68.0053ZM162.743 48.9802C160.081 50.4888 157.042 51.2431 153.625 51.2431C150.209 51.2431 147.164 50.4888 144.491 48.9802C141.818 47.4716 139.711 45.4043 138.169 42.7782C136.627 40.1521 135.856 37.1628 135.856 33.8104C135.856 30.458 136.627 27.4687 138.169 24.8426C139.711 22.2165 141.818 20.1492 144.491 18.6406C147.164 17.132 150.209 16.3777 153.625 16.3777C157.042 16.3777 160.081 17.132 162.743 18.6406C165.405 20.1492 167.507 22.2165 169.048 24.8426C170.59 27.4687 171.361 30.458 171.361 33.8104C171.361 37.1628 170.59 40.1521 169.048 42.7782C167.507 45.4043 165.405 47.4716 162.743 48.9802ZM153.625 42.862C151.185 42.862 149.166 42.0015 147.569 40.2806C145.972 38.5597 145.173 36.403 145.173 33.8104C145.173 31.2178 145.972 29.0611 147.569 27.3402C149.166 25.6192 151.185 24.7588 153.625 24.7588C156.066 24.7588 158.084 25.6192 159.682 27.3402C161.279 29.0611 162.077 31.2178 162.077 33.8104C162.077 36.403 161.279 38.5597 159.682 40.2806C158.084 42.0015 156.066 42.862 153.625 42.862ZM206.234 48.9802C203.794 50.4888 201.01 51.2431 197.882 51.2431C195.73 51.2431 193.722 50.8687 191.859 50.12C189.995 49.3713 188.365 48.3153 186.967 46.9519L186.734 50.5726H177.683V0.285889H187.267V20.367C188.664 19.1155 190.262 18.1377 192.059 17.4336C193.855 16.7296 195.796 16.3776 197.882 16.3776C201.01 16.3776 203.794 17.1319 206.234 18.6405C208.674 20.1491 210.593 22.2165 211.991 24.8425C213.388 27.4686 214.087 30.4579 214.087 33.8103C214.087 37.1628 213.388 40.1521 211.991 42.7781C210.593 45.4042 208.674 47.4716 206.234 48.9802ZM195.719 42.862C193.279 42.862 191.26 42.0015 189.663 40.2806C188.065 38.5597 187.267 36.403 187.267 33.8104C187.267 31.2178 188.065 29.0611 189.663 27.3402C191.26 25.6192 193.279 24.7588 195.719 24.7588C198.159 24.7588 200.178 25.6192 201.775 27.3402C203.372 29.0611 204.171 31.2178 204.171 33.8104C204.171 36.403 203.372 38.5597 201.775 40.2806C200.178 42.0015 198.159 42.862 195.719 42.862ZM239.177 49.986C237.18 50.8241 234.973 51.2431 232.555 51.2431C230.27 51.2431 227.902 50.8408 225.45 50.0362C222.999 49.2317 220.653 47.9912 218.413 46.315L222.938 39.0402C224.846 40.3141 226.604 41.3255 228.212 42.0742C229.821 42.8229 231.257 43.1973 232.522 43.1973C233.498 43.1973 234.285 42.9738 234.884 42.5268C235.483 42.0798 235.783 41.5099 235.783 40.817C235.783 39.8113 235.222 38.9955 234.102 38.3697C232.982 37.7439 231.69 37.1293 230.226 36.5259C228.673 35.8777 227.114 35.1458 225.55 34.33C223.986 33.5143 222.678 32.4582 221.624 31.162C220.57 29.8657 220.043 28.1895 220.043 26.1333C220.043 23.2949 221.158 20.9594 223.387 19.1267C225.617 17.294 228.772 16.3777 232.854 16.3777C234.851 16.3777 236.953 16.6291 239.16 17.132C241.367 17.6349 243.38 18.445 245.199 19.5625L240.974 26.9044C239.997 26.2562 238.727 25.6807 237.163 25.1779C235.6 24.675 234.274 24.4236 233.187 24.4236C232.566 24.4236 231.884 24.5521 231.141 24.8091C230.397 25.0661 230.026 25.5634 230.026 26.3009C230.026 27.1279 230.542 27.8095 231.573 28.3459C232.605 28.8823 233.83 29.4299 235.25 29.9886C236.781 30.5921 238.356 31.3017 239.975 32.1174C241.595 32.9332 242.964 34.0171 244.085 35.3693C245.205 36.7214 245.765 38.4926 245.765 40.6829C245.765 42.8732 245.166 44.7617 243.968 46.3485C242.77 47.9354 241.173 49.1478 239.177 49.986Z" fill="white"/>
</svg>
