<svg width="117" height="76" viewBox="0 0 117 76" fill="none" xmlns="http://www.w3.org/2000/svg">
<path d="M46.7447 39.9246C48.2821 39.9246 49.5285 38.226 49.5285 36.1306C49.5285 34.0353 48.2821 32.3367 46.7447 32.3367C45.2072 32.3367 43.9608 34.0353 43.9608 36.1306C43.9608 38.226 45.2072 39.9246 46.7447 39.9246Z" fill="white"/>
<path d="M75.6966 39.9246C77.234 39.9246 78.4804 38.226 78.4804 36.1306C78.4804 34.0353 77.234 32.3367 75.6966 32.3367C74.1591 32.3367 72.9127 34.0353 72.9127 36.1306C72.9127 38.226 74.1591 39.9246 75.6966 39.9246Z" fill="white"/>
<path d="M15.9298 50.1505L21.0511 20.6501H27.5316L25.2941 33.2413L27.6973 29.1249L33.001 20.6501H40.6085L31.4762 34.2499L35.9512 50.1505H28.6917L25.8079 38.4874L24.2002 39.6174L22.4102 50.1505H15.9298ZM50.8559 50.1505L55.9771 20.6501H70.3632L69.2862 27.0465H61.3802L60.6012 31.6875H67.9603L66.7669 38.0841H59.4079L58.4632 43.6531H66.3692L65.242 50.1505H50.8559ZM88.5827 50.5543C87.3784 50.5543 86.2293 50.386 85.1353 50.0498C84.0527 49.7132 83.1189 49.2358 82.3343 48.6172V41.5545C83.2182 42.2136 84.257 42.799 85.4504 43.31C86.6546 43.8214 87.7652 44.0771 88.7818 44.0771C89.1905 44.0771 89.5497 44.0233 89.8591 43.9156C90.1685 43.808 90.428 43.6531 90.638 43.4516C90.8477 43.2497 91.0026 43.0009 91.1019 42.7047C91.2126 42.3952 91.2678 42.0526 91.2678 41.6755C91.2678 41.1779 91.1461 40.7138 90.9032 40.2834C90.66 39.8529 90.3287 39.4293 89.9086 39.0122C89.4999 38.5817 89.047 38.1177 88.5495 37.6201C87.8094 36.8801 87.1574 36.1065 86.5938 35.2994C86.0415 34.4923 85.6105 33.6111 85.3011 32.6559C85.0027 31.6875 84.8535 30.6046 84.8535 29.4074C84.8535 28.0756 85.0579 26.8515 85.467 25.7349C85.8757 24.6184 86.4559 23.6499 87.2073 22.8293C87.9696 21.9953 88.8755 21.3563 89.9252 20.9124C90.986 20.455 92.1574 20.2263 93.4391 20.2263C94.7427 20.2263 96.0025 20.4146 97.2178 20.7913C98.4444 21.168 99.5602 21.6993 100.566 22.3854L98.3284 28.3783C97.5547 27.9075 96.7426 27.4972 95.8919 27.1474C95.0521 26.7842 94.2566 26.6026 93.5052 26.6026C93.0413 26.6026 92.6655 26.6766 92.3784 26.8246C92.0909 26.9591 91.8699 27.1407 91.7154 27.3694C91.5605 27.5846 91.4502 27.82 91.3838 28.0756C91.3286 28.3312 91.301 28.5801 91.301 28.8222C91.301 29.2392 91.3728 29.6428 91.5163 30.0329C91.6712 30.4095 91.9417 30.8333 92.3285 31.3041C92.7153 31.7615 93.2623 32.3128 93.9695 32.9585C94.8644 33.7661 95.5934 34.5865 96.1571 35.4204C96.7316 36.2546 97.1517 37.1358 97.4168 38.0639C97.682 38.9786 97.8146 39.9876 97.8146 41.0905C97.8146 42.5567 97.6099 43.8752 97.2012 45.0456C96.7924 46.2156 96.1956 47.2113 95.4114 48.0318C94.6268 48.8522 93.6601 49.4781 92.5109 49.9086C91.3728 50.3391 90.0635 50.5543 88.5827 50.5543Z" fill="white"/>
<path d="M53.4035 35.6314L59.5502 19.6902L57.1069 33.3088H58.9392L52.869 50.0418L55.1978 35.0507L53.4035 35.6314Z" fill="#030712"/>
<path d="M101.056 2.57239C108.94 8.77297 114.161 16.5643 116.061 24.9613C117.961 33.3584 116.454 41.9837 111.731 49.7467C107.007 57.5093 99.2791 64.0615 89.5242 68.5741C79.769 73.0867 68.4251 75.3565 56.9268 75.0978C45.4284 74.8387 34.2921 72.0622 24.9261 67.1187C15.56 62.1756 8.38483 55.2877 4.30797 47.3266C0.231086 39.3651 -0.564396 30.6881 2.0221 22.3922C4.60858 14.0963 10.4609 6.55443 18.839 0.720215L21.5556 2.85701C13.7486 8.2936 8.29516 15.3215 5.88496 23.0519C3.47476 30.7823 4.21604 38.8679 8.01502 46.2866C11.814 53.7053 18.5001 60.1236 27.2278 64.73C35.9554 69.336 46.3329 71.9235 57.0473 72.165C67.7622 72.4065 78.3327 70.2908 87.4229 66.086C96.513 61.8812 103.714 55.7754 108.116 48.5418C112.517 41.3078 113.922 33.2706 112.151 25.4458C110.381 17.6212 105.515 10.3609 98.1692 4.58297L101.056 2.57239Z" fill="white"/>
</svg>
