<svg width="390" height="68" viewBox="0 0 390 68" fill="none" xmlns="http://www.w3.org/2000/svg">
<mask id="path-1-outside-1_30_114" maskUnits="userSpaceOnUse" x="0.401001" y="0.00830078" width="389" height="46" fill="black">
<rect fill="white" x="0.401001" y="0.00830078" width="389" height="46"/>
<path d="M20.5807 15.8908C23.0343 15.8908 25.3503 16.4584 27.5287 17.5935C29.73 18.7286 31.5185 20.3367 32.8944 22.4177C34.2931 24.4777 34.9925 26.9161 34.9925 29.7329C34.9925 32.5286 34.2472 35.009 32.7568 37.1742C31.2663 39.3393 29.2714 41.0419 26.772 42.2821C24.2725 43.5223 21.5094 44.1424 18.4826 44.1424C15.41 44.1424 12.6239 43.5433 10.1245 42.3452C7.62509 41.147 5.63015 39.4444 4.13967 37.2372C2.67213 35.009 1.93837 32.3815 1.93837 29.3545C1.93837 26.0543 2.53455 23.2796 3.72693 21.0304C4.91931 18.7601 6.29513 16.7527 7.85439 15.008L15.2839 17.4044C15.6508 17.026 16.2813 16.6791 17.1756 16.3638C18.0699 16.0485 19.2049 15.8908 20.5807 15.8908ZM18.4826 37.6471C20.0419 37.6471 21.4521 37.3003 22.7133 36.6066C23.9744 35.9129 24.9834 34.988 25.7401 33.8319C26.4968 32.6547 26.8751 31.3515 26.8751 29.9221C26.8751 28.5137 26.4968 27.2314 25.7401 26.0753C24.9834 24.9192 23.9744 23.9943 22.7133 23.3006C21.4521 22.6069 20.0419 22.2601 18.4826 22.2601C16.9463 22.2601 15.5361 22.6069 14.252 23.3006C12.9908 23.9943 11.9819 24.9192 11.2252 26.0753C10.4685 27.2314 10.0901 28.5137 10.0901 29.9221C10.0901 31.3515 10.4685 32.6547 11.2252 33.8319C11.9819 34.988 12.9908 35.9129 14.252 36.6066C15.5361 37.3003 16.9463 37.6471 18.4826 37.6471Z"/>
<path fill-rule="evenodd" clip-rule="evenodd" d="M15.2839 17.4044C15.6004 17.078 16.1132 16.775 16.8223 16.4955C16.9351 16.451 17.0528 16.4071 17.1756 16.3638C18.0699 16.0485 19.2049 15.8908 20.5807 15.8908C23.0343 15.8908 25.3503 16.4584 27.5287 17.5935C29.73 18.7286 31.5185 20.3367 32.8944 22.4177C34.2931 24.4777 34.9925 26.9161 34.9925 29.7329C34.9925 32.5286 34.2472 35.009 32.7568 37.1742C31.2663 39.3393 29.2714 41.0419 26.772 42.2821C24.2725 43.5223 21.5094 44.1424 18.4826 44.1424C15.41 44.1424 12.6239 43.5433 10.1245 42.3452C7.62509 41.147 5.63015 39.4444 4.13967 37.2372C2.67213 35.009 1.93837 32.3815 1.93837 29.3545C1.93837 26.0543 2.53455 23.2796 3.72693 21.0304C4.91931 18.7601 6.29513 16.7527 7.85439 15.008L19.5489 1.76505H29.6612L15.2839 17.4044ZM7.43774 14.6969L7.43874 14.6958L19.2926 1.27238H30.817L17.517 15.7398C18.3882 15.5081 19.4134 15.3982 20.5808 15.3982C23.1291 15.3982 25.536 15.9887 27.7933 17.1647C30.078 18.343 31.9316 20.0118 33.3524 22.16C34.8111 24.3094 35.53 26.8403 35.53 29.7329C35.53 32.6128 34.7609 35.1861 33.2113 37.4371C31.6708 39.675 29.6068 41.4358 27.0278 42.7155C24.4448 43.9972 21.5928 44.6352 18.4827 44.6352C15.3312 44.6352 12.4585 44.0201 9.87552 42.7818C7.29037 41.5426 5.22377 39.7785 3.68279 37.4966L3.67964 37.4919C2.15373 35.1751 1.401 32.4564 1.401 29.3545C1.401 26.0029 2.00607 23.1498 3.24325 20.8158C4.45163 18.5152 5.84914 16.4746 7.43774 14.6969ZM18.4827 37.1545C19.9506 37.1545 21.2643 36.8291 22.4368 36.1842C23.6218 35.5324 24.5671 34.6661 25.2783 33.58C25.9832 32.4827 26.3378 31.267 26.3378 29.9221C26.3378 28.5989 25.9836 27.4049 25.2793 26.3288C24.568 25.242 23.6224 24.3752 22.4368 23.7231C21.2643 23.0781 19.9506 22.7528 18.4827 22.7528C17.04 22.7528 15.7251 23.0771 14.5268 23.724C13.3421 24.376 12.397 25.2426 11.6861 26.3288C10.9818 27.4049 10.6276 28.5989 10.6276 29.9221C10.6276 31.2671 10.9822 32.4827 11.6871 33.5801C12.398 34.6656 13.3427 35.5316 14.5268 36.1832C15.7251 36.8301 17.04 37.1545 18.4827 37.1545ZM14.252 36.6066C12.9908 35.9129 11.9819 34.988 11.2252 33.8319C10.4685 32.6547 10.0901 31.3515 10.0901 29.9221C10.0901 28.5137 10.4685 27.2314 11.2252 26.0753C11.9819 24.9192 12.9908 23.9943 14.252 23.3006C15.5361 22.6069 16.9463 22.2601 18.4826 22.2601C20.0419 22.2601 21.4521 22.6069 22.7133 23.3006C23.9744 23.9943 24.9834 24.9192 25.7401 26.0753C26.4968 27.2314 26.8751 28.5137 26.8751 29.9221C26.8751 31.3515 26.4968 32.6547 25.7401 33.8319C24.9834 34.988 23.9744 35.9129 22.7133 36.6066C21.4521 37.3003 20.0419 37.6471 18.4826 37.6471C16.9463 37.6471 15.5361 37.3003 14.252 36.6066Z"/>
<path d="M102.5 1.76504H111.133L128.606 43.3858H119.457L115.914 34.3995H97.7531L94.1416 43.3858H84.958L102.5 1.76504ZM100.574 27.4312H113.094L106.868 11.2874H106.765L100.574 27.4312Z"/>
<path d="M52.306 1.76504H60.9049V36.4174H77.9306V43.3858H52.306V1.76504Z"/>
<path fill-rule="evenodd" clip-rule="evenodd" d="M289.812 8.24926H262.252V2.33723H289.812V8.24926ZM289.812 25.6646H262.252V19.7525H289.812V25.6646ZM289.812 43.5704H262.252V37.6584H289.812V43.5704Z"/>
<path d="M197.922 22.0709L215.67 43.3858H205.385L190.286 24.7826V43.3858H181.687V1.76504H190.286V19.58L204.285 1.76504H214.019L197.922 22.0709Z"/>
<path d="M158.683 36.3544C161.067 36.3544 163.188 36.0496 165.046 35.44C166.903 34.8094 168.268 34.1893 169.139 33.5797L172.819 40.2957C171.764 41.1366 169.941 41.9879 167.35 42.8497C164.782 43.7116 161.709 44.1425 158.132 44.1425C154.785 44.1425 151.655 43.6065 148.742 42.5344C145.83 41.4414 143.273 39.9279 141.072 37.994C138.871 36.0391 137.151 33.7584 135.913 31.1518C134.675 28.5242 134.055 25.6864 134.055 22.6385C134.055 19.5905 134.663 16.7527 135.878 14.1251C137.117 11.4765 138.836 9.17479 141.038 7.21988C143.239 5.26497 145.796 3.74098 148.708 2.64791C151.643 1.55484 154.785 1.0083 158.132 1.0083C161.709 1.0083 164.782 1.43922 167.35 2.30107C169.941 3.16291 171.764 4.01424 172.819 4.85507L169.139 11.5711C168.268 10.9615 166.903 10.3519 165.046 9.74235C163.188 9.11173 161.067 8.79642 158.683 8.79642C156.252 8.79642 154.085 9.15377 152.182 9.86847C150.302 10.5832 148.697 11.5816 147.367 12.8639C146.06 14.1251 145.062 15.5861 144.374 17.2467C143.686 18.9073 143.342 20.673 143.342 22.5439C143.342 24.4357 143.686 26.2225 144.374 27.9041C145.062 29.5647 146.06 31.0362 147.367 32.3184C148.697 33.5797 150.302 34.5676 152.182 35.2823C154.085 35.997 156.252 36.3544 158.683 36.3544Z"/>
<path d="M231.799 8.73336H220.414V1.76504H251.748V8.73336H240.398V43.3858H231.799V8.73336Z"/>
<path d="M329.702 36.3544C332.086 36.3544 334.207 36.0496 336.065 35.44C337.922 34.8094 339.287 34.1893 340.158 33.5797L343.838 40.2957C342.783 41.1366 340.961 41.9879 338.369 42.8497C335.801 43.7116 332.728 44.1425 329.151 44.1425C325.804 44.1425 322.674 43.6065 319.761 42.5344C316.849 41.4414 314.292 39.9279 312.091 37.994C309.89 36.0391 308.17 33.7584 306.932 31.1518C305.694 28.5242 305.074 25.6864 305.074 22.6385C305.074 19.5905 305.682 16.7527 306.897 14.1251C308.136 11.4765 309.855 9.17479 312.057 7.21988C314.258 5.26497 316.815 3.74098 319.727 2.64791C322.662 1.55484 325.804 1.0083 329.151 1.0083C332.728 1.0083 335.801 1.43922 338.369 2.30107C340.961 3.16291 342.783 4.01424 343.838 4.85507L340.158 11.5711C339.287 10.9615 337.922 10.3519 336.065 9.74235C334.207 9.11173 332.086 8.79642 329.702 8.79642C327.271 8.79642 325.104 9.15377 323.201 9.86847C321.321 10.5832 319.716 11.5816 318.386 12.8639C317.079 14.1251 316.081 15.5861 315.393 17.2467C314.705 18.9073 314.361 20.673 314.361 22.5439C314.361 24.4357 314.705 26.2225 315.393 27.9041C316.081 29.5647 317.079 31.0362 318.386 32.3184C319.716 33.5797 321.321 34.5676 323.201 35.2823C325.104 35.997 327.271 36.3544 329.702 36.3544Z"/>
<path d="M379.741 25.9807H361.717V43.3858H353.187V1.76504H361.717V19.0439H379.741V1.76504H388.271V43.3858H379.741V25.9807Z"/>
</mask>
<path d="M20.5807 15.8908C23.0343 15.8908 25.3503 16.4584 27.5287 17.5935C29.73 18.7286 31.5185 20.3367 32.8944 22.4177C34.2931 24.4777 34.9925 26.9161 34.9925 29.7329C34.9925 32.5286 34.2472 35.009 32.7568 37.1742C31.2663 39.3393 29.2714 41.0419 26.772 42.2821C24.2725 43.5223 21.5094 44.1424 18.4826 44.1424C15.41 44.1424 12.6239 43.5433 10.1245 42.3452C7.62509 41.147 5.63015 39.4444 4.13967 37.2372C2.67213 35.009 1.93837 32.3815 1.93837 29.3545C1.93837 26.0543 2.53455 23.2796 3.72693 21.0304C4.91931 18.7601 6.29513 16.7527 7.85439 15.008L15.2839 17.4044C15.6508 17.026 16.2813 16.6791 17.1756 16.3638C18.0699 16.0485 19.2049 15.8908 20.5807 15.8908ZM18.4826 37.6471C20.0419 37.6471 21.4521 37.3003 22.7133 36.6066C23.9744 35.9129 24.9834 34.988 25.7401 33.8319C26.4968 32.6547 26.8751 31.3515 26.8751 29.9221C26.8751 28.5137 26.4968 27.2314 25.7401 26.0753C24.9834 24.9192 23.9744 23.9943 22.7133 23.3006C21.4521 22.6069 20.0419 22.2601 18.4826 22.2601C16.9463 22.2601 15.5361 22.6069 14.252 23.3006C12.9908 23.9943 11.9819 24.9192 11.2252 26.0753C10.4685 27.2314 10.0901 28.5137 10.0901 29.9221C10.0901 31.3515 10.4685 32.6547 11.2252 33.8319C11.9819 34.988 12.9908 35.9129 14.252 36.6066C15.5361 37.3003 16.9463 37.6471 18.4826 37.6471Z" fill="black"/>
<path fill-rule="evenodd" clip-rule="evenodd" d="M15.2839 17.4044C15.6004 17.078 16.1132 16.775 16.8223 16.4955C16.9351 16.451 17.0528 16.4071 17.1756 16.3638C18.0699 16.0485 19.2049 15.8908 20.5807 15.8908C23.0343 15.8908 25.3503 16.4584 27.5287 17.5935C29.73 18.7286 31.5185 20.3367 32.8944 22.4177C34.2931 24.4777 34.9925 26.9161 34.9925 29.7329C34.9925 32.5286 34.2472 35.009 32.7568 37.1742C31.2663 39.3393 29.2714 41.0419 26.772 42.2821C24.2725 43.5223 21.5094 44.1424 18.4826 44.1424C15.41 44.1424 12.6239 43.5433 10.1245 42.3452C7.62509 41.147 5.63015 39.4444 4.13967 37.2372C2.67213 35.009 1.93837 32.3815 1.93837 29.3545C1.93837 26.0543 2.53455 23.2796 3.72693 21.0304C4.91931 18.7601 6.29513 16.7527 7.85439 15.008L19.5489 1.76505H29.6612L15.2839 17.4044ZM7.43774 14.6969L7.43874 14.6958L19.2926 1.27238H30.817L17.517 15.7398C18.3882 15.5081 19.4134 15.3982 20.5808 15.3982C23.1291 15.3982 25.536 15.9887 27.7933 17.1647C30.078 18.343 31.9316 20.0118 33.3524 22.16C34.8111 24.3094 35.53 26.8403 35.53 29.7329C35.53 32.6128 34.7609 35.1861 33.2113 37.4371C31.6708 39.675 29.6068 41.4358 27.0278 42.7155C24.4448 43.9972 21.5928 44.6352 18.4827 44.6352C15.3312 44.6352 12.4585 44.0201 9.87552 42.7818C7.29037 41.5426 5.22377 39.7785 3.68279 37.4966L3.67964 37.4919C2.15373 35.1751 1.401 32.4564 1.401 29.3545C1.401 26.0029 2.00607 23.1498 3.24325 20.8158C4.45163 18.5152 5.84914 16.4746 7.43774 14.6969ZM18.4827 37.1545C19.9506 37.1545 21.2643 36.8291 22.4368 36.1842C23.6218 35.5324 24.5671 34.6661 25.2783 33.58C25.9832 32.4827 26.3378 31.267 26.3378 29.9221C26.3378 28.5989 25.9836 27.4049 25.2793 26.3288C24.568 25.242 23.6224 24.3752 22.4368 23.7231C21.2643 23.0781 19.9506 22.7528 18.4827 22.7528C17.04 22.7528 15.7251 23.0771 14.5268 23.724C13.3421 24.376 12.397 25.2426 11.6861 26.3288C10.9818 27.4049 10.6276 28.5989 10.6276 29.9221C10.6276 31.2671 10.9822 32.4827 11.6871 33.5801C12.398 34.6656 13.3427 35.5316 14.5268 36.1832C15.7251 36.8301 17.04 37.1545 18.4827 37.1545ZM14.252 36.6066C12.9908 35.9129 11.9819 34.988 11.2252 33.8319C10.4685 32.6547 10.0901 31.3515 10.0901 29.9221C10.0901 28.5137 10.4685 27.2314 11.2252 26.0753C11.9819 24.9192 12.9908 23.9943 14.252 23.3006C15.5361 22.6069 16.9463 22.2601 18.4826 22.2601C20.0419 22.2601 21.4521 22.6069 22.7133 23.3006C23.9744 23.9943 24.9834 24.9192 25.7401 26.0753C26.4968 27.2314 26.8751 28.5137 26.8751 29.9221C26.8751 31.3515 26.4968 32.6547 25.7401 33.8319C24.9834 34.988 23.9744 35.9129 22.7133 36.6066C21.4521 37.3003 20.0419 37.6471 18.4826 37.6471C16.9463 37.6471 15.5361 37.3003 14.252 36.6066Z" fill="black"/>
<path d="M102.5 1.76504H111.133L128.606 43.3858H119.457L115.914 34.3995H97.7531L94.1416 43.3858H84.958L102.5 1.76504ZM100.574 27.4312H113.094L106.868 11.2874H106.765L100.574 27.4312Z" fill="black"/>
<path d="M52.306 1.76504H60.9049V36.4174H77.9306V43.3858H52.306V1.76504Z" fill="black"/>
<path d="M197.922 22.0709L215.67 43.3858H205.385L190.286 24.7826V43.3858H181.687V1.76504H190.286V19.58L204.285 1.76504H214.019L197.922 22.0709Z" fill="black"/>
<path d="M158.683 36.3544C161.067 36.3544 163.188 36.0496 165.046 35.44C166.903 34.8094 168.268 34.1893 169.139 33.5797L172.819 40.2957C171.764 41.1366 169.941 41.9879 167.35 42.8497C164.782 43.7116 161.709 44.1425 158.132 44.1425C154.785 44.1425 151.655 43.6065 148.742 42.5344C145.83 41.4414 143.273 39.9279 141.072 37.994C138.871 36.0391 137.151 33.7584 135.913 31.1518C134.675 28.5242 134.055 25.6864 134.055 22.6385C134.055 19.5905 134.663 16.7527 135.878 14.1251C137.117 11.4765 138.836 9.17479 141.038 7.21988C143.239 5.26497 145.796 3.74098 148.708 2.64791C151.643 1.55484 154.785 1.0083 158.132 1.0083C161.709 1.0083 164.782 1.43922 167.35 2.30107C169.941 3.16291 171.764 4.01424 172.819 4.85507L169.139 11.5711C168.268 10.9615 166.903 10.3519 165.046 9.74235C163.188 9.11173 161.067 8.79642 158.683 8.79642C156.252 8.79642 154.085 9.15377 152.182 9.86847C150.302 10.5832 148.697 11.5816 147.367 12.8639C146.06 14.1251 145.062 15.5861 144.374 17.2467C143.686 18.9073 143.342 20.673 143.342 22.5439C143.342 24.4357 143.686 26.2225 144.374 27.9041C145.062 29.5647 146.06 31.0362 147.367 32.3184C148.697 33.5797 150.302 34.5676 152.182 35.2823C154.085 35.997 156.252 36.3544 158.683 36.3544Z" fill="black"/>
<path d="M231.799 8.73336H220.414V1.76504H251.748V8.73336H240.398V43.3858H231.799V8.73336Z" fill="black"/>
<path d="M329.702 36.3544C332.086 36.3544 334.207 36.0496 336.065 35.44C337.922 34.8094 339.287 34.1893 340.158 33.5797L343.838 40.2957C342.783 41.1366 340.961 41.9879 338.369 42.8497C335.801 43.7116 332.728 44.1425 329.151 44.1425C325.804 44.1425 322.674 43.6065 319.761 42.5344C316.849 41.4414 314.292 39.9279 312.091 37.994C309.89 36.0391 308.17 33.7584 306.932 31.1518C305.694 28.5242 305.074 25.6864 305.074 22.6385C305.074 19.5905 305.682 16.7527 306.897 14.1251C308.136 11.4765 309.855 9.17479 312.057 7.21988C314.258 5.26497 316.815 3.74098 319.727 2.64791C322.662 1.55484 325.804 1.0083 329.151 1.0083C332.728 1.0083 335.801 1.43922 338.369 2.30107C340.961 3.16291 342.783 4.01424 343.838 4.85507L340.158 11.5711C339.287 10.9615 337.922 10.3519 336.065 9.74235C334.207 9.11173 332.086 8.79642 329.702 8.79642C327.271 8.79642 325.104 9.15377 323.201 9.86847C321.321 10.5832 319.716 11.5816 318.386 12.8639C317.079 14.1251 316.081 15.5861 315.393 17.2467C314.705 18.9073 314.361 20.673 314.361 22.5439C314.361 24.4357 314.705 26.2225 315.393 27.9041C316.081 29.5647 317.079 31.0362 318.386 32.3184C319.716 33.5797 321.321 34.5676 323.201 35.2823C325.104 35.997 327.271 36.3544 329.702 36.3544Z" fill="black"/>
<path d="M379.741 25.9807H361.717V43.3858H353.187V1.76504H361.717V19.0439H379.741V1.76504H388.271V43.3858H379.741V25.9807Z" fill="black"/>
<path d="M27.5287 17.5935L27.2976 18.0369L27.2995 18.0379L27.5287 17.5935ZM32.8944 22.4177L32.4772 22.6935L32.4807 22.6986L32.8944 22.4177ZM26.772 42.2821L26.9942 42.73L26.772 42.2821ZM4.13967 37.2372L3.72208 37.5123L3.7253 37.517L4.13967 37.2372ZM3.72693 21.0304L4.16869 21.2645L4.16958 21.2628L3.72693 21.0304ZM25.7401 33.8319L26.1585 34.1057L26.1607 34.1023L25.7401 33.8319ZM22.7133 23.3006L22.4723 23.7387L22.7133 23.3006ZM14.252 23.3006L14.0143 22.8606L14.011 22.8625L14.252 23.3006ZM11.2252 26.0753L11.6435 26.3491L11.2252 26.0753ZM11.2252 33.8319L10.8046 34.1023L10.8068 34.1057L11.2252 33.8319ZM14.252 36.6066L14.011 37.0447L14.0143 37.0465L14.252 36.6066ZM20.5807 16.3908C22.9538 16.3908 25.1905 16.9389 27.2976 18.0369L27.7597 17.1501C25.5101 15.9778 23.1148 15.3908 20.5807 15.3908V16.3908ZM27.2995 18.0379C29.4242 19.1335 31.1483 20.6833 32.4773 22.6935L33.3114 22.142C31.8888 19.9901 30.0357 18.3237 27.7578 17.1491L27.2995 18.0379ZM32.4807 22.6986C33.816 24.6652 34.4925 27.0027 34.4925 29.7329H35.4925C35.4925 26.8296 34.7702 24.2903 33.308 22.1368L32.4807 22.6986ZM34.4925 29.7329C34.4925 32.4342 33.7742 34.8144 32.3449 36.8906L33.1686 37.4577C34.7202 35.2037 35.4925 32.6231 35.4925 29.7329H34.4925ZM32.3449 36.8906C30.9056 38.9814 28.9778 40.6294 26.5497 41.8342L26.9942 42.73C29.5649 41.4544 31.627 39.6971 33.1686 37.4577L32.3449 36.8906ZM26.5497 41.8342C24.1251 43.0373 21.439 43.6424 18.4826 43.6424V44.6424C21.5799 44.6424 24.42 44.0073 26.9942 42.73L26.5497 41.8342ZM18.4826 43.6424C15.4766 43.6424 12.7656 43.0568 10.3406 41.8943L9.90836 42.796C12.4823 44.0299 15.3433 44.6424 18.4826 44.6424V43.6424ZM10.3406 41.8943C7.91792 40.7329 5.99273 39.0879 4.55404 36.9574L3.7253 37.517C5.26756 39.8009 7.33227 41.5611 9.90836 42.796L10.3406 41.8943ZM4.55724 36.9622C3.15047 34.8263 2.43837 32.2973 2.43837 29.3545H1.43837C1.43837 32.4657 2.19379 35.1918 3.7221 37.5122L4.55724 36.9622ZM2.43837 29.3545C2.43837 26.1125 3.02421 23.4234 4.16869 21.2645L3.28517 20.7962C2.04489 23.1357 1.43837 25.9961 1.43837 29.3545H2.43837ZM4.16958 21.2628C5.3447 19.0255 6.69773 17.0525 8.2272 15.3411L7.48158 14.6748C5.89252 16.4528 4.49391 18.4948 3.28427 20.7979L4.16958 21.2628ZM17.3419 16.8353C18.1645 16.5453 19.2383 16.3908 20.5807 16.3908V15.3908C19.1715 15.3908 17.9753 15.5517 17.0093 15.8922L17.3419 16.8353ZM18.4826 38.1471C20.1189 38.1471 21.6132 37.7823 22.9542 37.0447L22.4723 36.1685C21.291 36.8182 19.9648 37.1471 18.4826 37.1471V38.1471ZM22.9542 37.0447C24.284 36.3133 25.355 35.3332 26.1584 34.1057L25.3217 33.5581C24.6117 34.6429 23.6649 35.5126 22.4723 36.1685L22.9542 37.0447ZM26.1607 34.1023C26.9704 32.8426 27.3751 31.4451 27.3751 29.9221H26.3751C26.3751 31.2578 26.0232 32.4668 25.3195 33.5615L26.1607 34.1023ZM27.3751 29.9221C27.3751 28.4184 26.9695 27.0406 26.1584 25.8015L25.3217 26.3491C26.0241 27.4222 26.3751 28.609 26.3751 29.9221H27.3751ZM26.1584 25.8015C25.355 24.574 24.284 23.5939 22.9542 22.8625L22.4723 23.7387C23.6649 24.3946 24.6117 25.2643 25.3217 26.3491L26.1584 25.8015ZM22.9542 22.8625C21.6132 22.1248 20.1189 21.7601 18.4826 21.7601V22.7601C19.9648 22.7601 21.291 23.0889 22.4723 23.7387L22.9542 22.8625ZM18.4826 21.7601C16.8678 21.7601 15.3753 22.1255 14.0143 22.8607L14.4896 23.7405C15.6968 23.0883 17.0247 22.7601 18.4826 22.7601V21.7601ZM14.011 22.8625C12.6812 23.5939 11.6102 24.574 10.8068 25.8015L11.6435 26.3491C12.3535 25.2643 13.3004 24.3946 14.4929 23.7387L14.011 22.8625ZM10.8068 25.8015C9.99576 27.0406 9.59011 28.4184 9.59011 29.9221H10.5901C10.5901 28.609 10.9412 27.4222 11.6435 26.3491L10.8068 25.8015ZM9.59011 29.9221C9.59011 31.4452 9.99486 32.8426 10.8046 34.1023L11.6458 33.5615C10.9421 32.4668 10.5901 31.2578 10.5901 29.9221H9.59011ZM10.8068 34.1057C11.6102 35.3332 12.6812 36.3133 14.011 37.0447L14.4929 36.1685C13.3004 35.5126 12.3535 34.6429 11.6435 33.5581L10.8068 34.1057ZM14.0143 37.0465C15.3753 37.7817 16.8678 38.1471 18.4826 38.1471V37.1471C17.0247 37.1471 15.6968 36.8188 14.4896 36.1667L14.0143 37.0465ZM7.85439 15.008L7.10483 14.346L6.09388 15.4908L7.54741 15.9597L7.85439 15.008ZM15.2839 17.4044L14.9769 18.3561L15.5688 18.547L16.0018 18.1005L15.2839 17.4044ZM16.8223 16.4955L17.189 17.4258H17.189L16.8223 16.4955ZM19.5489 1.76505V0.765054H19.0979L18.7994 1.10313L19.5489 1.76505ZM29.6612 1.76505L30.3974 2.44183L31.9389 0.765054H29.6612V1.76505ZM7.43774 14.6969L8.18339 15.3632L8.18379 15.3628L7.43774 14.6969ZM7.43874 14.6958L8.1848 15.3617L8.18831 15.3577L7.43874 14.6958ZM19.2926 1.27238V0.272384H18.8415L18.543 0.61046L19.2926 1.27238ZM30.817 1.27238L31.5532 1.94916L33.0946 0.272384H30.817V1.27238ZM17.517 15.7398L16.7808 15.063L14.4601 17.5874L17.774 16.7062L17.517 15.7398ZM27.7933 17.1647L27.3312 18.0516L27.3349 18.0534L27.7933 17.1647ZM33.3524 22.16L32.5183 22.7116L32.5249 22.7215L33.3524 22.16ZM33.2113 37.4371L32.3876 36.8701L33.2113 37.4371ZM27.0278 42.7155L27.4723 43.6113H27.4723L27.0278 42.7155ZM9.87552 42.7818L10.3078 41.8801H10.3078L9.87552 42.7818ZM3.68279 37.4966L4.51152 36.9369L4.51145 36.9368L3.68279 37.4966ZM3.67964 37.4919L2.84445 38.042L2.85098 38.0517L3.67964 37.4919ZM3.24325 20.8158L4.12681 21.2841L4.12855 21.2808L3.24325 20.8158ZM22.4368 36.1842L21.9549 35.308L22.4368 36.1842ZM25.2783 33.58L26.1149 34.1278L26.1196 34.1205L25.2783 33.58ZM25.2793 26.3288L24.4426 26.8765V26.8765L25.2793 26.3288ZM22.4368 23.7231L21.9549 24.5993L21.9549 24.5993L22.4368 23.7231ZM14.5268 23.724L14.0517 22.8441L14.0447 22.8479L14.5268 23.724ZM11.6861 26.3288L10.8494 25.7812H10.8494L11.6861 26.3288ZM11.6871 33.5801L10.8457 34.1206L10.8505 34.1279L11.6871 33.5801ZM14.5268 36.1832L14.0447 37.0594L14.0518 37.0632L14.5268 36.1832ZM102.5 1.76504V0.765043H101.836L101.578 1.37666L102.5 1.76504ZM111.133 1.76504L112.055 1.37796L111.798 0.765043H111.133V1.76504ZM128.606 43.3858V44.3858H130.11L129.528 42.9987L128.606 43.3858ZM119.457 43.3858L118.526 43.7525L118.776 44.3858H119.457V43.3858ZM115.914 34.3995L116.844 34.0327L116.595 33.3995H115.914V34.3995ZM97.7531 34.3995V33.3995H97.0773L96.8253 34.0266L97.7531 34.3995ZM94.1416 43.3858V44.3858H94.8175L95.0695 43.7587L94.1416 43.3858ZM84.958 43.3858L84.0365 42.9974L83.4513 44.3858H84.958V43.3858ZM100.574 27.4312L99.6399 27.0731L99.1191 28.4312H100.574V27.4312ZM113.094 27.4312V28.4312H114.551L114.027 27.0713L113.094 27.4312ZM106.868 11.2874L107.801 10.9276L107.554 10.2874H106.868V11.2874ZM106.765 11.2874V10.2874H106.077L105.831 10.9293L106.765 11.2874ZM52.306 1.76504V0.765043H51.306V1.76504H52.306ZM60.9049 1.76504H61.9049V0.765043H60.9049V1.76504ZM60.9049 36.4174H59.9049V37.4174H60.9049V36.4174ZM77.9306 36.4174H78.9306V35.4174H77.9306V36.4174ZM77.9306 43.3858V44.3858H78.9306V43.3858H77.9306ZM52.306 43.3858H51.306V44.3858H52.306V43.3858ZM262.252 8.24926H261.252V9.24926H262.252V8.24926ZM289.812 8.24926V9.24926H290.812V8.24926H289.812ZM262.252 2.33723V1.33723H261.252V2.33723H262.252ZM289.812 2.33723H290.812V1.33723H289.812V2.33723ZM262.252 25.6646H261.252V26.6646H262.252V25.6646ZM289.812 25.6646V26.6646H290.812V25.6646H289.812ZM262.252 19.7525V18.7525H261.252V19.7525H262.252ZM289.812 19.7525H290.812V18.7525H289.812V19.7525ZM262.252 43.5704H261.252V44.5704H262.252V43.5704ZM289.812 43.5704V44.5704H290.812V43.5704H289.812ZM262.252 37.6584V36.6584H261.252V37.6584H262.252ZM289.812 37.6584H290.812V36.6584H289.812V37.6584ZM197.922 22.0709L197.138 21.4497L196.633 22.0864L197.153 22.7108L197.922 22.0709ZM215.67 43.3858V44.3858H217.804L216.438 42.7459L215.67 43.3858ZM205.385 43.3858L204.609 44.016L204.909 44.3858H205.385V43.3858ZM190.286 24.7826L191.062 24.1524L189.286 21.9637V24.7826H190.286ZM190.286 43.3858V44.3858H191.286V43.3858H190.286ZM181.687 43.3858H180.687V44.3858H181.687V43.3858ZM181.687 1.76504V0.765043H180.687V1.76504H181.687ZM190.286 1.76504H191.286V0.765043H190.286V1.76504ZM190.286 19.58H189.286V22.471L191.072 20.1978L190.286 19.58ZM204.285 1.76504V0.765043H203.799L203.498 1.14718L204.285 1.76504ZM214.019 1.76504L214.802 2.38626L216.087 0.765043H214.019V1.76504ZM165.046 35.44L165.358 36.3902L165.367 36.3869L165.046 35.44ZM169.139 33.5797L170.016 33.0991L169.48 32.1208L168.566 32.7603L169.139 33.5797ZM172.819 40.2957L173.443 41.0777L174.101 40.5532L173.696 39.8152L172.819 40.2957ZM167.35 42.8497L167.035 41.9009L167.032 41.9017L167.35 42.8497ZM148.742 42.5344L148.391 43.4707L148.397 43.4729L148.742 42.5344ZM141.072 37.994L140.408 38.7417L140.412 38.7453L141.072 37.994ZM135.913 31.1518L135.008 31.5781L135.01 31.5809L135.913 31.1518ZM135.878 14.1251L134.973 13.7016L134.971 13.7053L135.878 14.1251ZM141.038 7.21988L140.374 6.47216V6.47216L141.038 7.21988ZM148.708 2.64791L148.359 1.71078L148.357 1.71168L148.708 2.64791ZM167.35 2.30107L167.032 3.24911L167.035 3.24995L167.35 2.30107ZM172.819 4.85507L173.696 5.33563L174.101 4.59766L173.443 4.07311L172.819 4.85507ZM169.139 11.5711L168.566 12.3905L169.48 13.03L170.016 12.0517L169.139 11.5711ZM165.046 9.74235L164.724 10.6893L164.734 10.6925L165.046 9.74235ZM152.182 9.86847L151.83 8.93229L151.827 8.93372L152.182 9.86847ZM147.367 12.8639L146.672 12.144L146.672 12.1443L147.367 12.8639ZM144.374 27.9041L143.449 28.2827L143.45 28.2868L144.374 27.9041ZM147.367 32.3184L146.666 33.0323L146.672 33.0382L146.678 33.044L147.367 32.3184ZM152.182 35.2823L151.827 36.2171L151.83 36.2185L152.182 35.2823ZM231.799 8.73336H232.799V7.73336H231.799V8.73336ZM220.414 8.73336H219.414V9.73336H220.414V8.73336ZM220.414 1.76504V0.765043H219.414V1.76504H220.414ZM251.748 1.76504H252.748V0.765043H251.748V1.76504ZM251.748 8.73336V9.73336H252.748V8.73336H251.748ZM240.398 8.73336V7.73336H239.398V8.73336H240.398ZM240.398 43.3858V44.3858H241.398V43.3858H240.398ZM231.799 43.3858H230.799V44.3858H231.799V43.3858ZM336.065 35.44L336.377 36.3902L336.386 36.3869L336.065 35.44ZM340.158 33.5797L341.035 33.0991L340.499 32.1208L339.585 32.7603L340.158 33.5797ZM343.838 40.2957L344.462 41.0777L345.12 40.5532L344.715 39.8152L343.838 40.2957ZM338.369 42.8497L338.054 41.9009L338.051 41.9017L338.369 42.8497ZM319.761 42.5344L319.41 43.4707L319.416 43.4729L319.761 42.5344ZM312.091 37.994L311.427 38.7417L311.431 38.7453L312.091 37.994ZM306.932 31.1518L306.027 31.5781L306.029 31.5809L306.932 31.1518ZM306.897 14.1251L305.992 13.7016L305.99 13.7053L306.897 14.1251ZM312.057 7.21988L311.393 6.47216V6.47216L312.057 7.21988ZM319.727 2.64791L319.378 1.71078L319.376 1.71168L319.727 2.64791ZM338.369 2.30107L338.051 3.24911L338.054 3.24995L338.369 2.30107ZM343.838 4.85507L344.715 5.33562L345.12 4.59765L344.462 4.07311L343.838 4.85507ZM340.158 11.5711L339.585 12.3905L340.499 13.03L341.035 12.0517L340.158 11.5711ZM336.065 9.74235L335.743 10.6893L335.753 10.6925L336.065 9.74235ZM323.201 9.86847L322.849 8.93229L322.846 8.93372L323.201 9.86847ZM318.386 12.8639L317.691 12.144L317.691 12.1443L318.386 12.8639ZM315.393 27.9041L314.468 28.2827L314.469 28.2868L315.393 27.9041ZM318.386 32.3184L317.685 33.0323L317.691 33.0382L317.697 33.044L318.386 32.3184ZM323.201 35.2823L322.846 36.2171L322.849 36.2185L323.201 35.2823ZM379.741 25.9807H380.741V24.9807H379.741V25.9807ZM361.717 25.9807V24.9807H360.717V25.9807H361.717ZM361.717 43.3858V44.3858H362.717V43.3858H361.717ZM353.187 43.3858H352.187V44.3858H353.187V43.3858ZM353.187 1.76504V0.765043H352.187V1.76504H353.187ZM361.717 1.76504H362.717V0.765043H361.717V1.76504ZM361.717 19.0439H360.717V20.0439H361.717V19.0439ZM379.741 19.0439V20.0439H380.741V19.0439H379.741ZM379.741 1.76504V0.765043H378.741V1.76504H379.741ZM388.271 1.76504H389.271V0.765043H388.271V1.76504ZM388.271 43.3858V44.3858H389.271V43.3858H388.271ZM379.741 43.3858H378.741V44.3858H379.741V43.3858ZM7.54741 15.9597L14.9769 18.3561L15.5909 16.4527L8.16137 14.0562L7.54741 15.9597ZM16.0018 18.1005C16.2063 17.8896 16.6609 17.6056 17.5081 17.3069L16.8431 15.4207C15.9017 15.7526 15.0952 16.1625 14.566 16.7083L16.0018 18.1005ZM16.0018 18.1005C16.1741 17.9229 16.5345 17.6838 17.189 17.4258L16.4556 15.5651C15.6919 15.8661 15.0268 16.2331 14.566 16.7083L16.0018 18.1005ZM17.189 17.4258C17.29 17.386 17.3963 17.3463 17.5081 17.3069L16.8431 15.4207C16.7093 15.4678 16.5802 15.516 16.4556 15.5651L17.189 17.4258ZM8.60396 15.6699L20.2985 2.42698L18.7994 1.10313L7.10483 14.346L8.60396 15.6699ZM19.5489 2.76505H29.6612V0.765054H19.5489V2.76505ZM28.925 1.08827L14.5477 16.7276L16.0201 18.0812L30.3974 2.44183L28.925 1.08827ZM8.18379 15.3628L8.18479 15.3617L6.69269 14.0299L6.69168 14.031L8.18379 15.3628ZM8.18831 15.3577L20.0421 1.93431L18.543 0.61046L6.68917 14.0339L8.18831 15.3577ZM19.2926 2.27238H30.817V0.272384H19.2926V2.27238ZM30.0808 0.595604L16.7808 15.063L18.2532 16.4166L31.5532 1.94916L30.0808 0.595604ZM17.774 16.7062C18.5374 16.5032 19.4712 16.3982 20.5808 16.3982V14.3982C19.3556 14.3982 18.2391 14.513 17.26 14.7734L17.774 16.7062ZM20.5808 16.3982C22.9681 16.3982 25.2165 16.9498 27.3312 18.0515L28.2553 16.2778C25.8556 15.0276 23.2902 14.3982 20.5808 14.3982V16.3982ZM27.3349 18.0534C29.4665 19.1528 31.1911 20.705 32.5183 22.7116L34.1865 21.6083C32.672 19.3185 30.6895 17.5333 28.2516 16.2759L27.3349 18.0534ZM32.5249 22.7215C33.8568 24.6841 34.53 27.0133 34.53 29.7329H36.53C36.53 26.6673 35.7654 23.9348 34.1798 21.5984L32.5249 22.7215ZM34.53 29.7329C34.53 32.4239 33.8149 34.7967 32.3876 36.8701L34.035 38.0042C35.7069 35.5755 36.53 32.8017 36.53 29.7329H34.53ZM32.3876 36.8701C30.9494 38.9593 29.0197 40.6108 26.5833 41.8197L27.4723 43.6113C30.1939 42.2608 32.3921 40.3907 34.035 38.0042L32.3876 36.8701ZM26.5834 41.8197C24.1499 43.0272 21.452 43.6352 18.4827 43.6352V45.6352C21.7337 45.6352 24.7396 44.9672 27.4723 43.6113L26.5834 41.8197ZM18.4827 43.6352C15.4644 43.6352 12.7418 43.0469 10.3078 41.8801L9.44324 43.6836C12.1752 44.9932 15.198 45.6352 18.4827 45.6352V43.6352ZM10.3078 41.8801C7.87603 40.7144 5.94894 39.0655 4.51152 36.9369L2.85405 38.0562C4.49859 40.4915 6.70471 42.3708 9.44325 43.6836L10.3078 41.8801ZM4.51145 36.9368L4.50831 36.9322L2.85098 38.0517L2.85412 38.0563L4.51145 36.9368ZM4.51478 36.9419C3.11043 34.8097 2.401 32.2881 2.401 29.3545H0.401001C0.401001 32.6248 1.19703 35.5406 2.84451 38.042L4.51478 36.9419ZM2.401 29.3545C2.401 26.1192 2.9854 23.4375 4.1268 21.2841L2.3597 20.3474C1.02673 22.8622 0.401001 25.8865 0.401001 29.3545H2.401ZM4.12855 21.2808C5.30242 19.046 6.65436 17.0743 8.18339 15.3632L6.69208 14.0306C5.04392 15.875 3.60084 17.9845 2.35795 20.3508L4.12855 21.2808ZM18.4827 38.1545C20.1048 38.1545 21.5864 37.7932 22.9188 37.0604L21.9549 35.308C20.9421 35.865 19.7965 36.1545 18.4827 36.1545V38.1545ZM22.9188 37.0604C24.2408 36.3332 25.3103 35.3565 26.1149 34.1278L24.4417 33.0322C23.8239 33.9756 23.0028 34.7316 21.9549 35.308L22.9188 37.0604ZM26.1196 34.1205C26.9305 32.8583 27.3378 31.4543 27.3378 29.9221H25.3378C25.3378 31.0797 25.0359 32.107 24.4369 33.0395L26.1196 34.1205ZM27.3378 29.9221C27.3378 28.4083 26.929 27.0233 26.116 25.7812L24.4426 26.8765C25.0382 27.7865 25.3378 28.7894 25.3378 29.9221H27.3378ZM26.116 25.7812C25.3113 24.5517 24.2415 23.5744 22.9188 22.8469L21.9549 24.5993C23.0033 25.1759 23.8247 25.9324 24.4426 26.8765L26.116 25.7812ZM22.9188 22.8469C21.5864 22.1141 20.1048 21.7528 18.4827 21.7528V23.7528C19.7965 23.7528 20.9421 24.0422 21.9549 24.5993L22.9188 22.8469ZM18.4827 21.7528C16.8832 21.7528 15.4037 22.1142 14.0518 22.8441L15.0019 24.604C16.0465 24.0401 17.1968 23.7528 18.4827 23.7528V21.7528ZM14.0447 22.8479C12.7229 23.5754 11.6537 24.5523 10.8494 25.7812L12.5228 26.8765C13.1404 25.9328 13.9613 25.1767 15.0089 24.6001L14.0447 22.8479ZM10.8494 25.7812C10.0364 27.0233 9.6276 28.4083 9.6276 29.9221H11.6276C11.6276 28.7894 11.9272 27.7865 12.5228 26.8765L10.8494 25.7812ZM9.6276 29.9221C9.6276 31.4544 10.0349 32.8584 10.8458 34.1206L12.5285 33.0396C11.9294 32.1071 11.6276 31.0798 11.6276 29.9221H9.6276ZM10.8505 34.1279C11.6547 35.3559 12.7235 36.3323 14.0447 37.0593L15.0089 35.3071C13.9618 34.7309 13.1412 33.9752 12.5237 33.0322L10.8505 34.1279ZM14.0518 37.0632C15.4037 37.7931 16.8832 38.1545 18.4827 38.1545V36.1545C17.1968 36.1545 16.0465 35.8672 15.0019 35.3033L14.0518 37.0632ZM102.5 2.76504H111.133V0.765043H102.5V2.76504ZM110.211 2.15213L127.684 43.7729L129.528 42.9987L112.055 1.37796L110.211 2.15213ZM128.606 42.3858H119.457V44.3858H128.606V42.3858ZM120.387 43.019L116.844 34.0327L114.984 34.7662L118.526 43.7525L120.387 43.019ZM115.914 33.3995H97.7531V35.3995H115.914V33.3995ZM96.8253 34.0266L93.2137 43.0129L95.0695 43.7587L98.681 34.7724L96.8253 34.0266ZM94.1416 42.3858H84.958V44.3858H94.1416V42.3858ZM85.8795 43.7741L103.421 2.15342L101.578 1.37666L84.0365 42.9974L85.8795 43.7741ZM100.574 28.4312H113.094V26.4312H100.574V28.4312ZM114.027 27.0713L107.801 10.9276L105.935 11.6472L112.161 27.791L114.027 27.0713ZM106.868 10.2874H106.765V12.2874H106.868V10.2874ZM105.831 10.9293L99.6399 27.0731L101.507 27.7892L107.698 11.6454L105.831 10.9293ZM52.306 2.76504H60.9049V0.765043H52.306V2.76504ZM59.9049 1.76504V36.4174H61.9049V1.76504H59.9049ZM60.9049 37.4174H77.9306V35.4174H60.9049V37.4174ZM76.9306 36.4174V43.3858H78.9306V36.4174H76.9306ZM77.9306 42.3858H52.306V44.3858H77.9306V42.3858ZM53.306 43.3858V1.76504H51.306V43.3858H53.306ZM262.252 9.24926H289.812V7.24926H262.252V9.24926ZM261.252 2.33723V8.24926H263.252V2.33723H261.252ZM289.812 1.33723H262.252V3.33723H289.812V1.33723ZM290.812 8.24926V2.33723H288.812V8.24926H290.812ZM262.252 26.6646H289.812V24.6646H262.252V26.6646ZM261.252 19.7525V25.6646H263.252V19.7525H261.252ZM289.812 18.7525H262.252V20.7525H289.812V18.7525ZM290.812 25.6646V19.7525H288.812V25.6646H290.812ZM262.252 44.5704H289.812V42.5704H262.252V44.5704ZM261.252 37.6584V43.5704H263.252V37.6584H261.252ZM289.812 36.6584H262.252V38.6584H289.812V36.6584ZM290.812 43.5704V37.6584H288.812V43.5704H290.812ZM197.153 22.7108L214.901 44.0256L216.438 42.7459L198.69 21.431L197.153 22.7108ZM215.67 42.3858H205.385V44.3858H215.67V42.3858ZM206.162 42.7556L191.062 24.1524L189.509 25.4128L204.609 44.016L206.162 42.7556ZM189.286 24.7826V43.3858H191.286V24.7826H189.286ZM190.286 42.3858H181.687V44.3858H190.286V42.3858ZM182.687 43.3858V1.76504H180.687V43.3858H182.687ZM181.687 2.76504H190.286V0.765043H181.687V2.76504ZM189.286 1.76504V19.58H191.286V1.76504H189.286ZM191.072 20.1978L205.071 2.38291L203.498 1.14718L189.499 18.9621L191.072 20.1978ZM204.285 2.76504H214.019V0.765043H204.285V2.76504ZM213.235 1.14383L197.138 21.4497L198.705 22.6921L214.802 2.38626L213.235 1.14383ZM158.683 37.3544C161.151 37.3544 163.38 37.0391 165.358 36.3901L164.734 34.4899C162.997 35.0601 160.984 35.3544 158.683 35.3544V37.3544ZM165.367 36.3869C167.252 35.7469 168.724 35.0906 169.712 34.3991L168.566 32.7603C167.812 33.2879 166.554 33.8718 164.724 34.4931L165.367 36.3869ZM168.262 34.0602L171.942 40.7763L173.696 39.8152L170.016 33.0991L168.262 34.0602ZM172.196 39.5138C171.286 40.2391 169.605 41.0461 167.035 41.9009L167.666 43.7986C170.278 42.9297 172.243 42.034 173.443 41.0777L172.196 39.5138ZM167.032 41.9017C164.593 42.7201 161.634 43.1425 158.132 43.1425V45.1425C161.785 45.1425 164.971 44.7031 167.669 43.7978L167.032 41.9017ZM158.132 43.1425C154.893 43.1425 151.881 42.6242 149.088 41.596L148.397 43.4729C151.428 44.5887 154.676 45.1425 158.132 45.1425V43.1425ZM149.094 41.5982C146.288 40.545 143.837 39.092 141.732 37.2427L140.412 38.7453C142.71 40.7638 145.373 42.3377 148.391 43.4707L149.094 41.5982ZM141.736 37.2463C139.633 35.3786 137.996 33.2056 136.816 30.7227L135.01 31.5809C136.307 34.3111 138.109 36.6996 140.408 38.7417L141.736 37.2463ZM136.817 30.7255C135.645 28.2378 135.055 25.5465 135.055 22.6385H133.055C133.055 25.8264 133.704 28.8106 135.008 31.5781L136.817 30.7255ZM135.055 22.6385C135.055 19.7276 135.635 17.034 136.786 14.5449L134.971 13.7053C133.691 16.4714 133.055 19.4533 133.055 22.6385H135.055ZM136.784 14.5486C137.964 12.0244 139.602 9.83269 141.702 7.96759L140.374 6.47216C138.071 8.51689 136.269 10.9287 134.973 13.7016L136.784 14.5486ZM141.702 7.96759C143.806 6.0987 146.256 4.63654 149.059 3.58413L148.357 1.71168C145.336 2.84541 142.672 4.43123 140.374 6.47216L141.702 7.96759ZM149.057 3.58503C151.873 2.53633 154.895 2.0083 158.132 2.0083V0.00830078C154.674 0.00830078 151.413 0.57334 148.359 1.71078L149.057 3.58503ZM158.132 2.0083C161.634 2.0083 164.593 2.4307 167.032 3.24911L167.669 1.35302C164.971 0.447747 161.785 0.00830078 158.132 0.00830078V2.0083ZM167.035 3.24995C169.605 4.10472 171.286 4.91166 172.196 5.63702L173.443 4.07311C172.243 3.11683 170.278 2.2211 167.666 1.35218L167.035 3.24995ZM171.942 4.3745L168.262 11.0906L170.016 12.0517L173.696 5.33563L171.942 4.3745ZM169.712 10.7517C168.72 10.0573 167.244 9.41133 165.358 8.79221L164.734 10.6925C166.562 11.2926 167.816 11.8658 168.566 12.3905L169.712 10.7517ZM165.367 8.79544C163.387 8.12302 161.154 7.79642 158.683 7.79642V9.79642C160.981 9.79642 162.99 10.1004 164.724 10.6893L165.367 8.79544ZM158.683 7.79642C156.155 7.79642 153.866 8.16803 151.83 8.9323L152.533 10.8046C154.305 10.1395 156.349 9.79642 158.683 9.79642V7.79642ZM151.827 8.93372C149.831 9.69212 148.108 10.7599 146.672 12.144L148.061 13.5838C149.285 12.4034 150.772 11.4742 152.537 10.8032L151.827 8.93372ZM146.672 12.1443C145.267 13.4999 144.191 15.0751 143.45 16.864L145.298 17.6294C145.933 16.097 146.852 14.7504 148.061 13.5835L146.672 12.1443ZM143.45 16.864C142.71 18.6509 142.342 20.5472 142.342 22.5439H144.342C144.342 20.7989 144.662 19.1638 145.298 17.6294L143.45 16.864ZM142.342 22.5439C142.342 24.5601 142.709 26.476 143.449 28.2827L145.3 27.5255C144.663 25.969 144.342 24.3113 144.342 22.5439H142.342ZM143.45 28.2868C144.191 30.0741 145.265 31.6576 146.666 33.0323L148.067 31.6046C146.854 30.4148 145.933 29.0554 145.298 27.5214L143.45 28.2868ZM146.678 33.044C148.113 34.4048 149.835 35.46 151.827 36.2171L152.537 34.3476C150.768 33.6753 149.28 32.7545 148.055 31.5928L146.678 33.044ZM151.83 36.2185C153.866 36.9828 156.155 37.3544 158.683 37.3544V35.3544C156.349 35.3544 154.305 35.0113 152.533 34.3462L151.83 36.2185ZM231.799 7.73336H220.414V9.73336H231.799V7.73336ZM221.414 8.73336V1.76504H219.414V8.73336H221.414ZM220.414 2.76504H251.748V0.765043H220.414V2.76504ZM250.748 1.76504V8.73336H252.748V1.76504H250.748ZM251.748 7.73336H240.398V9.73336H251.748V7.73336ZM239.398 8.73336V43.3858H241.398V8.73336H239.398ZM240.398 42.3858H231.799V44.3858H240.398V42.3858ZM232.799 43.3858V8.73336H230.799V43.3858H232.799ZM329.702 37.3544C332.17 37.3544 334.399 37.0391 336.377 36.3901L335.753 34.4899C334.016 35.0601 332.003 35.3544 329.702 35.3544V37.3544ZM336.386 36.3869C338.271 35.7469 339.743 35.0906 340.731 34.3991L339.585 32.7603C338.831 33.2879 337.573 33.8718 335.743 34.4931L336.386 36.3869ZM339.281 34.0602L342.961 40.7763L344.715 39.8152L341.035 33.0991L339.281 34.0602ZM343.215 39.5138C342.305 40.2392 340.624 41.0461 338.054 41.9009L338.685 43.7986C341.297 42.9297 343.262 42.034 344.462 41.0777L343.215 39.5138ZM338.051 41.9017C335.612 42.7201 332.653 43.1425 329.151 43.1425V45.1425C332.804 45.1425 335.99 44.7031 338.688 43.7978L338.051 41.9017ZM329.151 43.1425C325.912 43.1425 322.9 42.6242 320.107 41.596L319.416 43.4729C322.447 44.5887 325.695 45.1425 329.151 45.1425V43.1425ZM320.113 41.5982C317.307 40.545 314.856 39.092 312.751 37.2427L311.431 38.7453C313.729 40.7638 316.392 42.3377 319.41 43.4707L320.113 41.5982ZM312.755 37.2463C310.652 35.3786 309.015 33.2056 307.835 30.7227L306.029 31.5809C307.326 34.3111 309.128 36.6996 311.427 38.7417L312.755 37.2463ZM307.836 30.7255C306.664 28.2379 306.074 25.5465 306.074 22.6385H304.074C304.074 25.8264 304.723 28.8106 306.027 31.5781L307.836 30.7255ZM306.074 22.6385C306.074 19.7276 306.654 17.034 307.805 14.5449L305.99 13.7053C304.71 16.4714 304.074 19.4533 304.074 22.6385H306.074ZM307.803 14.5486C308.983 12.0244 310.621 9.83269 312.721 7.96759L311.393 6.47216C309.09 8.5169 307.288 10.9287 305.992 13.7016L307.803 14.5486ZM312.721 7.96759C314.825 6.0987 317.275 4.63654 320.078 3.58413L319.376 1.71168C316.355 2.84541 313.691 4.43123 311.393 6.47216L312.721 7.96759ZM320.076 3.58503C322.892 2.53633 325.914 2.0083 329.151 2.0083V0.00830078C325.693 0.00830078 322.432 0.57334 319.378 1.71078L320.076 3.58503ZM329.151 2.0083C332.653 2.0083 335.612 2.4307 338.051 3.24911L338.688 1.35302C335.99 0.447747 332.804 0.00830078 329.151 0.00830078V2.0083ZM338.054 3.24995C340.624 4.10472 342.305 4.91166 343.215 5.63702L344.462 4.07311C343.262 3.11683 341.297 2.2211 338.685 1.35218L338.054 3.24995ZM342.961 4.37451L339.281 11.0906L341.035 12.0517L344.715 5.33562L342.961 4.37451ZM340.731 10.7517C339.739 10.0573 338.263 9.41133 336.377 8.79221L335.753 10.6925C337.581 11.2926 338.835 11.8658 339.585 12.3905L340.731 10.7517ZM336.386 8.79544C334.406 8.12302 332.173 7.79642 329.702 7.79642V9.79642C332 9.79642 334.009 10.1004 335.743 10.6893L336.386 8.79544ZM329.702 7.79642C327.174 7.79642 324.885 8.16803 322.849 8.9323L323.552 10.8046C325.324 10.1395 327.368 9.79642 329.702 9.79642V7.79642ZM322.846 8.93372C320.85 9.69212 319.127 10.7599 317.691 12.144L319.08 13.5838C320.304 12.4034 321.791 11.4742 323.556 10.8032L322.846 8.93372ZM317.691 12.1443C316.286 13.4999 315.21 15.0751 314.469 16.864L316.317 17.6294C316.952 16.097 317.871 14.7504 319.08 13.5835L317.691 12.1443ZM314.469 16.864C313.729 18.6509 313.361 20.5472 313.361 22.5439H315.361C315.361 20.7989 315.681 19.1637 316.317 17.6294L314.469 16.864ZM313.361 22.5439C313.361 24.5601 313.729 26.476 314.468 28.2827L316.319 27.5255C315.682 25.969 315.361 24.3113 315.361 22.5439H313.361ZM314.469 28.2868C315.21 30.0741 316.284 31.6576 317.685 33.0323L319.086 31.6046C317.873 30.4148 316.952 29.0554 316.317 27.5214L314.469 28.2868ZM317.697 33.044C319.132 34.4048 320.854 35.46 322.846 36.2171L323.556 34.3476C321.788 33.6753 320.299 32.7545 319.074 31.5928L317.697 33.044ZM322.849 36.2185C324.885 36.9828 327.174 37.3544 329.702 37.3544V35.3544C327.368 35.3544 325.324 35.0113 323.552 34.3462L322.849 36.2185ZM379.741 24.9807H361.717V26.9807H379.741V24.9807ZM360.717 25.9807V43.3858H362.717V25.9807H360.717ZM361.717 42.3858H353.187V44.3858H361.717V42.3858ZM354.187 43.3858V1.76504H352.187V43.3858H354.187ZM353.187 2.76504H361.717V0.765043H353.187V2.76504ZM360.717 1.76504V19.0439H362.717V1.76504H360.717ZM361.717 20.0439H379.741V18.0439H361.717V20.0439ZM380.741 19.0439V1.76504H378.741V19.0439H380.741ZM379.741 2.76504H388.271V0.765043H379.741V2.76504ZM387.271 1.76504V43.3858H389.271V1.76504H387.271ZM388.271 42.3858H379.741V44.3858H388.271V42.3858ZM380.741 43.3858V25.9807H378.741V43.3858H380.741Z" fill="black" mask="url(#path-1-outside-1_30_114)"/>
<path d="M2.03308 67.4942V60.2215H4.94501C5.48005 60.2215 5.92631 60.3008 6.28379 60.4594C6.64127 60.618 6.90998 60.8382 7.0899 61.1199C7.26982 61.3993 7.35979 61.7213 7.35979 62.0858C7.35979 62.3699 7.30297 62.6197 7.18933 62.8351C7.0757 63.0482 6.91945 63.2234 6.72058 63.3607C6.52409 63.4956 6.29918 63.5915 6.04587 63.6483V63.7194C6.32285 63.7312 6.58209 63.8093 6.82356 63.9537C7.06741 64.0982 7.26509 64.3006 7.4166 64.561C7.56812 64.819 7.64388 65.1268 7.64388 65.4843C7.64388 65.8702 7.548 66.2146 7.35623 66.5177C7.16684 66.8183 6.8863 67.0563 6.51462 67.2314C6.14293 67.4066 5.68483 67.4942 5.14033 67.4942H2.03308ZM3.57072 66.2371H4.82427C5.25278 66.2371 5.56528 66.1555 5.76177 65.9921C5.95827 65.8264 6.05652 65.6062 6.05652 65.3316C6.05652 65.1304 6.00799 64.9528 5.91092 64.7989C5.81386 64.645 5.67536 64.5243 5.49544 64.4367C5.31788 64.3491 5.106 64.3053 4.85979 64.3053H3.57072V66.2371ZM3.57072 63.2648H4.71064C4.92134 63.2648 5.10837 63.2281 5.27172 63.1547C5.43744 63.079 5.56765 62.9724 5.66234 62.8351C5.75941 62.6978 5.80794 62.5333 5.80794 62.3415C5.80794 62.0787 5.71443 61.8669 5.5274 61.7059C5.34274 61.5449 5.07996 61.4644 4.73905 61.4644H3.57072V63.2648Z" fill="black"/>
<path d="M15.0444 67.4942V60.2215H16.5821V66.2265H19.6999V67.4942H15.0444Z" fill="black"/>
<path d="M28.5573 67.4942H26.9096L29.4203 60.2215H31.4018L33.9089 67.4942H32.2612L30.4394 61.8834H30.3826L28.5573 67.4942ZM28.4544 64.6356H32.3464V65.8358H28.4544V64.6356Z" fill="black"/>
<path d="M47.2594 62.7677H45.704C45.6756 62.5664 45.6175 62.3877 45.53 62.2314C45.4424 62.0728 45.3299 61.9379 45.1926 61.8266C45.0553 61.7153 44.8967 61.6301 44.7167 61.5709C44.5392 61.5117 44.3462 61.4822 44.1379 61.4822C43.7615 61.4822 43.4336 61.5757 43.1542 61.7627C42.8749 61.9474 42.6583 62.2172 42.5044 62.5724C42.3505 62.9251 42.2736 63.3536 42.2736 63.8579C42.2736 64.3763 42.3505 64.8119 42.5044 65.1647C42.6606 65.5174 42.8784 65.7838 43.1578 65.9637C43.4372 66.1436 43.7603 66.2336 44.1273 66.2336C44.3332 66.2336 44.5238 66.2064 44.699 66.1519C44.8765 66.0974 45.034 66.0181 45.1713 65.914C45.3086 65.8074 45.4222 65.6784 45.5122 65.5269C45.6045 65.3754 45.6685 65.2026 45.704 65.0084L47.2594 65.0155C47.2191 65.3493 47.1185 65.6713 46.9575 65.9814C46.7989 66.2892 46.5846 66.565 46.3148 66.8089C46.0472 67.0503 45.7276 67.2421 45.356 67.3841C44.9866 67.5238 44.5688 67.5937 44.1024 67.5937C43.4537 67.5937 42.8737 67.4469 42.3623 67.1533C41.8533 66.8598 41.4509 66.4348 41.155 65.8785C40.8614 65.3221 40.7146 64.6486 40.7146 63.8579C40.7146 63.0648 40.8638 62.3901 41.1621 61.8337C41.4604 61.2774 41.8652 60.8536 42.3765 60.5624C42.8879 60.2689 43.4632 60.1221 44.1024 60.1221C44.5238 60.1221 44.9144 60.1813 45.2743 60.2996C45.6365 60.418 45.9573 60.5908 46.2366 60.8181C46.516 61.043 46.7433 61.3188 46.9185 61.6455C47.096 61.9722 47.2096 62.3463 47.2594 62.7677Z" fill="black"/>
<path d="M54.762 67.4942V60.2215H56.2996V63.4282H56.3955L59.0127 60.2215H60.8557L58.1569 63.4779L60.8877 67.4942H59.0482L57.056 64.5042L56.2996 65.4275V67.4942H54.762Z" fill="black"/>
<path d="M67.7795 61.4893V60.2215H73.7525V61.4893H71.526V67.4942H70.0061V61.4893H67.7795Z" fill="black"/>
<path d="M81.1362 67.4942V60.2215H86.0368V61.4893H82.6739V63.2222H85.7846V64.49H82.6739V66.2265H86.051V67.4942H81.1362Z" fill="black"/>
<path d="M100.076 62.7677H98.5208C98.4923 62.5664 98.4343 62.3877 98.3468 62.2314C98.2592 62.0728 98.1467 61.9379 98.0094 61.8266C97.8721 61.7153 97.7135 61.6301 97.5335 61.5709C97.356 61.5117 97.163 61.4822 96.9547 61.4822C96.5783 61.4822 96.2504 61.5757 95.971 61.7627C95.6917 61.9474 95.4751 62.2172 95.3212 62.5724C95.1673 62.9251 95.0904 63.3536 95.0904 63.8579C95.0904 64.3763 95.1673 64.8119 95.3212 65.1647C95.4774 65.5174 95.6952 65.7838 95.9746 65.9637C96.254 66.1436 96.5771 66.2336 96.9441 66.2336C97.15 66.2336 97.3406 66.2064 97.5158 66.1519C97.6934 66.0974 97.8508 66.0181 97.9881 65.914C98.1254 65.8074 98.239 65.6784 98.329 65.5269C98.4213 65.3754 98.4852 65.2026 98.5208 65.0084L100.076 65.0155C100.036 65.3493 99.9353 65.6713 99.7743 65.9814C99.6157 66.2892 99.4014 66.565 99.1316 66.8089C98.864 67.0503 98.5444 67.2421 98.1728 67.3841C97.8034 67.5238 97.3856 67.5937 96.9192 67.5937C96.2705 67.5937 95.6905 67.4469 95.1791 67.1533C94.6702 66.8598 94.2677 66.4348 93.9718 65.8785C93.6782 65.3221 93.5314 64.6486 93.5314 63.8579C93.5314 63.0648 93.6806 62.3901 93.9789 61.8337C94.2772 61.2774 94.682 60.8536 95.1933 60.5624C95.7047 60.2689 96.28 60.1221 96.9192 60.1221C97.3406 60.1221 97.7312 60.1813 98.0911 60.2996C98.4533 60.418 98.7741 60.5908 99.0534 60.8181C99.3328 61.043 99.5601 61.3188 99.7353 61.6455C99.9128 61.9722 100.026 62.3463 100.076 62.7677Z" fill="black"/>
<path d="M107.579 67.4942V60.2215H109.116V63.2222H112.238V60.2215H113.772V67.4942H112.238V64.49H109.116V67.4942H107.579Z" fill="black"/>
<path d="M127.523 60.2215V67.4942H126.195L123.031 62.9168H122.977V67.4942H121.44V60.2215H122.789L125.928 64.7954H125.992V60.2215H127.523Z" fill="black"/>
<path d="M141.876 63.8579C141.876 64.651 141.726 65.3257 141.425 65.882C141.127 66.4384 140.72 66.8633 140.204 67.1569C139.69 67.4481 139.113 67.5937 138.471 67.5937C137.825 67.5937 137.245 67.4469 136.731 67.1533C136.217 66.8598 135.811 66.4348 135.513 65.8785C135.215 65.3221 135.065 64.6486 135.065 63.8579C135.065 63.0648 135.215 62.3901 135.513 61.8337C135.811 61.2774 136.217 60.8536 136.731 60.5624C137.245 60.2689 137.825 60.1221 138.471 60.1221C139.113 60.1221 139.69 60.2689 140.204 60.5624C140.72 60.8536 141.127 61.2774 141.425 61.8337C141.726 62.3901 141.876 63.0648 141.876 63.8579ZM140.318 63.8579C140.318 63.3441 140.241 62.9109 140.087 62.5582C139.935 62.2054 139.721 61.9379 139.444 61.7556C139.167 61.5733 138.843 61.4822 138.471 61.4822C138.099 61.4822 137.775 61.5733 137.498 61.7556C137.221 61.9379 137.006 62.2054 136.852 62.5582C136.7 62.9109 136.624 63.3441 136.624 63.8579C136.624 64.3716 136.7 64.8048 136.852 65.1576C137.006 65.5103 137.221 65.7778 137.498 65.9601C137.775 66.1424 138.099 66.2336 138.471 66.2336C138.843 66.2336 139.167 66.1424 139.444 65.9601C139.721 65.7778 139.935 65.5103 140.087 65.1576C140.241 64.8048 140.318 64.3716 140.318 63.8579Z" fill="black"/>
<path d="M149.415 67.4942V60.2215H150.953V66.2265H154.071V67.4942H149.415Z" fill="black"/>
<path d="M167.889 63.8579C167.889 64.651 167.739 65.3257 167.438 65.882C167.14 66.4384 166.733 66.8633 166.217 67.1569C165.703 67.4481 165.125 67.5937 164.484 67.5937C163.838 67.5937 163.258 67.4469 162.744 67.1533C162.23 66.8598 161.824 66.4348 161.526 65.8785C161.227 65.3221 161.078 64.6486 161.078 63.8579C161.078 63.0648 161.227 62.3901 161.526 61.8337C161.824 61.2774 162.23 60.8536 162.744 60.5624C163.258 60.2689 163.838 60.1221 164.484 60.1221C165.125 60.1221 165.703 60.2689 166.217 60.5624C166.733 60.8536 167.14 61.2774 167.438 61.8337C167.739 62.3901 167.889 63.0648 167.889 63.8579ZM166.33 63.8579C166.33 63.3441 166.253 62.9109 166.1 62.5582C165.948 62.2054 165.734 61.9379 165.457 61.7556C165.18 61.5733 164.856 61.4822 164.484 61.4822C164.112 61.4822 163.788 61.5733 163.511 61.7556C163.234 61.9379 163.018 62.2054 162.865 62.5582C162.713 62.9109 162.637 63.3441 162.637 63.8579C162.637 64.3716 162.713 64.8048 162.865 65.1576C163.018 65.5103 163.234 65.7778 163.511 65.9601C163.788 66.1424 164.112 66.2336 164.484 66.2336C164.856 66.2336 165.18 66.1424 165.457 65.9601C165.734 65.7778 165.948 65.5103 166.1 65.1576C166.253 64.8048 166.33 64.3716 166.33 63.8579Z" fill="black"/>
<path d="M180.251 62.5724C180.201 62.3995 180.131 62.2468 180.041 62.1143C179.951 61.9793 179.841 61.8657 179.711 61.7733C179.583 61.6787 179.436 61.6064 179.271 61.5567C179.107 61.507 178.926 61.4822 178.727 61.4822C178.356 61.4822 178.029 61.5745 177.747 61.7591C177.468 61.9438 177.25 62.2125 177.094 62.5653C176.938 62.9156 176.859 63.3441 176.859 63.8508C176.859 64.3574 176.936 64.7883 177.09 65.1434C177.244 65.4985 177.462 65.7696 177.744 65.9566C178.025 66.1412 178.358 66.2336 178.742 66.2336C179.09 66.2336 179.387 66.172 179.633 66.0489C179.882 65.9234 180.071 65.7471 180.201 65.5198C180.334 65.2925 180.4 65.0238 180.4 64.7137L180.712 64.7599H178.837V63.6022H181.881V64.5184C181.881 65.1576 181.746 65.7068 181.476 66.1661C181.206 66.623 180.834 66.9758 180.361 67.2243C179.887 67.4706 179.345 67.5937 178.734 67.5937C178.053 67.5937 177.454 67.4433 176.938 67.1427C176.422 66.8396 176.019 66.4099 175.73 65.8536C175.444 65.2949 175.301 64.632 175.301 63.865C175.301 63.2755 175.386 62.7499 175.556 62.2883C175.729 61.8242 175.971 61.4313 176.281 61.1093C176.591 60.7873 176.952 60.5423 177.364 60.3742C177.776 60.2061 178.222 60.1221 178.703 60.1221C179.114 60.1221 179.498 60.1824 179.853 60.3032C180.208 60.4215 180.523 60.5896 180.798 60.8074C181.075 61.0252 181.301 61.2845 181.476 61.5851C181.651 61.8834 181.764 62.2125 181.813 62.5724H180.251Z" fill="black"/>
<path d="M190.973 60.2215V67.4942H189.436V60.2215H190.973Z" fill="black"/>
<path d="M198.639 67.4942V60.2215H203.539V61.4893H200.176V63.2222H203.287V64.49H200.176V66.2265H203.553V67.4942H198.639Z" fill="black"/>
<path d="M215.107 62.3131C215.078 62.0267 214.957 61.8041 214.741 61.6455C214.526 61.4869 214.233 61.4076 213.864 61.4076C213.613 61.4076 213.401 61.4431 213.228 61.5141C213.056 61.5828 212.923 61.6787 212.831 61.8018C212.741 61.9249 212.696 62.0645 212.696 62.2208C212.691 62.351 212.718 62.4646 212.777 62.5617C212.839 62.6588 212.923 62.7428 213.029 62.8138C213.136 62.8825 213.259 62.9429 213.399 62.9949C213.538 63.0447 213.688 63.0873 213.846 63.1228L214.5 63.279C214.817 63.3501 215.108 63.4448 215.373 63.5631C215.638 63.6815 215.868 63.8271 216.062 63.9999C216.256 64.1727 216.407 64.3763 216.513 64.6107C216.622 64.8451 216.678 65.1138 216.68 65.4168C216.678 65.8619 216.564 66.2478 216.339 66.5745C216.117 66.8988 215.795 67.151 215.373 67.3309C214.954 67.5084 214.449 67.5972 213.857 67.5972C213.27 67.5972 212.758 67.5073 212.323 67.3273C211.89 67.1474 211.551 66.8811 211.307 66.5283C211.066 66.1732 210.939 65.734 210.927 65.2108H212.415C212.432 65.4547 212.502 65.6583 212.625 65.8216C212.75 65.9826 212.917 66.1046 213.125 66.1874C213.336 66.2679 213.574 66.3082 213.839 66.3082C214.1 66.3082 214.326 66.2703 214.517 66.1945C214.712 66.1188 214.862 66.0134 214.968 65.8785C215.075 65.7435 215.128 65.5885 215.128 65.4133C215.128 65.2499 215.08 65.1126 214.983 65.0013C214.888 64.8901 214.748 64.7954 214.564 64.7172C214.381 64.6391 214.158 64.5681 213.892 64.5042L213.101 64.3053C212.487 64.1562 212.003 63.923 211.648 63.6057C211.293 63.2885 211.117 62.8612 211.119 62.3238C211.117 61.8834 211.234 61.4987 211.471 61.1697C211.71 60.8406 212.038 60.5837 212.454 60.3991C212.871 60.2144 213.344 60.1221 213.875 60.1221C214.414 60.1221 214.886 60.2144 215.288 60.3991C215.693 60.5837 216.008 60.8406 216.233 61.1697C216.458 61.4987 216.574 61.8799 216.581 62.3131H215.107Z" fill="black"/>
</svg>
