<svg width="213" height="42" viewBox="0 0 213 42" fill="none" xmlns="http://www.w3.org/2000/svg">
<ellipse cx="11.1167" cy="31.8927" rx="10.1696" ry="9.66521" fill="#4D96A9"/>
<ellipse cx="31.4559" cy="12.5622" rx="10.1696" ry="9.66521" fill="#855FB1"/>
<path fill-rule="evenodd" clip-rule="evenodd" d="M209.142 41.1211C207.714 41.2961 206.517 41.3836 205.551 41.3836C201.561 41.3836 198.548 40.557 196.511 38.9039C194.474 37.2507 193.456 34.8098 193.456 31.5812V17.9862H186.716V10.1093H193.456V2.174L203.661 0.131836V10.1093H212.985V17.9862H203.661V29.7141C203.661 31.0756 203.987 32.0383 204.638 32.6023C205.289 33.1663 206.433 33.4484 208.071 33.4484C208.869 33.4484 209.625 33.3997 210.339 33.3025C211.053 33.2052 211.83 33.0399 212.67 32.8065V40.4501C211.746 40.7224 210.57 40.946 209.142 41.1211ZM65.7643 19.8539V40.9758H55.5591V10.1098H65.7643V12.0937C66.9402 11.2379 68.2316 10.5961 69.6385 10.1682C71.0454 9.74031 72.5258 9.52637 74.0797 9.52637C76.1376 9.52637 78.0169 9.90563 79.7178 10.6641C81.4187 11.4227 82.8361 12.4632 83.97 13.7857C85.3139 12.4243 86.9098 11.374 88.7576 10.635C90.6055 9.8959 92.6213 9.52637 94.8052 9.52637C98.5849 9.52637 101.682 10.6933 104.097 13.0272C106.512 15.3611 107.719 18.3369 107.719 21.9544V40.9758H97.514V23.2381C97.514 21.5654 97.0205 20.2137 96.0336 19.1829C95.0466 18.1521 93.7342 17.6367 92.0964 17.6367C90.9625 17.6367 89.9335 17.8409 89.0096 18.2493C88.0857 18.6578 87.2877 19.2315 86.6158 19.9706C86.6578 20.2818 86.6893 20.6027 86.7103 20.9333C86.7313 21.264 86.7418 21.6043 86.7418 21.9544V40.9758H76.5365V23.2381C76.5365 21.5654 76.0431 20.2137 75.0561 19.1829C74.0692 18.1521 72.7568 17.6367 71.1189 17.6367C69.985 17.6367 68.9666 17.8215 68.0637 18.191C67.1607 18.5605 66.3943 19.1148 65.7643 19.8539ZM137.862 40.4497C135.658 41.1887 133.169 41.5583 130.398 41.5583C127.878 41.5583 125.505 41.1498 123.279 40.333C121.053 39.5161 119.132 38.3881 117.515 36.9488C115.898 35.5096 114.617 33.8078 113.672 31.8434C112.727 29.879 112.255 27.7882 112.255 25.571C112.255 23.3538 112.706 21.263 113.609 19.2986C114.512 17.3343 115.741 15.6325 117.294 14.1932C118.848 12.754 120.686 11.6259 122.807 10.809C124.927 9.99217 127.206 9.58374 129.642 9.58374C132.077 9.58374 134.324 10.0116 136.382 10.8674C138.44 11.7232 140.214 12.8901 141.705 14.3683C143.196 15.8464 144.361 17.626 145.201 19.7071C146.041 21.7881 146.461 24.0345 146.461 26.4462V28.7801H122.712C123.384 30.2194 124.434 31.396 125.862 32.3102C127.29 33.2243 128.97 33.6813 130.901 33.6813C132.287 33.6813 133.547 33.4771 134.681 33.0687C135.815 32.6603 136.781 32.0865 137.579 31.3474L144.319 36.8905C142.22 38.5242 140.067 39.7106 137.862 40.4497ZM136.445 22.1868H122.523C123.027 20.6309 123.888 19.4251 125.106 18.5693C126.324 17.7135 127.773 17.2856 129.453 17.2856C131.091 17.2856 132.529 17.733 133.768 18.6276C135.007 19.5223 135.899 20.7087 136.445 22.1868ZM175.345 40.4497C173.14 41.1887 170.652 41.5583 167.88 41.5583C165.36 41.5583 162.987 41.1498 160.761 40.333C158.536 39.5161 156.614 38.3881 154.997 36.9488C153.38 35.5096 152.1 33.8078 151.155 31.8434C150.21 29.879 149.737 27.7882 149.737 25.571C149.737 23.3538 150.189 21.263 151.092 19.2986C151.995 17.3343 153.223 15.6325 154.777 14.1932C156.331 12.754 158.168 11.6259 160.289 10.809C162.41 9.99217 164.688 9.58374 167.124 9.58374C169.56 9.58374 171.807 10.0116 173.864 10.8674C175.922 11.7232 177.697 12.8901 179.188 14.3683C180.678 15.8464 181.844 17.626 182.684 19.7071C183.524 21.7881 183.944 24.0345 183.944 26.4462V28.7801H160.194C160.866 30.2194 161.916 31.396 163.344 32.3102C164.772 33.2243 166.452 33.6813 168.384 33.6813C169.77 33.6813 171.03 33.4771 172.164 33.0687C173.297 32.6603 174.263 32.0865 175.061 31.3474L181.802 36.8905C179.702 38.5242 177.55 39.7106 175.345 40.4497ZM173.927 22.1868H160.005C160.509 20.6309 161.37 19.4251 162.588 18.5693C163.806 17.7135 165.255 17.2856 166.935 17.2856C168.573 17.2856 170.011 17.733 171.25 18.6276C172.489 19.5223 173.381 20.7087 173.927 22.1868Z" fill="#F9FAFB"/>
</svg>
