<svg width="280" height="52" viewBox="0 0 280 52" fill="none" xmlns="http://www.w3.org/2000/svg">
<ellipse cx="54.8269" cy="26.1027" rx="27.0569" ry="25.6491" fill="white"/>
<ellipse cx="27.7699" cy="26.1027" rx="27.0569" ry="25.6491" fill="white"/>
<mask id="mask0_521_53" style="mask-type:luminance" maskUnits="userSpaceOnUse" x="0" y="0" width="55" height="52">
<ellipse cx="27.7699" cy="26.1027" rx="27.0569" ry="25.6491" fill="white"/>
</mask>
<g mask="url(#mask0_521_53)">
<ellipse opacity="0.323544" cx="54.8269" cy="26.1027" rx="27.0569" ry="25.6491" fill="#B4C4FF"/>
</g>
<path fill-rule="evenodd" clip-rule="evenodd" d="M224.947 36.4738V6.69238H218.979V36.4738H224.947ZM132.3 21.9696V36.4735H126.332V21.9696H122.913V17.1349H126.332V14.5242C126.332 12.9513 126.699 11.6105 127.431 10.5018C128.163 9.39304 129.13 8.54537 130.332 7.95876C131.534 7.37216 132.832 7.07886 134.227 7.07886C135.139 7.07886 136.061 7.20778 136.994 7.46563C137.926 7.72348 138.834 8.12314 139.719 8.66462L137.418 12.5904C137.073 12.3196 136.707 12.1391 136.32 12.0489C135.933 11.9586 135.581 11.9135 135.263 11.9135C134.379 11.9135 133.664 12.1875 133.119 12.7354C132.573 13.2833 132.3 14.131 132.3 15.2784V17.1349H137.336V21.9696H132.3ZM109.175 36.8603C111.303 36.8603 113.195 36.4251 114.853 35.5549C116.511 34.6847 117.819 33.4921 118.78 31.9773C119.74 30.4624 120.22 28.7381 120.22 26.8042C120.22 24.8703 119.74 23.146 118.78 21.6311C117.819 20.1163 116.511 18.9237 114.853 18.0535C113.195 17.1832 111.303 16.7481 109.175 16.7481C107.048 16.7481 105.152 17.1832 103.487 18.0535C101.822 18.9237 100.51 20.1163 99.5499 21.6311C98.5898 23.146 98.1097 24.8703 98.1097 26.8042C98.1097 28.7381 98.5898 30.4624 99.5499 31.9773C100.51 33.4921 101.822 34.6847 103.487 35.5549C105.152 36.4251 107.048 36.8603 109.175 36.8603ZM109.175 32.0256C107.655 32.0256 106.398 31.5293 105.404 30.5365C104.409 29.5438 103.912 28.2997 103.912 26.8042C103.912 25.3087 104.409 24.0646 105.404 23.0718C106.398 22.0791 107.655 21.5828 109.175 21.5828C110.695 21.5828 111.952 22.0791 112.946 23.0718C113.941 24.0646 114.438 25.3087 114.438 26.8042C114.438 28.2997 113.941 29.5438 112.946 30.5365C111.952 31.5293 110.695 32.0256 109.175 32.0256ZM151.178 36.4735V21.9696H156.213V17.1349H151.178V15.2784C151.178 14.131 151.451 13.2833 151.996 12.7354C152.542 12.1875 153.257 11.9135 154.141 11.9135C154.459 11.9135 154.811 11.9586 155.198 12.0489C155.585 12.1391 155.951 12.3196 156.296 12.5904L158.596 8.66462C157.712 8.12314 156.804 7.72348 155.871 7.46563C154.939 7.20778 154.017 7.07886 153.105 7.07886C151.71 7.07886 150.411 7.37216 149.209 7.95876C148.008 8.54537 147.041 9.39304 146.308 10.5018C145.576 11.6105 145.21 12.9513 145.21 14.5242V17.1349H141.791V21.9696H145.21V36.4735H151.178ZM166.968 12.8033C166.36 13.3705 165.558 13.6542 164.564 13.6542C163.569 13.6542 162.768 13.3705 162.16 12.8033C161.552 12.236 161.248 11.4883 161.248 10.56C161.248 9.63174 161.552 8.88398 162.16 8.31672C162.768 7.74945 163.569 7.46582 164.564 7.46582C165.558 7.46582 166.36 7.74945 166.968 8.31672C167.575 8.88398 167.879 9.63174 167.879 10.56C167.879 11.4883 167.575 12.236 166.968 12.8033ZM167.548 36.4739V17.1353H161.58V36.4739H167.548ZM187.161 36.106C185.759 36.6088 184.236 36.8602 182.592 36.8602C180.395 36.8602 178.437 36.4251 176.717 35.5548C174.997 34.6846 173.64 33.4921 172.645 31.9772C171.651 30.4623 171.153 28.738 171.153 26.8041C171.153 24.8703 171.651 23.1459 172.645 21.631C173.64 20.1162 174.997 18.9236 176.717 18.0534C178.437 17.1832 180.395 16.748 182.592 16.748C184.236 16.748 185.759 16.9994 187.161 17.5023C188.563 18.0051 189.768 18.7077 190.777 19.6102L186.57 23.3038C185.576 22.1564 184.249 21.5827 182.592 21.5827C181.072 21.5827 179.815 22.0791 178.82 23.0718C177.826 24.0645 177.328 25.3086 177.328 26.8041C177.328 28.2996 177.826 29.5438 178.82 30.5365C179.815 31.5292 181.072 32.0255 182.592 32.0255C184.249 32.0255 185.576 31.4518 186.57 30.3044L190.777 33.9981C189.768 34.9006 188.563 35.6032 187.161 36.106ZM204.95 36.8602C206.387 36.8602 207.889 36.641 209.457 36.2027C211.025 35.7643 212.61 34.9586 214.213 33.7854L210.607 29.7629C209.834 30.4462 208.974 31.0038 208.027 31.4357C207.081 31.8676 205.89 32.0836 204.453 32.0836C203.113 32.0836 201.942 31.7484 200.941 31.078C199.939 30.4075 199.252 29.5373 198.879 28.4672H215.042V26.7848C215.042 24.838 214.572 23.1104 213.633 21.602C212.693 20.0936 211.412 18.9075 209.789 18.0437C208.166 17.1799 206.311 16.748 204.225 16.748C202.125 16.748 200.25 17.1832 198.599 18.0534C196.948 18.9236 195.646 20.1097 194.693 21.6117C193.74 23.1137 193.263 24.8251 193.263 26.7461C193.263 28.6929 193.761 30.4301 194.755 31.9579C195.75 33.4856 197.124 34.6846 198.879 35.5548C200.633 36.4251 202.657 36.8602 204.95 36.8602ZM198.755 25.3731H208.908C208.618 24.2386 208.024 23.3232 207.126 22.627C206.228 21.9309 205.151 21.5828 203.894 21.5828C202.623 21.5828 201.521 21.9373 200.589 22.6464C199.656 23.3555 199.045 24.2644 198.755 25.3731ZM235.39 12.8033C234.783 13.3705 233.981 13.6542 232.987 13.6542C231.992 13.6542 231.191 13.3705 230.583 12.8033C229.975 12.236 229.671 11.4883 229.671 10.56C229.671 9.63174 229.975 8.88398 230.583 8.31672C231.191 7.74945 231.992 7.46582 232.987 7.46582C233.981 7.46582 234.783 7.74945 235.39 8.31672C235.998 8.88398 236.302 9.63174 236.302 10.56C236.302 11.4883 235.998 12.236 235.39 12.8033ZM235.971 36.4739V17.1353H230.003V36.4739H235.971ZM254.724 36.145C253.411 36.6221 252.12 36.8606 250.849 36.8606C248.39 36.8606 246.501 36.245 245.182 35.0137C243.862 33.7825 243.203 32.0195 243.203 29.7246V21.9698H239.784V17.1352H243.203V12.3005H249.17V17.1352H254.206V21.9698H249.17V29.0864C249.17 30.0018 249.485 30.7206 250.113 31.2427C250.742 31.7648 251.54 32.0259 252.507 32.0259C253.225 32.0259 253.964 31.8777 254.724 31.5811V36.145ZM269.519 36.8602C270.956 36.8602 272.458 36.641 274.026 36.2027C275.594 35.7643 277.179 34.9586 278.781 33.7854L275.176 29.7629C274.402 30.4462 273.542 31.0038 272.596 31.4357C271.65 31.8676 270.458 32.0836 269.022 32.0836C267.682 32.0836 266.511 31.7484 265.509 31.078C264.508 30.4075 263.82 29.5373 263.447 28.4672H279.61V26.7848C279.61 24.838 279.141 23.1104 278.201 21.602C277.262 20.0936 275.981 18.9075 274.357 18.0437C272.734 17.1799 270.88 16.748 268.794 16.748C266.694 16.748 264.818 17.1832 263.168 18.0534C261.517 18.9236 260.215 20.1097 259.262 21.6117C258.308 23.1137 257.832 24.8251 257.832 26.7461C257.832 28.6929 258.329 30.4301 259.324 31.9579C260.318 33.4856 261.693 34.6846 263.447 35.5548C265.202 36.4251 267.226 36.8602 269.519 36.8602ZM263.323 25.3731H273.477C273.187 24.2386 272.593 23.3232 271.695 22.627C270.797 21.9309 269.719 21.5828 268.462 21.5828C267.191 21.5828 266.089 21.9373 265.157 22.6464C264.224 23.3555 263.613 24.2644 263.323 25.3731Z" fill="white"/>
</svg>
