<svg width="825" height="997" viewBox="0 0 825 997" fill="none" xmlns="http://www.w3.org/2000/svg">
<path d="M723.846 904.477L723.164 903.746L723.847 904.477C790.364 842.393 823.592 759.436 823.592 655.715C823.592 579.027 802.019 508.532 758.885 444.254C716.745 379.719 634.33 347.63 512.099 347.63C480.597 347.63 445.043 352.708 405.446 362.847C366.451 372.832 329.709 387.185 295.224 405.909C302.411 329.451 326.708 277.565 367.876 249.911L367.881 249.908C410.671 220.822 473.235 206.211 555.708 206.211C581.252 206.211 625.409 208.458 688.206 212.958L689.098 213.022L689.261 212.142L722.403 33.2906L722.563 32.4264L721.727 32.1566C693.725 23.128 654.692 15.8073 604.661 10.18C554.615 4.55102 501.084 1.7373 444.07 1.7373C303.123 1.7373 178.402 54.3776 101.431 141.24C24.4214 228.145 1.75171 348.024 1.75171 519.046C1.75171 678.887 34.9133 798.397 101.414 877.393L101.42 877.4C169.126 956.442 276.446 995.859 423.138 995.859C558.16 995.859 658.464 965.463 723.846 904.477ZM533.776 659.09C533.776 701.699 523.921 733.469 504.388 754.586C484.868 775.688 455.524 786.323 416.16 786.323C376.972 786.323 347.649 769.635 328.062 736.2C308.4 702.636 298.545 662.324 298.545 615.221C298.545 603.045 299.677 587.012 301.947 567.108C341.198 558.231 382.176 553.791 424.882 553.791C448.691 553.791 467.808 555.196 482.255 557.991C496.712 560.788 506.314 564.945 511.33 570.306C526.243 590.307 533.776 619.852 533.776 659.09Z" stroke="#D1D5DB" stroke-width="2"/>
</svg>
