<svg width="213" height="56" viewBox="0 0 213 56" fill="none" xmlns="http://www.w3.org/2000/svg">
<path fill-rule="evenodd" clip-rule="evenodd" d="M148.301 54.6525V42.7647L152.545 38.0665L162.377 54.6525H174.401L160.467 31.4464L174.472 15.7858H161.387L148.301 29.8091V0.765869H137.691V54.6525H148.301ZM95.8715 52.8724C92.7592 54.6283 89.2933 55.5063 85.4737 55.5063C81.654 55.5063 78.1763 54.6283 75.0405 52.8724C71.9046 51.1166 69.4054 48.7082 67.5427 45.6472C65.6801 42.5863 64.7487 39.1101 64.7487 35.2187C64.7487 31.2798 65.6801 27.7918 67.5427 24.7546C69.4054 21.7174 71.9046 19.3209 75.0405 17.565C78.1763 15.8091 81.654 14.9312 85.4737 14.9312C89.2933 14.9312 92.7592 15.8091 95.8715 17.565C98.9837 19.3209 101.471 21.7174 103.334 24.7546C105.196 27.7918 106.128 31.2798 106.128 35.2187C106.128 39.1101 105.196 42.5863 103.334 45.6472C101.471 48.7082 98.9837 51.1166 95.8715 52.8724ZM31.8499 29.7378L22.8667 54.6523H13.6714L0.373474 15.7856H11.3372L18.8349 38.3511L27.2522 15.7856H36.4475L44.7941 38.3511L52.2918 15.7856H63.3262L49.9576 54.6523H40.7623L31.8499 29.7378ZM85.4737 45.8968C82.5972 45.8968 80.2513 44.9002 78.4358 42.9071C76.6203 40.9139 75.7125 38.3513 75.7125 35.2192C75.7125 32.1345 76.6203 29.5837 78.4358 27.5668C80.2513 25.5499 82.5972 24.5415 85.4737 24.5415C88.3502 24.5415 90.6844 25.5499 92.4764 27.5668C94.2683 29.5837 95.1642 32.1345 95.1642 35.2192C95.1642 38.3513 94.2683 40.9139 92.4764 42.9071C90.6844 44.9002 88.3502 45.8968 85.4737 45.8968ZM121.98 33.7245V54.6527H111.37V15.786H121.273V21.6231C122.263 19.2028 123.666 17.5537 125.481 16.6758C127.297 15.7979 129.383 15.3589 131.741 15.3589H134.005V24.6129H130.68C128.087 24.6129 125.988 25.4078 124.385 26.9975C122.782 28.5873 121.98 30.8296 121.98 33.7245ZM184.383 1.62012V9.4504H180.139V1.62012H184.383ZM184.383 54.6522V16.8533H180.139V54.6522H184.383ZM210.279 55.0083C209.619 55.0558 209.1 55.0795 208.723 55.0795C205.563 55.0795 203.147 54.1897 201.473 52.4101C199.799 50.6305 198.962 48.0323 198.962 44.6154V20.911H191.888V16.8535H194.576C195.944 16.8535 197.016 16.4264 197.795 15.5722C198.573 14.7179 198.962 13.5553 198.962 12.0841V8.02661H203.206V16.8535H211.411V20.911H203.206V44.6154C203.206 45.6594 203.359 46.6798 203.665 47.6763C203.972 48.6729 204.573 49.4797 205.469 50.0966C206.365 50.7135 207.662 51.022 209.359 51.022C209.737 51.022 210.196 50.9983 210.739 50.9508C211.281 50.9034 211.717 50.8559 212.047 50.8085V54.7236C211.529 54.866 210.939 54.9609 210.279 55.0083Z" fill="white"/>
</svg>
