<svg width="68" height="69" viewBox="0 0 68 69" fill="none" xmlns="http://www.w3.org/2000/svg">
<path d="M32.6322 67.8167L32.6097 67.8036L32.5316 67.7578C32.4651 67.7186 32.37 67.6621 32.2482 67.5885C32.0047 67.4413 31.6542 67.2257 31.212 66.9439C30.3279 66.3804 29.0755 65.5508 27.5772 64.4718C24.5857 62.3174 20.5886 59.1506 16.5809 55.1032C8.64967 47.0935 0.246094 35.1937 0.246094 20.5354C0.246094 9.60062 8.73857 0.929321 18.9901 0.929321C25.0188 0.929321 30.4169 3.91351 33.8561 8.59101C37.2953 3.91351 42.6933 0.929321 48.7221 0.929321C58.9736 0.929321 67.4661 9.60062 67.4661 20.5354C67.4661 35.1937 59.0625 47.0935 51.1313 55.1032C47.1235 59.1506 43.1264 62.3174 40.135 64.4718C38.6367 65.5508 37.3843 66.3804 36.5002 66.9439C36.058 67.2257 35.7075 67.4413 35.4639 67.5885C35.3421 67.6621 35.247 67.7186 35.1805 67.7578L35.1025 67.8036L35.0799 67.8167L35.0704 67.8222C34.3122 68.2584 33.4 68.2584 32.6418 67.8222L32.6322 67.8167Z" fill="#030712"/>
<circle cx="21.1783" cy="34.5369" r="5.5" fill="#030712" stroke="#F9FAFB" stroke-width="3"/>
<circle cx="46.5338" cy="34.5369" r="5.5" fill="#030712" stroke="#F9FAFB" stroke-width="3"/>
<path d="M21.5587 47.7737C21.5587 47.7737 17.7199 52.7625 34.4319 52.7625C49.9507 52.7625 47.4042 47.7737 47.4042 47.7737" stroke="#F9FAFB" stroke-width="2"/>
</svg>
