<svg width="68" height="69" viewBox="0 0 68 69" fill="none" xmlns="http://www.w3.org/2000/svg">
<path d="M34.3795 0.934326C35.8073 0.934326 36.9647 2.09176 36.9647 3.51952V11.2751C36.9647 12.7029 35.8073 13.8603 34.3795 13.8603C32.9517 13.8603 31.7943 12.7029 31.7943 11.2751V3.51952C31.7943 2.09176 32.9517 0.934326 34.3795 0.934326Z" fill="#030712"/>
<path d="M18.8683 34.5418C18.8683 25.9753 25.8129 19.0307 34.3795 19.0307C42.9461 19.0307 49.8906 25.9753 49.8906 34.5418C49.8906 43.1084 42.9461 50.053 34.3795 50.053C25.8129 50.053 18.8683 43.1084 18.8683 34.5418Z" fill="#030712"/>
<path d="M58.1438 14.4336C59.1534 13.4241 59.1534 11.7872 58.1438 10.7776C57.1342 9.76805 55.4973 9.76805 54.4878 10.7776L49.0037 16.2617C47.9941 17.2712 47.9941 18.9081 49.0037 19.9177C50.0133 20.9273 51.6502 20.9273 52.6597 19.9177L58.1438 14.4336Z" fill="#030712"/>
<path d="M67.987 34.5418C67.987 35.9696 66.8296 37.127 65.4018 37.127H57.6462C56.2185 37.127 55.061 35.9696 55.061 34.5418C55.061 33.1141 56.2185 31.9566 57.6462 31.9566H65.4018C66.8296 31.9566 67.987 33.1141 67.987 34.5418Z" fill="#030712"/>
<path d="M54.4874 58.3058C55.4969 59.3154 57.1338 59.3154 58.1434 58.3058C59.153 57.2962 59.153 55.6594 58.1434 54.6498L52.6594 49.1658C51.6498 48.1562 50.0129 48.1562 49.0033 49.1658C47.9938 50.1754 47.9938 51.8122 49.0033 52.8218L54.4874 58.3058Z" fill="#030712"/>
<path d="M34.3795 55.2234C35.8073 55.2234 36.9647 56.3808 36.9647 57.8086V65.5642C36.9647 66.9919 35.8073 68.1494 34.3795 68.1494C32.9517 68.1494 31.7943 66.9919 31.7943 65.5642V57.8086C31.7943 56.3808 32.9517 55.2234 34.3795 55.2234Z" fill="#030712"/>
<path d="M19.7559 52.8218C20.7655 51.8122 20.7655 50.1754 19.7559 49.1658C18.7463 48.1562 17.1095 48.1562 16.0999 49.1658L10.6159 54.6498C9.6063 55.6594 9.6063 57.2963 10.6159 58.3058C11.6255 59.3154 13.2623 59.3154 14.2719 58.3058L19.7559 52.8218Z" fill="#030712"/>
<path d="M13.6979 34.5418C13.6979 35.9696 12.5405 37.127 11.1127 37.127H3.35717C1.9294 37.127 0.771973 35.9696 0.771973 34.5418C0.771973 33.1141 1.9294 31.9566 3.35717 31.9566H11.1127C12.5405 31.9566 13.6979 33.1141 13.6979 34.5418Z" fill="#030712"/>
<path d="M16.0995 19.9176C17.1091 20.9272 18.7459 20.9272 19.7555 19.9176C20.7651 18.9081 20.7651 17.2712 19.7555 16.2616L14.2715 10.7776C13.2619 9.76802 11.6251 9.76802 10.6155 10.7776C9.60591 11.7872 9.60591 13.424 10.6155 14.4336L16.0995 19.9176Z" fill="#030712"/>
</svg>
