<svg width="68" height="69" viewBox="0 0 68 69" fill="none" xmlns="http://www.w3.org/2000/svg">
<path fill-rule="evenodd" clip-rule="evenodd" d="M33.7583 0.934326C15.1974 0.934326 0.150757 15.9809 0.150757 34.5418C0.150757 53.1028 15.1974 68.1494 33.7583 68.1494C52.3192 68.1494 67.3658 53.1028 67.3658 34.5418C67.3658 15.9809 52.3192 0.934326 33.7583 0.934326ZM21.8556 8.708C12.0949 13.2126 5.32114 23.0862 5.32114 34.5418C5.32114 50.2472 18.0529 62.979 33.7583 62.979C48.6286 62.979 60.833 51.5652 62.0889 37.0204L60.5002 35.4318C59.9108 34.8423 59.4202 34.1617 59.0475 33.4162L55.3246 25.9704C54.8893 25.1 53.7293 24.9117 53.0411 25.5998C52.3089 26.3321 51.2372 26.6098 50.2414 26.3253L45.8539 25.0717C44.1876 24.5956 42.4582 25.5945 42.0379 27.2757C41.7237 28.5325 42.2335 29.8511 43.3114 30.5697L45.3338 31.918C47.3699 33.2754 47.6551 36.1562 45.9248 37.8866L45.2349 38.5765C44.5077 39.3037 44.0991 40.29 44.0991 41.3185V42.7344C44.0991 44.1401 43.7171 45.5193 42.9939 46.7247L38.4625 54.277C37.1479 56.468 34.7802 57.8086 32.225 57.8086C30.2163 57.8086 28.588 56.1802 28.588 54.1715V50.1334C28.588 46.9621 26.6572 44.1103 23.7127 42.9325L21.458 42.0306C18.074 40.677 16.0891 37.1498 16.6883 33.5547L16.7125 33.4092C16.8725 32.4494 17.2116 31.5283 17.7122 30.694L18.0204 30.1803C19.7067 27.3698 22.9778 25.9227 26.1918 26.5655L30.2517 27.3775C32.2326 27.7737 34.1858 26.5827 34.7408 24.6403L35.4594 22.1251C35.9721 20.3309 35.1341 18.4259 33.465 17.5914L31.1732 16.4455L30.8595 16.7591C29.4051 18.2136 27.4324 19.0307 25.3755 19.0307H24.7519C23.8975 19.0307 23.0762 19.3721 22.4721 19.9762C21.495 20.9533 19.9987 21.199 18.7628 20.5811C17.0902 19.7448 16.4835 17.6615 17.4457 16.0579L21.8556 8.708Z" fill="#030712"/>
</svg>
